<?xml version="1.0" encoding="UTF-8"?>
<svg width="1920" height="1080" version="1.1" viewBox="0 0 819.2 460.8" xml:space="preserve" xmlns="http://www.w3.org/2000/svg"><defs><filter id="filter24" x="-.0018843" y="-.0023283" width="1.0038" height="1.0047" color-interpolation-filters="sRGB"><feColorMatrix result="colormatrix1" type="luminanceToAlpha"/><feFlood flood-color="rgb(215,119,51)" result="flood1"/><feComposite in2="colormatrix1" operator="out" result="composite1"/><feFlood flood-color="rgb(255,255,255)" result="flood2"/><feComposite in2="colormatrix1" operator="in" result="composite2"/><feComposite in="composite2" in2="composite1" k2="1" k3="1" operator="arithmetic" result="composite3"/><feColorMatrix in="composite3" result="colormatrix2" values="2 -1 0 0 0 0 2 -1 0 0 -1 0 2 0 0 0 0 0 1 0 "/><feComposite in="colormatrix2" in2="composite3" operator="arithmetic" result="composite4"/><feBlend in="composite4" in2="composite3" result="blend"/><feComposite in2="SourceGraphic" operator="in" result="fbSourceGraphic"/><feColorMatrix in="fbSourceGraphic" result="fbSourceGraphicAlpha" values="0 0 0 -1 0 0 0 0 -1 0 0 0 0 -1 0 0 0 0 1 0"/><feColorMatrix in="fbSourceGraphic" result="colormatrix1" type="luminanceToAlpha"/><feFlood flood-color="rgb(230,169,126)" result="flood1"/><feComposite in2="colormatrix1" operator="out" result="composite1"/><feFlood flood-color="rgb(255,255,255)" result="flood2"/><feComposite in2="colormatrix1" operator="in" result="composite2"/><feComposite in="composite2" in2="composite1" k2="1" k3="1" operator="arithmetic" result="composite3"/><feColorMatrix in="composite3" result="colormatrix2" values="2 -1 0 0 0 0 2 -1 0 0 -1 0 2 0 0 0 0 0 1 0 "/><feComposite in="colormatrix2" in2="composite3" operator="arithmetic" result="composite4"/><feBlend in="composite4" in2="composite3" result="blend"/><feComposite in2="fbSourceGraphic" operator="in"/></filter></defs><g transform="matrix(1.3855 0 0 1.3855 90.388 -337.09)" filter="url(#filter24)"><path d="m186.66 292.78-0.28394 0.0874-4.8998 1.5835-0.70621 0.22752 0.50599 0.53694 6.7528 7.2296-8.4655 3.0797-0.69712 0.24936 0.5242 0.52238 4.5831 4.5831 0.21121 0.2075 0.27484-0.0928 8.7258-3.0324 20.014 21.418c-2.0094 0.34728-4.8532 0.1791-8.136-0.40408-4.2526-0.75135-8.3487-2.5074-12.512-4.2919-7.6839-3.2894-15.595-6.6814-25.326-4.2591l-0.35493 0.0874v6.3814c-4.7244-0.77975-7.7189-1.9912-10.462-3.1052-4.2613-1.7255-7.9537-3.2217-16.441-2.5992l-0.6698 0.0528 0.27483 0.61157c1.6818 3.7502 2.5428 7.3006 2.0732 10.522-0.46305 3.1911-2.2395 6.0895-5.8172 8.5838l-1.7346 1.2086 2.0804-0.35675c8.9879-1.5508 16.681 0.67164 22.737 2.419 2.0116 0.58317 3.8478 1.1143 5.475 1.4397 4.9887 0.9938 8.3246 0.21768 9.7269-6.1448 4.9581 0.71204 9.8066 2.641 14.363 4.4539 4.0669 1.6163 7.9045 3.1463 11.445 3.664h0.0109c2.6691 0.39097 5.2427 0.55551 7.5427 0.42228 2.5424-0.15289 4.7659-0.672 6.4433-1.6745 1.732-1.0309 2.8733-2.5602 3.1834-4.6942 0.0721-0.48051 0.10113-0.98469 0.0837-1.5198 0.98288-0.69457 1.732-1.4783 2.1951-2.3607 0.27739-0.5242 0.45322-1.0808 0.51875-1.6727l34.11 36.053-0.0175 0.0564-0.50601 1.4925-0.45138 1.5162-0.40045 1.5362-0.344 1.5617-0.28941 1.5835-0.23296 1.6126-0.17473 1.6345-0.12013 1.6564-0.0564 1.6818 4e-3 1.7091 0.0655 1.7364 0.13105 1.7601 0.19111 1.7874 0.21471 1.4889-0.9738 1.1376-1.285 1.1886-1.4088 1.0338-1.5362 0.88824-1.6509 0.75354-1.7601 0.6243-1.8675 0.5042-1.9621 0.39315-2.0531 0.28394-2.1296 0.18937-2.2006 0.10004-2.2679 0.0175-2.3207-0.0509-2.368-0.11838-2.408-0.17299-2.4372-0.21471-2.4627-0.25482-2.4772-0.28395-2.4809-0.29667-2.4827-0.31125-2.4754-0.31124-2.4554-0.30216-2.4335-0.28576-2.4008-0.2621-2.3589-0.22206-2.3134-0.1802v-2e-3l-2.2625-0.12385-2.1951-0.0638-2.1277 9e-3 -2.0531 0.0911-1.9694 0.18195-1.8693 0.28394-1.7801 0.34947-1.7255 0.3786-1.6818 0.4077-1.6327 0.43321-1.589 0.45868-1.5471 0.47687-1.5071 0.49508-1.4689 0.51691-1.4306 0.52785-1.4015 0.53877-1.3669 0.55151-1.3324 0.55877-1.3032 0.56424-1.2777 0.56789-1.2541 0.56972-1.2231 0.56788-1.2049 0.56789-1.1867 0.55696-1.1649 0.54967-1.1485 0.54423-1.1303 0.52785-1.1212 0.51691-1.1066 0.4969-1.0976 0.48052-1.0902 0.45868-1.0812 0.43683-1.0775 0.41318-1.0757 0.38405-1.0702 0.35492-1.0757 0.32217-1.0757 0.29124-1.0793 0.2548-1.0921 0.21667-1.1048 0.17474-1.1176 0.12734-1.1248 0.0874-1.1358 0.0365-1.1358-4e-3 -1.1322-0.0491-1.1248-0.0983-1.1139-0.14372-1.0976-0.18937-1.0793-0.24026-1.0593-0.2894-1.0266-0.33309-1.0047-0.38585-0.96103-0.43138-0.92828-0.48235-0.88642-0.53329-0.83726-0.58064-0.78995-0.63158-0.73898-0.68439-0.68436-0.73351-0.61887-0.78265-0.56424-0.84091-0.49871-0.89189-0.42591-0.94465-0.35493-1.0047-0.28213-1.0611-0.20379-1.123-0.12013-1.1831-0.0273-1.2504 0.0601-1.3105 0.15836-1.3724 0.0764-0.39315 0.0983-0.39862 0.1328-0.39315 0.16381-0.40224 0.19286-0.39498 0.22388-0.39861 0.25118-0.39678 0.28394-0.39315 0.31308-0.38769 0.34217-0.3877 0.37315-0.3786 0.40407-0.37677 0.43138-0.36585 0.46049-0.36039 0.48962-0.34947 0.51691-0.33854 0.54604-0.32763 0.57518-0.31671 0.59882-0.30213 0.62795-0.29122 0.65525-0.27302 0.68256-0.2621 0.70623-0.24026 0.73532-0.22388 0.75538-0.2075 0.7863-0.1874 0.80815-0.16927 0.82998-0.14743 0.86092-0.12385 0.87913-0.10375 0.90462-0.0819 0.93009-0.0546 2.2133-0.0727 2.2988-0.0218 2.3771 0.0236 2.4499 0.0692 2.5118 0.10746 2.5628 0.14197 2.6119 0.17648 2.652 0.20378 2.6865 0.22751 2.712 0.24572 2.7284 0.2621 2.7411 0.27485 2.7411 0.28395 2.7411 0.2894 2.7266 0.28757 2.7084 0.2894 2.6811 0.27667 2.6501 0.26938 2.6083 0.25118 2.5591 0.2348 2.5027 0.20924 2.4463 0.18565 2.3734 0.1529 2.2988 0.12013 2.2133 0.0819 2.1223 0.0345 2.0276-9e-3 1.9202-0.0601 1.8129-0.11467 1.6927-0.17298 1.5726-0.23664 1.4361-0.30941 1.9621-0.53696 1.8238-0.59518 1.6982-0.6498 1.5781-0.69893 1.4634-0.74625 1.3469-0.79176 1.2359-0.82999 1.1321-0.87004 1.0248-0.90279 0.92644-0.92827 0.82999-0.95377 0.73715-0.97742 0.64617-0.99561 0.56424-1.0047 0.48052-1.012 0.40226-1.0156 0.32762-1.0175 0.2621-1.0102 0.19112-1.0029 0.13105-0.99198 0.0765-0.97196 0.029-0.95739-0.029-0.93011-0.0655-0.90097-0.10921-0.87003-0.14197-0.83726-0.17845-0.79905-0.20378-0.75718-0.22934-0.71532-0.24572-0.66253-0.2621-0.61157-0.25983-0.52019-0.6316-1.5107-0.73532-1.3688-0.81907-1.1795-0.9028-0.99926-0.97742-0.82998-1.0466-0.66436-1.1048-0.51146-1.1576-0.36949-1.2013-0.2348-1.234-0.12559-1.2741-0.0218-1.3014 0.0619-1.3269 0.13833-1.3542 0.19657-1.3706 0.24026-1.3961 0.27848-1.4088 0.30215-1.4215 0.31125-1.4325 0.31488-1.4379 0.30032-1.4452 0.27485-1.4397 0.24208-1.4361 0.19657-1.4252 0.1347-1.4161 0.071-1.3979-0.0109-1.3778-0.10375-1.3542-0.20022-1.3287-0.31307-1.3014-0.43319-1.2723-0.56789-3.5693-2.0477 2.3589 4.0371 1.0393 1.6636 1.0484 1.569 1.0611 1.4725 1.0702 1.376 1.083 1.2832 1.0921 1.1958 1.0976 1.0976 1.1066 1.0102 1.1139 0.91736 1.123 0.82998 1.1285 0.73535 1.1321 0.64798 1.1394 0.56424 1.1449 0.47141 1.1449 0.38406 1.1503 0.2985 1.154 0.20924 1.1485 0.12384 1.1485 0.04 1.1467-0.0437 1.143-0.13651 1.1358-0.20924 1.1285-0.29487 1.1194-0.37131 1.1085-0.45138 1.103-0.5315 1.0921-0.60611 1.0775-0.68072 1.0702-0.75354 1.0502-0.82271 0.4969-0.42773 0.071 0.12013 0.13825 0.29668 0.12013 0.35128 0.0983 0.39861 0.0692 0.44049 0.0437 0.47141 7e-3 0.50965-0.0328 0.53513-0.0673 0.55696-0.11838 0.57335-0.16381 0.58972-0.21471 0.60611-0.26573 0.61157-0.324 0.61338-0.38404 0.61157-0.44776 0.61522-0.51509 0.60427-0.5861 0.59519-0.66071 0.57881-0.73898 0.56426-0.81906 0.54058-0.90825 0.51691-0.99563 0.48781-1.0866 0.45138-1.1849 0.41499-1.285 0.37496-1.387 0.32763-1.4944 0.27302-1.6054 0.22023-1.7164 0.1601-1.8256 0.10375-1.8784 0.0474-1.933-7e-3 -1.9785-0.0528-2.0276-0.10201-2.075-0.14371-2.115-0.1802-2.1532-0.21842-2.1896-0.24388-2.2279-0.2694-2.257-0.29486-2.2861-0.31125-2.3134-0.32762-2.3425-0.33672-2.3589-0.34584-2.3826-0.34401-2.4026-0.34581-2.4117-0.34036-2.4263-0.33309-2.439-0.31854-2.4463-0.30578-2.4554-0.27665-2.4536-0.25848-2.459-0.22934-2.4554-0.19657-2.4517-0.15661-2.4463-0.12013-2.4408-0.0747-2.4281-0.0256-2.4153 0.0273-2.4026 0.0819-2.3808 0.14372-1.245 0.10921-1.2213 0.13105-1.2031 0.16207-1.1849 0.1874-1.1613 0.21667-1.143 0.24026-1.1176 0.26939-1.0957 0.29487-1.0702 0.32398-1.0448 0.34219-1.0193 0.37494-0.9938 0.3968-0.96467 0.42227-0.93919 0.44775-0.90281 0.47325-0.87913 0.49508-0.83907 0.52237-0.81179 0.54423-0.77539 0.5697-0.74262 0.59519-0.70985 0.61522-0.66799 0.64068-0.63341 0.66255-0.59519 0.68618-0.5515 0.70986-0.51512 0.72988-0.4696 0.75354-0.42591 0.77539-0.38223 0.79541-0.33672 0.81906-0.29123 0.83545-0.24026 0.86091-0.51691 2.4099-0.3167 2.3207-0.12734 2.2333 0.0529 2.1441 0.22934 2.0531 0.39315 1.9658 0.54604 1.8748 0.69166 1.7801 0.82999 1.6818 0.9592 1.5926 1.0702 1.498 1.1813 1.4015 1.2777 1.3087 1.3651 1.2122 1.4452 1.123 1.5126 1.0247 1.5726 0.93192 1.6272 0.84272 1.6673 0.75173 1.6964 0.6589 1.7255 0.56788 1.7383 0.47687 1.7473 0.38951 1.7437 0.29124 1.7346 0.21121 1.7146 0.11467 1.6909 0.029 1.6454-0.0655 1.6054-0.15289 1.5544-0.24572 1.4907-0.33309 0.51511-0.15835 0.031 0.80814-0.0273 1.6327-0.1092 1.5562-0.18566 1.4852-0.26027 1.4197-0.32762 1.3651-0.39315 1.305-0.45687 1.2504-0.51328 1.2049-0.56788 1.1594-0.61522 1.1194-0.66434 1.0848-0.70623 1.0502-0.74262 1.0211-0.78085 0.99743-0.80814 0.97742-0.83726 0.95741-0.86094 0.93919-0.87913 0.9319-0.89368 0.92282-0.90643 0.91919-0.91189 0.91916-0.9119 0.921-0.91189 0.93191-0.90281 0.93557-0.89913 0.95374-0.87913 0.97379-0.86275 0.99197-0.8391 1.0193-0.80814 1.0484-0.78266 1.0794-0.72443 1.0921-0.27302 0.3804-0.3349 0.3786-0.41499 0.40043-0.48781 0.41499-0.56059 0.42591-0.62614 0.43684-0.68437 0.44776-0.74262 0.4514-0.79176 0.45503-0.84637 0.46232-0.88097 0.46231-0.9319 0.46597-0.96287 0.46776-0.99743 0.46414-1.0247 0.46597-1.0502 0.46414-1.0757 0.46049-1.0866 0.45867-1.1048 0.45141-1.1139 0.45138-1.1194 0.4423-1.1248 0.43683-1.1194 0.42775-1.1176 0.42227-1.1067 0.41134-1.0957 0.40045-1.0793 0.39315-1.0593 0.38223-1.0357 0.37131-1.0084 0.35493-0.97923 0.34217-0.8391 0.29487-0.33125 7e-3 -0.44594 0.0345-0.43319 0.0618-0.41499 0.0819-0.3968 0.10921-0.38404 0.13651-0.36768 0.1601-0.34763 0.18937-0.32946 0.21295-0.30941 0.24026-0.2894 0.26756-0.26394 0.28395-0.24572 0.31308-0.21842 0.33671-0.20204 0.35857-0.17474 0.37496-0.15835 0.39315-0.13105 0.41862-0.10921 0.43138-0.09457 0.45505-0.06924 0.47141-0.05286 0.49144-0.03451 0.50963-0.01529 0.52967 0.0044 0.54604 0.02184 0.56972 0.04368 0.58789 0.05832 0.60795 0.08191 0.62795 0.09457 0.64795 0.11467 0.66982 0.1566 0.81542 0.30762 0.48052 0.21667 0.36223 0.20204 0.36038 0.18566 0.36221 0.16927 0.36403 0.15464 0.36767 0.14743 0.36949 0.1293 0.37131 0.11642 0.37131 0.102 0.37312 0.09108 0.37859 0.07645 0.37677 0.06553 0.38223 0.05286 0.38223 0.03822 0.38407 0.02905 0.3895 0.01747 0.3895 0.0044 0.39315-0.0066 0.39316-0.01529 0.39498-0.02905 0.39861-0.03822 0.40224-0.05286 0.40045-0.06181 0.40588-0.07099 0.40589-0.08365 0.40953-0.08911 0.41137-0.1055 0.41316-0.11096 0.41499-0.12188 0.415-0.13105 0.42045-0.04368 0.12559-0.08562 0.04-0.37131 0.16927-0.3622 0.18195-0.34947 0.19286-0.33855 0.20378-0.324 0.21471-0.30578 0.23661-0.28576 0.25118-0.26575 0.26939-0.24388 0.29487-0.21296 0.32033-0.1802 0.34038-0.14197 0.36039-0.10375 0.38404-0.06378 0.40589-0.01092 0.42045 0.03101 0.43138 0.0747 0.44775 0.12188 0.46052 0.16381 0.47868 0.21296 0.49327 0.25845 0.51145 0.30578 0.53331 0.35674 0.55332 0.40591 0.5788 0.45868 0.59703 0.51328 0.62795 0.56789 0.65525 0.62612 0.68618 0.68802 0.71351 0.74808 0.74443 1.0102 0.97379 0.90827-4e-3 0.62612 4e-3h0.63524l0.6425 0.0153 0.64617 0.0153 0.65525 0.0197 0.65525 0.0236 0.66071 0.0256 0.66617 0.0365 0.6698 0.0365 0.67163 0.0437 0.67528 0.0437 0.6771 0.0529 0.67709 0.0583 0.6771 0.0638 0.68074 0.0655 0.68072 0.0747 0.67709 0.0782 0.6771 0.0837 0.67709 0.0911 0.67164 0.0965 0.67163 0.0983 0.66982 0.10375 0.66253 0.11467 0.66071 0.11838 0.65344 0.12385 0.6516 0.13105 0.64071 0.13825 0.63887 0.13826 0.63158 0.14918 0.62249 0.15464 0.63341 0.17102 0.47143 0.0983 0.45322 0.0874 0.45322 0.0782 0.44229 0.0673 0.44046 0.0638 0.43321 0.0454 0.43138 0.04 0.42045 0.0256 0.42045 0.0153 0.4077 4e-3 0.40407-9e-3 0.39499-0.0218 0.39315-0.0345 0.3804-0.0454 0.37677-0.0655 0.36585-0.0747 0.35857-0.0946 0.2075-0.0655c0.99817 0.8562 1.8005 1.9832 1.2632 3.8988l-0.49143 1.7637 1.2796-1.3069c2.2104-2.2541 2.3305-5.1605 1.5071-7.3097l-0.0175-0.0437 0.031-0.0638 0.0236-0.0583 0.57881-0.21121 0.80452-0.37131 0.72078-0.41864 0.63703-0.45686 0.55516-0.49507 0.47141-0.53331 0.38406-0.55877 0.0509-0.0983c0.99817 0.2621 1.9356 0.7903 2.237 2.3061l0.35128 1.8001 0.55697-1.7473c0.79722-2.5052-0.20532-4.7113-1.6272-6.0065-0.38213-0.35146-0.81346-0.64514-1.2814-0.87005l-0.0874-0.21296-0.29848-0.55696-0.35677-0.53148-0.41499-0.50054-0.47322-0.4696-0.52421-0.42954-0.56788-0.38953-0.62249-0.34401-0.66072-0.29486-0.70804-0.24026-0.74262-0.18391-0.78266-0.12559-0.8136-0.0564-0.84274 0.0109-0.87367 0.0856-0.89552 0.1601-0.91735 0.2421-0.78266 0.26572-0.10003-7e-3 -0.73716-0.0491-0.24391-0.0153-0.73351-0.0529-0.24755-0.0153-1.7128-0.11641-0.24572-0.0131-1.7128-0.11642-0.24391-0.0153-1.4142-0.0946-0.20204-0.24026-0.44046-0.48779-0.45868-0.48052-0.47505-0.47325-0.47144-0.46232-0.46595-0.45503-0.44594-0.44048-0.41862-0.42592-0.37677-0.40953-0.32035-0.38223-0.2621-0.35128-0.18391-0.30943-0.10375-0.24935-0.0382-0.17102 9e-3 -0.0965 0.0546-0.12188 0.40589-0.56788 0.45321-0.57697 0.46233-0.54605 0.46959-0.51328 0.47871-0.48598 0.47322-0.45868 0.47506-0.43137 0.46233-0.40045 0.4514-0.38039 0.43684-0.35493 0.41499-0.32763 0.39315-0.30943 0.36948-0.28759 0.33673-0.27119 0.30578-0.25301 0.23662-0.21296 0.0983-0.0782 0.10921-0.0546 0.15289-0.0509 0.21121-0.0437 0.25845-0.0256 0.29851-0.0175h0.33674l0.37131 0.0153 0.40223 0.0218 0.42592 0.0273 0.4514 0.0382 0.47325 0.04 0.49506 0.0419 0.50782 0.04 0.52967 0.0345 0.54058 0.031 0.55334 0.0175 0.56059 7e-3 0.57518-9e-3 0.57335-0.0256 0.58608-0.0509 0.58608-0.0692 0.58426-0.0983 0.58973-0.12733 0.5861-0.16207 0.57881-0.19658 0.57151-0.23663 0.56426-0.27665 0.5515-0.31854 0.53513-0.37131 0.52055-0.41499 0.21471-0.20204 0.16752 0.0345 0.5242 0.0911 0.52056 0.0747 0.51328 0.0638 0.50782 0.0491 0.50236 0.0382 0.4969 0.0218 0.48782 0.0109 0.48597-2e-3 0.47506-0.0153 0.47506-0.0236 0.46414-0.0345 0.45868-0.0454 0.45502-0.0546 0.44776-0.0638 0.44048-0.0764 0.43684-0.0802 0.43137-0.0874 0.42408-0.0983 0.41864-0.10374 0.41135-0.10921 0.40772-0.11839 0.40226-0.12187 0.39315-0.12559 0.39132-0.13477 0.38406-0.13651 0.38039-0.13826 0.37131-0.14371 0.37131-0.14918 0.36039-0.14744 0.35493-0.15289 0.17648-0.0764 0.61157 0.0655 0.77538 0.0692 0.75171 0.0529 0.7317 0.04 0.70623 0.0236 0.68618 0.0109 0.66255-2e-3 0.6425-0.0175 0.62249-0.031 0.59883-0.0437 0.58246-0.0529 0.56242-0.0655 0.54604-0.0765 0.52421-0.0874 0.50598-0.0983 0.48598-0.1055 0.47325-0.12013 0.45503-0.1293 0.43867-0.13651 0.41862-0.14569 0.4059-0.15289 0.38951-0.16207 0.37495-0.16752 0.36039-0.17474 0.34947-0.18565 0.33309-0.18391 0.31852-0.19483 0.30578-0.19657 0.29305-0.20204 0.27848-0.20575 0.26757-0.21296 0.12013-0.10003 0.60973-0.14022 0.75719-0.21296 0.72805-0.24026 0.70258-0.27121 0.67529-0.30397 0.65525-0.33125 0.63157-0.36585 0.60795-0.39499 0.59335-0.42773 0.57335-0.45503 0.5588-0.48416 0.54967-0.5151 0.54058-0.54604 0.52966-0.57518 0.52058-0.60065 0.52237-0.63341 0.52057-0.66434 0.51691-0.69531 0.52604-0.72078 0.52966-0.75716 0.54058-0.78631 0.54605-0.81544 0.56242-0.84818 0.57881-0.88094 0.59154-0.9119 0.61339-0.9483 0.63341-0.97377 0.65709-1.0138 0.68618-1.0448 0.71169-1.0812 0.74262-1.1139 0.42408-0.62614 0.41137 0.20378 0.51144 0.24572 0.52604 0.24572 0.53693 0.24026 0.54604 0.24391 0.55333 0.24026 0.5588 0.24026 0.55878 0.24026 0.56061 0.24207 0.56424 0.24209 0.55696 0.24389 0.55332 0.24572 0.54604 0.24572 0.53513 0.24391 0.52057 0.25118 0.51145 0.25118 0.49327 0.25118 0.47323 0.25482 0.45505 0.25846 0.43137 0.26029 0.40589 0.26026 0.37496 0.2621 0.34946 0.2621 0.31671 0.2621 0.28029 0.26575 0.24391 0.2621 0.20575 0.25846 0.17102 0.25301 0.1293 0.25118 0.0911 0.24026 0.0638 0.2621 0.0491 0.31487 0.0546 0.35131 0.0509 0.36947 0.0454 0.38407 0.0437 0.39861 0.0437 0.41499 0.04 0.42408 0.0365 0.44595 0.031 0.4514 0.0256 0.46776 0.0256 0.4769 0.0153 0.48414 0.0175 0.4969 9e-3 0.5042 4e-3 0.51328-2e-3 0.51874-4e-3 0.53147-0.0109 0.53148-0.0175 0.53877-0.0218 0.5424-0.0291 0.54604-0.0365 0.54969-0.0419 0.54969-0.0491 0.55332-0.0529 0.55696-0.0638 0.55516-0.0692 0.5515-0.0802 0.55332-0.0837 0.55515-0.0928 0.54786-0.102 0.54604-0.0491 0.22753-0.44229 0.25118-0.72078 0.41499-0.70077 0.41499-0.68801 0.41862-0.66434 0.42229-0.64433 0.42954-0.62433 0.43502-0.59519 0.43865-0.56788 0.44776-0.53875 0.45321-0.50782 0.46414-0.47325 0.4696-0.43502 0.48052-0.39496 0.49327-0.35674 0.50964-0.30944 0.51692-0.2621 0.53513-0.2075 0.54967-0.15115 0.56788-0.0911 0.57518-0.0218 0.58973 0.0382 0.60065 0.11292 0.60427 0.1802 0.60795 0.24937 0.60973 0.32035 0.61703 0.39315 0.61157 0.45868 0.61886 0.54239 0.62612 0.60976 0.62795 0.68801 0.63341 0.75717 0.64252 1.0357 0.83364 0.3422 0.27848 1.0266 0.83361 0.34582 0.27848 1.0284 0.83364 0.34401 0.27667 0.3422 0.27664 0.34036 0.27849 0.34584 0.27485 0.34217 0.27849 1.0266 0.83361 0.34584 0.27848 1.0266 0.83363 0.34217 0.27667 1.0284 0.82999 0.34582 0.27848 0.3422 0.27665 0.34217 0.28032 0.34219 0.27665 0.2803 0.22933 0.41499 0.52967 0.47506 0.60065 0.4969 0.61156 0.50782 0.60795 0.5242 0.61157 0.54059 0.60611 0.55697 0.60064 0.56425 0.58973 0.58789 0.57697 0.59884 0.56062 0.61157 0.54239 0.62976 0.52058 0.64071 0.4969 0.65889 0.47141 0.66981 0.43683 0.68801 0.40772 0.70075 0.36585 0.71716 0.32763 0.72986 0.28394 0.74627 0.24026 0.76081 0.18391 0.77176 0.12734 0.78631 0.0747 0.80084 9e-3 0.51329-0.0328 0.37495 0.18937c1.3717 0.68583 3.0054 1.5082 2.7521 3.9151l-0.1874 1.8183 1.0429-1.5071c1.2299-1.7372 1.5155-3.9726 0.76082-5.9628l0.54423-0.31671 0.5169-0.35493 0.64252 0.25119 0.91736 0.30395 0.84272 0.21295 0.77175 0.13105 0.7044 0.0491 0.65161-0.0382 0.597-0.11467 4e-3 -4e-3c1.1183 0.61157 2.1795 1.4688 1.9785 3.3909l-0.1874 1.8165 1.0429-1.5034c1.4306-2.0597 1.3476-4.3258 0.58973-6.0666l0.14918 0.0546 0.83907 0.17845 0.79722 0.0655 0.74808-0.0583 0.69348-0.16927 0.62795-0.2694 0.55334-0.36948 0.47687-0.44959 0.0983-0.13651c0.94793 0.27521 1.818 0.82125 2.1041 2.2716l0.35312 1.7983 0.55515-1.7474c0.79722-2.5052-0.20531-4.7134-1.6272-6.0065-0.16382-0.14896-0.3377-0.28761-0.51874-0.41499l-0.029-0.18391-0.21296-0.68983-0.29487-0.68439-0.38223-0.66434-0.47505-0.63341-0.56424-0.59337-0.65525-0.54969-0.74627-0.49507-0.83726-0.42956-0.92463-0.35312-1.0175-0.27664-1.103-0.18741-1.1995-0.0911-1.285 4e-3 -1.3797 0.12384-1.4762 0.24026-1.4416 0.33128-0.4623-0.0437-0.56243-0.0946-0.58064-0.13476-0.58427-0.17845-0.597-0.21471-0.60065-0.25118-0.60246-0.28394-0.60248-0.3167-0.60065-0.3422-0.59335-0.36585-0.5861-0.39132-0.57516-0.4059-0.56424-0.42046-0.54242-0.43683-0.52783-0.44411-0.50782-0.44957-0.48052-0.45868-0.46051-0.45505-0.435-0.45321-0.40044-0.44592-0.36948-0.43684-0.33127-0.42591-0.29668-0.40591-0.25664-0.38769-0.20924-0.3622-0.16928-0.33128-0.12013-0.2894-0.0727-0.24026-0.0256-0.1802v-0.1092l4e-3 -0.0256 0.0175-0.0236 0.13651-0.14197 0.28394-0.26573 0.37858-0.34584 0.46595-0.42408 0.54605-0.49327 0.61703-0.56059 0.68255-0.62068 0.73716-0.67709 0.7863-0.73898 0.82999-0.7863 0.86821-0.83182 0.89735-0.87549 0.91735-0.91735 0.93374-0.95739 0.94282-0.98653 0.94103-1.0174 0.93919-1.0484 0.92644-1.0684 0.90644-1.0921 0.87913-1.1048 0.84637-1.1212 0.80814-1.1248 0.76084-1.1376 0.70621-1.143 0.64614-1.1394 0.57881-1.143 0.50236-1.1358 0.42229-1.1285 0.33125-1.123 0.23117-1.1121 0.12559-1.0939 9e-3 -1.0593-0.0218-0.43684-0.0273-0.41499-0.0236-0.4077-0.029-0.40226-0.0328-0.40226-0.0328-0.39678-0.0365-0.39315-0.04-0.40045-0.0437-0.39861-0.0454-0.40042-0.0546-0.40772-0.0564-0.41316-0.0638-0.415-0.0655-0.42591-0.071-0.43683-0.0764-0.44413-0.0837-0.45322-0.0911-0.4696-0.0946-0.48052-0.1055-0.50052-0.11095-0.51328-0.11838-0.5315-0.12385-0.54967-0.13476-0.57335-0.14023-0.59156-0.15289-0.61338-0.1601-0.64069-0.16752-0.66254-0.17649-0.68802-0.19111-0.72078-0.19658-0.73897 1.9767-0.23661 2.5846-0.15835 2.4117-7e-3 2.2497 0.13826 2.1041 0.27119 1.973 0.39315 1.8566 0.5042 1.7473 0.60246 1.66 0.69166 1.5799 0.77173 1.518 0.84456 1.4634 0.90279 1.4216 0.95011 1.3979 0.9938 1.3796 1.0193 1.376 1.0411 1.387 1.0484 1.4106 1.0375 1.447 1.0266 1.4889 0.99745 1.5508 0.95739 1.6236 0.91189 1.7037 0.84274 1.8001 0.77174 1.9057 0.68437 2.0277 0.58245 2.155 0.47325 2.2934 0.35309 2.4517 0.22025 2.6119 0.0764 2.7848-0.0782 2.1896-0.17844-4e-3 0.62976 0.0345 1.3433 0.0764 1.2796 0.11642 1.2177 0.15661 1.1522 0.19286 1.103 0.22571 1.0484 0.2621 0.99926 0.29487 0.95195 0.32398 0.90643 0.34946 0.86821 0.37496 0.82999 0.40043 0.79358 0.41499 0.76264 0.43683 0.7317 0.44957 0.70803 0.46598 0.68438 0.47322 0.6698 0.48781 0.6498 0.49326 0.63887 0.49325 0.62432 0.50055 0.62431 0.49871 0.62249 0.4969 0.62067 0.49144 0.62431 0.48962 0.63341 0.48052 0.64614 0.47325 0.66071 0.4623 0.6771 0.4514 0.69894 0.43684 0.72261 0.4241 0.76446 0.17474 0.30578 0.20574 0.31671 0.22026 0.30032 0.2348 0.30214 0.24753 0.29305 0.2621 0.28576 0.27302 0.28394 0.28394 0.27667 0.29122 0.27302 0.2967 0.27302 0.30578 0.26757 0.31125 0.26756 0.31306 0.26756 0.31851 0.26391 0.31854 0.26938 0.32398 0.26393 0.31671 0.26573 0.32035 0.26756 0.31671 0.2694 0.31124 0.27118 0.30941 0.27121 0.30216 0.27484 0.29487 0.27848 0.28756 0.27848 0.27486 0.28395 0.26756 0.2894 0.25481 0.2894 0.24026 0.29487 0.23117 0.30032 0.21296 0.30216 0.20029 0.30578 0.1839 0.31671 0.30579 0.57516 0.28759 0.5788 0.26937 0.577 0.25118 0.57697 0.23662 0.56972 0.21841 0.56789 0.20925 0.56242 0.19657 0.56059 0.18392 0.55151 0.17473 0.54423 0.16753 0.53512 0.16207 0.52785 0.15464 0.51691 0.15289 0.50782 0.14918 0.49144 0.14918 0.48052 0.14743 0.46959 0.15289 0.45506 0.15464 0.43683 0.16207 0.42408 0.16556 0.40772 0.17648 0.38588 0.19111 0.37131 0.20204 0.35493 0.22025 0.33308 0.24026 0.31306 0.26027 0.28576 0.28578 0.26393 0.31305 0.22934 0.3349 0.20204 0.36223 0.15835 0.37312 0.11642 0.39315 0.0911 0.37495 0.0692 0.37131 0.0583 0.36947 0.0365 0.36223 0.0256 0.35674 0.0109h0.35858l0.34947-0.0153 0.34947-0.0256 0.34947-0.0328 0.34035-0.0491 0.3422-0.0491 0.33672-0.0638 0.34038-0.0655 0.33854-0.0692 0.33671-0.0764 0.34038-0.0837 0.33855-0.0856 0.33671-0.0874 0.68802-0.1748 0.34585-0.0891 0.34947-0.0874 0.35491-0.0874 0.36039-0.0874 0.36402-0.0802 0.37131-0.0802 0.37314-0.071 0.3804-0.0727 0.39315-0.0655 0.39499-0.0564 0.43137-0.0529 0.21296-0.0365 0.19111-0.0175 0.2257-0.0109 0.2439 7e-3 0.27302 0.0153 0.29122 0.0273 0.30578 0.0345 0.32583 0.0437 0.33125 0.0474 0.3786 0.0583 0.6771 0.10921 0.36219 0.0564 0.16753 0.0218c0.17692 0.14416 0.37275 0.28286 0.57151 0.43138 0.98289 0.7317 2.1587 1.5992 1.6345 3.4492l-0.4969 1.7583 1.2832-1.3014c1.2328-1.2232 1.7902-2.9726 1.4907-4.6832l0.14198-0.0928 0.26027-0.2275 0.22386-0.27848 0.18195-0.30943 0.0109-0.029 0.44229 0.0764 0.50236 0.0819 0.48779 0.0655 0.46779 0.0529 0.45322 0.0382 0.43683 0.0273 0.42046 0.0131h0.40407l0.39315-9e-3 0.24207-0.0153c0.17255 0.0721 0.34875 0.13913 0.52785 0.21121 1.2734 0.50236 2.7848 1.1023 2.7521 3.2471l-0.029 1.8347 0.90827-1.5944c1.1074-1.9439 0.93446-3.9508 0.1874-5.495l0.19287-0.19833 0.18565-0.20924 0.17649-0.21667 0.16928-0.22023 0.11838-0.16556 0.7317-0.0491 0.99198-0.14371 0.88641-0.21121 0.78814-0.27119 0.69164-0.33309 0.58972-0.3968 0.49509-0.45686 0.39315-0.50782 0.0131-0.0328c0.79504 0.15726 1.5366 0.59518 2.0149 1.7091l0.72078 1.6818 0.17845-1.822c0.25554-2.6166-1.1864-4.5638-2.8485-5.5314-0.0699-0.0437-0.13913-0.0791-0.21121-0.11838l-0.34584-0.54786-0.415-0.53331-0.47323-0.51147-0.53512-0.48052-0.58064-0.44956-0.63342-0.415-0.68072-0.37131-0.72261-0.32398-0.76262-0.27302-0.79723-0.2147-0.82999-0.15661-0.85912-0.0874-0.88459-0.0153-0.9046 0.0655-0.91735 0.15115-0.93557 0.2348-0.82453 0.29302-0.24026 0.0219-0.32762 0.031-0.32763 0.0291-0.33309 0.0256-0.32944 0.0255-0.3349 0.0256-0.33854 0.0218-0.33493 0.0175-0.344 0.0218-0.68072 0.0306-0.34585 0.0109-0.34946 0.0109-0.34401 0.0109-0.34947 7e-3 -0.34947 4e-3 -0.35493 2e-3 -0.34946 4e-3h-0.70803l-0.70985-0.014-0.35677-7e-3 -0.35855-9e-3 -0.35676-0.0109-0.35856-0.0153-0.35676-0.0153-0.35856-0.0175-0.35857-0.0218-0.3622-0.0218-0.3149-0.0236-0.0345-0.0727-0.24209-0.44048-0.26573-0.4241-0.28759-0.41499-0.30943-0.39678-0.32763-0.38407-0.35493-0.37131-0.37312-0.35492-0.39496-0.34401-0.415-0.32763-0.43683-0.31306-0.45686-0.29667-0.47688-0.28578-0.49508-0.27302-0.51693-0.25846-0.13105-0.0563-4e-3 -0.14372-0.0365-0.58972-0.0437-0.597-0.0529-0.59338-0.0601-0.60065-0.071-0.59881-0.0782-0.60248-0.0856-0.60611-0.0891-0.60428-0.0946-0.60794-0.10004-0.60974-0.102-0.6061-0.10374-0.60611-0.10921-0.61157-0.10921-0.60611-0.1055-0.60976-0.10921-0.60429-0.10921-0.60792-0.10549-0.6043-0.1055-0.60427-0.10003-0.60065-0.0983-0.60065-0.0928-0.59338-0.0874-0.597-0.0819-0.58972-0.0782-0.58973-0.0673-0.58246-0.0564-0.57699-0.0546-0.57697-0.04-0.56972-0.0328-0.56605-0.0218-0.5588-0.0109-0.54786 4e-3 -0.53512 0.0218-0.52602 0.031-0.51511 0.0419-0.50964 0.0529-0.50236 0.0638-0.49325 0.0673-0.48781 0.0802-0.48415 0.0874-0.48052 0.0891-0.47505 0.0965-0.47506 0.10375-0.47144 0.10003-0.47322 0.10747-0.47324 0.10921-0.46779 0.1092-0.47506 0.10375-0.47868 0.1055-0.48052 0.10375-0.48052 0.0983-0.48963 0.0928-0.49325 0.0891-0.50055 0.0856-0.50236 0.071-0.51692 0.0655-0.52056 0.0546-0.53147 0.0491-0.53878 0.0328-0.55331 0.0153-0.5588 4e-3 -0.415 0.22204 4e-3 0.45868 0.0109 0.44413 0.0131 0.43864 0.0131 0.42773 0.0153 0.42045 0.0175 0.41137 0.0218 0.4077 0.0218 0.3968 0.0218 0.39315 0.0256 0.38951 0.0291 0.38406 0.0328 0.3804 0.031 0.37495 0.0345 0.37496 0.0328 0.37494 0.0419 0.37131 0.0437 0.36768 0.0382 0.37131 0.0509 0.37131 0.0454 0.37131 0.0529 0.37494 0.0529 0.37677 0.0546 0.3786 0.0601 0.38223 0.0618 0.38769 0.0655 0.39316 0.0673 0.39861 0.0727 0.40588 0.0692 0.40772 0.0782 0.34764 0.0655 0.70804 0.30395 0.7317 0.344 0.69529 0.35312 0.65709 0.3622 0.62065 0.37131 0.58973 0.37314 0.5588 0.38586 0.52966 0.38407 0.50236 0.39131 0.47687 0.39316 0.44957 0.39315 0.43321 0.38769 0.4077 0.39315 0.39134 0.38953 0.37131 0.38404 0.36039 0.38223 0.33854 0.37312 0.3349 0.36769 0.31854 0.36039 0.31487 0.34946 0.30579 0.33855 0.30032 0.33125 0.2967 0.3149 0.30033 0.30397 0.30032 0.28757 0.30032 0.27121 0.30941 0.25299 0.32217 0.2348 0.32763 0.21121 0.34038 0.18937 0.35855 0.15835 0.36769 0.12559 0.597 0.15835 0.58062 0.10921 0.48052 0.0454c0.81032 1.162 1.6454 2.5395 0.41136 4.3502l-1.032 1.518 1.6363-0.83182c2.5664-1.3105 3.5173-3.7917 3.4255-5.8973-0.0131-0.33791-0.0564-0.67405-0.12734-1.0047l0.30032-0.40407 0.30579-0.49325 0.22388-0.44957 0.62795 0.25299 0.60065 0.22934 0.57518 0.20029 0.55513 0.17473 0.52966 0.14744 0.50782 0.12187 0.48963 0.0965 0.46778 0.071 0.44776 0.0437 0.27848 0.0153c1.0047 0.80378 1.9119 1.8402 1.3724 3.7186l-0.50236 1.7583 1.2887-1.3014c0.36836-0.36919 0.69103-0.7806 0.96103-1.2268l17.601 18.602 0.6771 0.71713 0.13105-0.97923 0.93557-7.0203 0.029-0.22204-0.15464-0.16207-16.665-17.473 0.49325 0.12385 1.1139 0.13476 1.0266-0.0218 0.9392-0.17473 0.85182-0.32217 0.74262-0.45868 0.62977-0.57697 0.50965-0.67709 0.35675-0.68985c1.1511 0.11139 2.265 0.57771 2.9486 2.1787l0.72078 1.6818 0.17845-1.8201c0.30578-3.0994-1.4012-5.4058-3.3691-6.5525l-0.16928-0.0965-0.2439-0.91552-0.35675-0.95558-0.45867-0.94465-0.55334-0.92282-0.66071-0.88642-0.75901-0.83726-0.85728-0.78266-0.95921-0.71169-1.0593-0.62795-1.1522-0.53512-1.2541-0.42954-1.3451-0.31308-1.4379-0.18391-1.5326-0.0437-1.6181 0.102-1.7109 0.2621-1.5544 0.37314-0.56605-0.21842-0.76992-0.29123-0.76447-0.29487-0.7681-0.29121-0.76811-0.29487-0.76993-0.29486-0.76446-0.29486-0.76808-0.29306-0.76993-0.29667-0.14917-0.0546-11.487-12.048 0.5242-0.64433 1.1267-1.4434 1.0812-1.4525 1.0302-1.4598 0.98288-1.4616 0.9319-1.4689 0.87367-1.4798 0.82452-1.4852 0.76993-1.4907 0.70623-1.5016 0.65342-1.5071 0.59156-1.518 0.52966-1.5235 0.46414-1.5325 0.40224-1.5417 0.33492-1.5508 0.2621-1.5562 0.19657-1.5672 0.12385-1.5762 0.0528-1.5835-0.0218-1.5944-0.0983-1.5999-0.17844-1.6072-0.25846-1.6181-0.3349-1.6254-0.41499-1.6308-0.50236-1.6454-0.46232-1.3105 0.53512-0.85364 0.67345-1.1667 0.62249-1.1722 0.57153-1.1886 0.51509-1.1995 0.46597-1.2068 0.415-1.2213 0.36039-1.2322 0.31124-1.2413 0.25664-1.2523 0.20204-1.2614 0.15289-1.2704 0.0983-1.285 0.0491-1.2923-4e-3 -1.305-0.0563-1.3105-0.10921-1.3233-0.16381-1.3324-0.21296-1.3414-0.2621-1.3487-0.32033-1.3615-0.36768-1.3687-0.42227-1.376-0.47141-1.3888-0.5242-1.396-0.577-1.407-0.6243-1.4161-0.68255-1.4234-0.72624-1.4343-0.77722-1.4416-0.83545-1.4561-0.68801-1.1394 0.17473-0.39315 0.324-0.74626 0.30579-0.75354 0.29667-0.76446 0.28576-0.76992 0.27486-0.77902 0.26026-0.78449 0.24937-0.78994 0.23115-0.79541 0.22025-0.79904 0.2075-0.8045 0.19112-0.80815 0.17473-0.80996 0.16556-0.81543 0.14372-0.81179 0.13105-0.81542 0.10921-0.81361 0.0983-0.81724 0.0782-0.81361 0.0638-0.81178 0.04-0.80997 0.0236-0.80996 7e-3 -0.80633-0.0175-0.79904-0.0328-0.79723-0.0564-0.79176-0.0747-0.7863-0.0983-0.77903-0.12013-0.77174-0.13651-0.76628-0.16382-0.75536-0.34582-1.3833-0.8591 0.16016-0.22571 0.0491-0.24026 0.0601-0.25118 0.0655-0.2621 0.0765-0.26938 0.0819-0.27667 0.0946-0.2894 0.0965-0.29486 0.10921-0.29487 0.11832-0.30578 0.12013-0.3076 0.13105-0.30579 0.13651-0.31489 0.14197-0.31124 0.15108-0.31306 0.15471-0.30943 0.16562-0.31125 0.16746-0.30395 0.17474-0.30032 0.182-0.2967 0.18931-0.2894 0.19111-0.28395 0.19658-0.27118 0.20568-0.26394 0.20931-0.25299 0.21477-0.24207 0.22206-0.22934 0.22752-0.21842 0.23298-0.0819 0.0983-0.36039-0.29123-0.98288-0.73898-1.0193-0.70804-1.0575-0.67527-1.0957-0.64433-1.1358-0.61157-1.1758-0.58063-1.2158-0.54604-1.2559-0.5151-0.93919-0.34765s-5.2506-3.2754-16.147-2.8431c-10.285 0.40805-15.683 2.5688-18.536 4.6687l-0.93373 0.78812-1.154 0.74444-4.6141-5.4149-0.37131-0.33854-0.38953-0.31671-0.40953-0.29122-0.42591-0.26574-0.44776-0.24026-0.46776-0.21842-0.49144-0.18747-0.50966-0.16746-0.53512-0.13651-0.56243-0.11648-0.58243-0.0874-0.61157-0.0601-0.6407-0.04-1.2177-0.0255-0.2894 1.1794-0.1529 0.6407-0.13651 0.64979-0.13826 0.65525-0.13105 0.65889-0.12384 0.66618-0.11838 0.67163-0.10746 0.6771-0.1055 0.67709-0.0946 0.67892-0.0874 0.68255-0.0819 0.68437-0.071 0.6862-0.0638 0.68619-0.0546 0.68438-0.0491 0.68619-0.0382 0.68256-0.029 0.68074-0.0218 0.67709-0.0109 0.67709v0.66982l9e-3 0.66617 0.0197 0.66253 0.0273 0.65526 0.0382 0.64797 0.0529 0.64251 0.0563 0.63341 0.0747 0.62977 0.0802 0.61703 0.0946 0.61157 0.10549 0.59701 0.0437 0.19658-0.94649 0.89551-1.2068 1.1776-1.1704 1.194-1.1394 1.2068-1.103 1.2268-1.0702 1.2377-1.0356 1.2559-0.9938 1.2759-0.95923 1.2905-0.91735 1.3105-0.87367 1.3269-0.83363 1.3469-0.79358 1.3651-0.72078 1.3451-33.593-35.225c0.4281-0.79286 0.70477-1.5835 0.84455-2.3589 0.31671-1.7386-0.0411-3.4004-0.85366-4.8835-0.79941-1.4568-2.0524-2.7397-3.542-3.7422-2.5686-1.7277-5.8736-2.6301-8.8441-2.1714l-0.0874 0.0127-11.423-12.151 8.1979-2.8467 0.69531-0.24026-0.50966-0.5333-4.7451-4.898-0.21121-0.21841-0.28394 0.10193-8.3945 3.0506-6.9129-7.357zm138.32 154.43 2.0659 2.1842v2e-3l-0.17474-0.0655-0.76446-0.29486-0.7663-0.29486-1.3196-0.50418 0.61157-0.64616z" fill="#502d16" stroke="#000" stroke-linecap="round" stroke-linejoin="round" stroke-width="1.088"/><g><path d="m341.79 511.89c1.186-0.0524 2.538-0.11358 3.5973 0.8562a4.8358 4.8358 0 0 0-2.2781-3.0054 4.1587 4.1587 0 0 0-1.3913-0.51983 2.2388 2.2388 0 0 0-1.1401 0.0655c-0.46741 0.17474-0.7863 0.60502-0.79067 1.3324-9e-3 1.3607 0.8977 1.3192 2.0029 1.2712zm-8.1666 5.55c1.1489 0.45649 2.4616 0.97414 3.0426 2.3589a5.0018 5.0018 0 0 0-0.87367-3.8507 4.3421 4.3421 0 0 0-1.0964-1.0812 2.3152 2.3152 0 0 0-1.1096-0.41936c-0.5242-0.0306-1.0134 0.24026-1.3258 0.92391-0.58973 1.2974 0.2905 1.6469 1.3629 2.0684zm-9.3002 1.293c0.87803 0.65089 1.8784 1.3891 2.1121 2.6691 0.52421-1.1664 0.4565-2.4201 0.0743-3.4248-0.17474-0.46523-0.41937-0.87367-0.69894-1.1926a2.0291 2.0291 0 0 0-0.85838-0.61157c-0.43684-0.15071-0.91299-0.0262-1.3324 0.48707-0.79286 0.96759-0.11794 1.4634 0.70331 2.075zm-203.5-4.2351c1.2188 0.89551 2.621 1.9243 2.7521 3.8267 0.91081-1.6709 0.85183-3.5209 0.29487-4.9777a5.2508 5.2508 0 0 0-0.9392-1.5857 2.8875 2.8875 0 0 0-1.1729-0.83435c-0.62249-0.20531-1.293-0.0328-1.8784 0.68583-1.1183 1.3695-0.18784 2.0531 0.94356 2.8853zm7.3126-5.9191c1.1707 0.19658 2.5031 0.41936 3.3374 1.5835a4.827 4.827 0 0 0-1.5944-3.4095 4.2329 4.2329 0 0 0-1.2537-0.79941 2.2431 2.2431 0 0 0-1.127-0.17473c-0.49799 0.0743-0.89988 0.4281-1.0571 1.1358-0.29049 1.3302 0.60502 1.483 1.6949 1.6643zm82.088 11.268c1.2624 0.63123 2.7062 1.3542 3.1583 3.0469a5.6046 5.6046 0 0 0-0.54386-4.5649 4.8663 4.8663 0 0 0-1.1205-1.3171 2.5882 2.5882 0 0 0-1.21-0.58099c-0.59846-0.0896-1.1838 0.17255-1.6076 0.91954-0.80596 1.4284 0.15289 1.909 1.3236 2.4965zm9.9227-1.9461c1.1904 0.59191 2.5577 1.2778 3.0142 2.8547a5.3556 5.3556 0 0 0-0.54167-4.2744 4.6042 4.6042 0 0 0-1.0659-1.2515 2.5074 2.5074 0 0 0-1.1467-0.5526c-0.56352-0.0852-1.1183 0.16163-1.5158 0.86712-0.75791 1.3476 0.14852 1.7998 1.2559 2.3567zm7.6402-3.51c1.1707 0.19658 2.5031 0.41936 3.3374 1.5835a4.8379 4.8379 0 0 0-1.5988-3.4073 4.0604 4.0604 0 0 0-1.2494-0.80378 2.2519 2.2519 0 0 0-1.127-0.17037c-0.498 0.0721-0.89988 0.42373-1.0528 1.1292-0.29486 1.3324 0.59847 1.4852 1.6906 1.6687zm114.88-36.875c0.77319 1.0986 1.6556 2.3567 1.3061 3.9752a5.3971 5.3971 0 0 0 1.5639-4.056 4.7506 4.7506 0 0 0-0.34728-1.6228 2.4965 2.4965 0 0 0-0.75573-1.0353c-0.45867-0.34947-1.0702-0.38879-1.7626 0.0502-1.317 0.83217-0.72514 1.6709-4e-3 2.6887zm9.582-2.3065c1.0812 0.8016 2.3109 1.719 2.4834 3.368 0.75573-1.4634 0.70112-3.0688 0.22497-4.3421a4.6676 4.6676 0 0 0-0.83654-1.4328 2.5118 2.5118 0 0 0-1.0418-0.75135c-0.54604-0.18347-1.138-0.0349-1.66 0.59846-0.99162 1.2013-0.16818 1.8129 0.82998 2.5598zm10.729-6.0108c1.4852-0.0655 3.1911-0.14197 4.4666 1.2231a5.847 5.847 0 0 0-2.8394-3.9752 5.0389 5.0389 0 0 0-1.7037-0.63778 2.7368 2.7368 0 0 0-1.4132 0.0852c-0.60065 0.22278-1.0069 0.76664-1.0113 1.6818-0.0109 1.7342 1.1205 1.6818 2.5009 1.6228z" fill="#fff"/><path d="m172.48 326.63c0.0546 0.15944 0.10921 0.32107 0.1529 0.48707 0.39315 1.3804 0.32981 2.7586-0.29268 4.1281 6.9151 0.2621 12.183 2.8154 17.342 5.3141 7.5026 3.6388 14.778 7.1641 26.612 3.0841l0.14852-0.10048c0.96541-0.64651 1.6862-1.3651 2.1121-2.1732a3.7786 3.7786 0 0 0 0.43684-1.6971c-0.49581 0.27303-1.0637 0.50236-1.7037 0.67928a16.047 16.047 0 0 1-3.3462 0.52421c-6.3057 0.38659-15.667-1.6119-21.746-4.506a124.93 124.93 0 0 1-0.95012-0.45431c-6.3013-3.0098-12.203-5.8274-18.769-5.2857z" fill="#fff"/><path d="m171.83 332.18c-0.2621 0.40625-0.57662 0.81469-0.94356 1.221 1.0528 0.50454 1.8609 1.1707 2.4244 2.0007 0.61157 0.89115 0.92828 1.9592 0.9523 3.1976 5.0738 0.72951 9.9642 2.6756 14.564 4.506 4.0123 1.5944 7.8041 3.1037 11.233 3.6039l0.0131 4e-3c2.597 0.38005 5.1066 0.54168 7.3519 0.40844 2.4004-0.13979 4.4819-0.6203 6.0174-1.5377 1.4852-0.88459 2.4681-2.1951 2.7346-4.0232 0.0437-0.28394 0.0655-0.58754 0.0721-0.90425-11.991 4.0189-19.365 0.44557-26.972-3.2435-5.1874-2.5162-10.486-5.0826-17.447-5.2333zm-29.766 2.4943c-0.72951 2.1449-2.0968 4.1368-4.2373 5.9431 8.4156-1.0244 15.606 1.055 21.35 2.7128 1.9701 0.57007 3.7699 1.0921 5.3993 1.4175 4.4055 0.87586 7.3607 0.19658 8.6122-5.384-6.0021 1.1729-10.237-0.39752-14.758-2.075-4.4841-1.6665-9.2565-3.4379-16.366-2.6145z" fill="#da121a"/><path d="m167.81 321.96v4.9974c0.88022 0.10266 1.5355 0.0546 2.0007-0.0983 0.3582-0.12231 0.58972-0.30578 0.71204-0.5242a1.2231 1.2231 0 0 0 0.10702-0.80814 2.7521 2.7521 0 0 0-0.27084-0.80815c-0.67054-0.91517-1.5311-1.8347-2.5489-2.7586zm24.373 3.5842c-7.3126-3.1365-14.839-6.3581-23.886-4.4098 1.4743 1.3236 2.9246 2.7958 3.7961 4.589 6.9413-0.67709 13.04 2.2322 19.555 5.3447l0.95012 0.45431c5.9519 2.8329 15.117 4.7921 21.287 4.412a15.16 15.16 0 0 0 3.1518-0.48489c2.621-0.74044 5.3512-4.1718 5.8186-6.7491 0.27302-1.5114-0.0437-2.9661-0.75791-4.2657-0.72515-1.3258-1.8697-2.4965-3.2391-3.416-2.0968-1.411-4.7113-2.2279-7.1641-2.1208 2.8875 2.7521 4.506 4.9362 5.1088 6.6312 0.42809 1.1926 0.36912 2.1689-0.0961 2.9465-0.45431 0.76227-1.2865 1.2908-2.4201 1.6163-2.1536 0.61375-5.4866 0.49362-9.3854-0.19658-4.3531-0.76883-8.5008-2.5468-12.718-4.3509z" fill="#078930"/><path d="m169.76 333.22c1.9985-1.9636 2.5227-3.9097 1.9701-5.8405a6.2336 6.2336 0 0 0-0.28175-0.78849 1.2799 1.2799 0 0 1-0.10048 0.2075c-0.23152 0.42373-0.63341 0.76009-1.2362 0.95885-0.88241 0.29268-1.992 0.27957-2.8394 0.15071-5.1459-0.79067-8.313-2.075-11.214-3.2501-4.0342-1.6338-7.5463-3.0535-15.355-2.5686 1.0091 2.3611 1.6927 4.6523 1.9286 6.843 7.033-1.2166 11.03 0.26211 15.237 1.8172 3.2981 1.2188 6.7229 2.4856 11.891 2.4725z" fill="#078930"/></g><g fill="#fcdd09"><path d="m338.49 453.78-116.06-121.72c-0.62031 0.91735-1.4503 1.826-2.5227 2.7237l109.17 115.39 0.0983 0.0393 0.76446 0.29268 0.76883 0.29705 1.5333 0.58536 0.76883 0.29486 0.76665 0.29486 0.76883 0.29268 0.76665 0.29487 2.2999 0.88022 0.76883 0.29486 0.10921 0.0415z"/><path d="m372.99 496.59 0.77756-5.8165-17.002-17.832-0.0218 0.0983-0.0874 0.3451-0.10265 0.33417-0.12669 0.32326-0.14197 0.30579-0.16818 0.29268-0.0393 0.059c0.2752 1.1642 0.24899 2.49-0.249 3.7502z"/><path d="m215.38 324.7-17.539-18.655-0.49799-0.52857 0.68801-0.24026 8.1907-2.8438-4.0232-4.1499-8.3938 3.0535-0.29049 0.10265-0.21187-0.22497-6.9238-7.3672-3.9162 1.2646 6.7338 7.2056 0.48489 0.51547-0.67054 0.24463-8.4397 3.0688 3.8573 3.8551 8.7367-3.036 0.28394-0.0961 0.21187 0.22279 20.584 22.032c0.78849-0.25774 1.3586-0.63342 1.6556-1.1292 0.3167-0.52857 0.34073-1.2384 0.0153-2.147a7.4306 7.4306 0 0 0-0.53513-1.1467z"/></g><path d="m173.31 338.38c-0.0524-0.9523-0.31234-1.7736-0.77538-2.455-0.51328-0.75354-1.2908-1.3586-2.3262-1.8041v0.0328c-5.5849 0.0917-9.1954-1.2428-12.668-2.5249-4.0975-1.5158-8.0028-2.9596-14.841-1.7604 0.0437 0.89551 7e-3 1.7757-0.12013 2.6363a12.006 12.006 0 0 1-0.23152 1.1904c7.1095-0.74262 11.904 1.0375 16.408 2.7084 4.4666 1.66 8.6472 3.2129 14.558 1.9767z" fill="#fff"/><g transform="matrix(2.1842 0 0 2.1842 -244.8 184.76)"><path d="m254.46 50.625a0.5001 0.5001 0 0 0-0.44167 0.19c-0.99838 1.2844-2.5557 1.731-4.2358 2.195-0.99404 0.27451-2.0192 0.552-2.9317 1.0783-0.91248 0.52633-1.7044 1.3289-2.135 2.5525a0.5001 0.5001 0 0 0 0.11083 0.5l-8.3e-4 8.34e-4c-0.0209 0.04545-0.0379 0.09201-0.0525 0.14083a0.5001 0.5001 0 0 0-0.0125-0.01667l-0.92417-1.0725a0.5001 0.5001 0 0 0-0.59583-0.1225 0.5001 0.5001 0 0 0-0.275 0.54083l0.205 1.0917a0.5001 0.5001 0 0 0 0.105 0.22083 0.5001 0.5001 0 0 0-0.0233 0.19917l0.10166 0.59-0.0283 0.0042a0.5001 0.5001 0 0 0-0.0933 0.02583l-0.0583 0.02083a0.5001 0.5001 0 0 0-0.0942 0.045l-0.0525 0.03333a0.5001 0.5001 0 0 0-0.0842 0.06667l-0.045 0.0425a0.5001 0.5001 0 0 0-0.0583 0.07083l-0.0375 0.05083a0.5001 0.5001 0 0 0-0.0483 0.08583l-0.0258 0.05833a0.5001 0.5001 0 0 0-0.025 0.0725l-0.0158 0.05833a0.5001 0.5001 0 0 0-0.015 0.11333l-2e-3 0.06667a0.5001 0.5001 0 0 0 6e-3 0.08917l0.01 0.06667a0.5001 0.5001 0 0 0 0.0292 0.1075l0.0242 0.05833a0.5001 0.5001 0 0 0 0.0408 0.08417l0.0333 0.05083a0.5001 0.5001 0 0 0 0.0567 0.07417l0.0425 0.045a0.5001 0.5001 0 0 0 0.13083 0.02917l-0.0625 0.03167 0.0492 0.035a0.5001 0.5001 0 0 0 0.0858 0.05083l0.0567 0.0275a0.5001 0.5001 0 0 0 0.0917 0.03083l0.0608 0.01583a0.5001 0.5001 0 0 0 0.11333 0.01333l0.0742 0.0025a0.5001 0.5001 0 0 0 0.0408-0.0025l0.0767-0.0058 0.34916 2.0458-0.0225 0.0092a0.5001 0.5001 0 0 0-0.08 0.04083l-0.0508 0.03333a0.5001 0.5001 0 0 0-0.09 0.0725l-0.045 0.045a0.5001 0.5001 0 0 0-0.0567 0.06833l-0.0333 0.05083a0.5001 0.5001 0 0 0-0.045 0.08l-0.0233 0.05667a0.5001 0.5001 0 0 0-0.0292 0.0875l-0.0158 0.05917a0.5001 0.5001 0 0 0-0.0117 0.10667l-2e-3 0.06667a0.5001 0.5001 0 0 0 0.01 0.1l0.0117 0.0625a0.5001 0.5001 0 0 0 0.0292 0.09917l0.0233 0.05833a0.5001 0.5001 0 0 0 0.0433 0.08083l0.0333 0.05083a0.5001 0.5001 0 0 0 0.0625 0.0775l0.0425 0.04333a0.5001 0.5001 0 0 0 0.0742 0.06417l0.0508 0.035a0.5001 0.5001 0 0 0 0.0883 0.0475l0.0583 0.025a0.5001 0.5001 0 0 0 0.08 0.02583l0.0583 0.01333a0.5001 0.5001 0 0 0 0.1075 0.01333l0.30666 1.8067-0.0392 0.0275a0.5001 0.5001 0 0 0-0.07 0.05833l-0.0433 0.045a0.5001 0.5001 0 0 0-0.0583 0.07l-0.035 0.05333a0.5001 0.5001 0 0 0-0.0492 0.09167l-0.0208 0.05667a0.5001 0.5001 0 0 0-0.02804 0.089111l-0.0117 0.06083a0.5001 0.5001 0 0 0-0.01 0.0975v0.06667a0.5001 0.5001 0 0 0 0.0117 0.1075l0.0133 0.0625a0.5001 0.5001 0 0 0 0.0292 0.09l0.0258 0.05833a0.5001 0.5001 0 0 0 0.0425 0.08l0.0333 0.05083a0.5001 0.5001 0 0 0 0.08 0.09167l0.045 0.04083a0.5001 0.5001 0 0 0 0.0567 0.045l0.0492 0.03333a0.5001 0.5001 0 0 0 0.0917 0.04917l0.0567 0.025a0.5001 0.5001 0 0 0 0.0817 0.02333l0.0333 0.19583a0.5001 0.5001 0 0 0 0.54084 0.41583l0.39833-0.03917 1-0.08 0.9725-0.065 0.9475-0.04417 0.92167-0.03 0.89666-0.01167 0.87084 0.0083 0.84583 0.025 0.8225 0.03917 0.79667 0.05833 0.775 0.0725 0.51 0.0625c1.1183 0.1749 2.2339 0.35864 3.3325 0.6325l0.3275 0.08667 0.61916 0.185 0.36584 0.12167a0.5001 0.5001 0 0 0 0.56416-0.20917l0.11 0.03167a0.5001 0.5001 0 0 0 0.0408 0.0092l0.0742 0.01583a0.5001 0.5001 0 0 0 0.1 0.01h0.0625a0.5001 0.5001 0 0 0 0.105-0.01167l0.06077-0.011647a0.5001 0.5001 0 0 0 0.08-0.02583l0.0583-0.02333a0.5001 0.5001 0 0 0 0.08-0.04083l0.0533-0.03333a0.5001 0.5001 0 0 0 0.0833-0.06833l0.045-0.045a0.5001 0.5001 0 0 0 0.0608-0.07417l0.035-0.05083a0.5001 0.5001 0 0 0 0.0508-0.09333l0.0233-0.06083a0.5001 0.5001 0 0 0 0.0258-0.08833l0.0133-0.06417a0.5001 0.5001 0 0 0 0.01-0.0975v-0.06419a0.5001 0.5001 0 0 0-0.0117-0.10583l-0.0133-0.05833a0.5001 0.5001 0 0 0-0.0233-0.0825l-0.0242-0.05667a0.5001 0.5001 0 0 0-0.0483-0.08917l-0.0333-0.05333a0.5001 0.5001 0 0 0-0.0625-0.07583l-0.0433-0.04333a0.5001 0.5001 0 0 0-0.08-0.06417l-0.0525-0.035a0.5001 0.5001 0 0 0-0.07567-0.040837l-0.0483-0.02083 0.66666-1.5992 0.11834 0.03167a0.5001 0.5001 0 0 0 0.0408 0.01l0.0742 0.01333a0.5001 0.5001 0 0 0 0.1075 0.0075l0.0625-0.0017a0.5001 0.5001 0 0 0 0.1-0.01333l0.0583-0.01417a0.5001 0.5001 0 0 0 0.0858-0.0275l0.0567-0.025a0.5001 0.5001 0 0 0 0.0825-0.04667l0.05-0.035a0.5001 0.5001 0 0 0 0.075-0.0625l0.0425-0.04333a0.5001 0.5001 0 0 0 0.07-0.09l0.0333-0.0525a0.5001 0.5001 0 0 0 0.0375-0.07583l0.0233-0.05917a0.5001 0.5001 0 0 0 0.0292-0.09917l0.01-0.065a0.5001 0.5001 0 0 0 8e-3 -0.10167l-2e-3 -0.0625a0.5001 0.5001 0 0 0-0.015-0.105l-0.0142-0.06083a0.5001 0.5001 0 0 0-0.0233-0.07l-0.02347-0.056636a0.5001 0.5001 0 0 0-0.0567-0.10167l-0.0367-0.05083a0.5001 0.5001 0 0 0-0.0608-0.06833l-0.0433-0.04333a0.5001 0.5001 0 0 0-0.07-0.05417l-0.0525-0.035a0.5001 0.5001 0 0 0-0.0942-0.04917l-0.0392-0.01583 0.78583-1.8867 0.175 0.045a0.5001 0.5001 0 0 0 0.0433 0.01l0.0758 0.01167a0.5001 0.5001 0 0 0 0.10417 0.0058l0.06-0.0042a0.5001 0.5001 0 0 0 0.1-0.01333l0.0583-0.01583a0.5001 0.5001 0 0 0 0.0942-0.035l0.0567-0.025a0.5001 0.5001 0 0 0 0.07-0.04167l0.0483-0.035a0.5001 0.5001 0 0 0 0.0842-0.07417l0.0408-0.045a0.5001 0.5001 0 0 0 0.0567-0.07583l0.0333-0.05333a0.5001 0.5001 0 0 0 0.0408-0.08333l0.0233-0.0625a0.5001 0.5001 0 0 0 0.0258-0.1l0.01-0.06417a0.5001 0.5001 0 0 0 6e-3 -0.09167l-2e-3 -0.0625a0.5001 0.5001 0 0 0-0.02-0.12167l-0.015-0.05833a0.5001 0.5001 0 0 0-0.0233-0.06417l-0.0258-0.05917a0.5001 0.5001 0 0 0-0.06633-0.10911l-0.0367-0.04667a0.5001 0.5001 0 0 0-0.0467-0.05083l-0.045-0.045a0.5001 0.5001 0 0 0-0.0783-0.06083l-0.0508-0.03083a0.5001 0.5001 0 0 0-0.0933-0.04667l-0.0642-0.025 0.22167-0.53417a0.5001 0.5001 0 0 0 0.035-0.23 0.5001 0.5001 0 0 0 0.12916-0.18583l0.4-1.0317a0.5001 0.5001 0 0 0-0.36833-0.67167 0.5001 0.5001 0 0 0-0.41083 0.1l-0.94584 0.75583c-8e-3 -0.03125-0.0179-0.06202-0.0292-0.0925a0.5001 0.5001 0 0 0 0.15166-0.44083c-0.20928-1.2596-0.84029-2.1795-1.635-2.8558-0.79471-0.67633-1.7425-1.1342-2.66-1.5842a0.5001 0.5001 0 0 0 0-8.33e-4 0.5001 0.5001 0 0 0 0-8.33e-4c-1.5658-0.76695-3.0156-1.4932-3.7583-2.9392a0.5001 0.5001 0 0 0-0.39833-0.27z" color="#000000" style="-inkscape-stroke:none"/><g transform="translate(27.033 -15.084)" fill="#fcdd09"><path d="m218.7 75.118c0.329 0.031 0.613 0.193 0.809 0.428 0.195 0.236 0.3 0.545 0.27 0.872v2e-3c-0.03 0.326-0.192 0.612-0.429 0.807-0.234 0.195-0.543 0.3-0.87 0.27h-2e-3a1.193 1.193 0 0 1-0.808-0.428 1.192 1.192 0 0 1-0.27-0.87v-3e-3a1.196 1.196 0 0 1 1.299-1.078z"/><path d="m221.27 75.086a1.195 1.195 0 0 1 1.078 1.3v2e-3a1.196 1.196 0 0 1-1.3 1.078h-1e-3a1.194 1.194 0 0 1-1.077-1.3v-2e-3a1.19 1.19 0 0 1 0.428-0.807c0.234-0.195 0.544-0.301 0.87-0.27h2e-3z"/><path d="m223.82 75.121a1.194 1.194 0 0 1 1.079 1.3l-1e-3 2e-3c-0.031 0.327-0.193 0.612-0.429 0.807a1.185 1.185 0 0 1-0.87 0.27h-2e-3a1.197 1.197 0 0 1-1.08-1.3h2e-3c0.032-0.328 0.192-0.613 0.428-0.808 0.235-0.194 0.545-0.3 0.871-0.27h2e-3z"/><path d="m226.41 75.296c0.327 0.03 0.612 0.192 0.808 0.428 0.194 0.235 0.3 0.544 0.27 0.87v3e-3a1.19 1.19 0 0 1-0.429 0.807c-0.235 0.195-0.544 0.3-0.87 0.27h-2e-3a1.195 1.195 0 0 1-1.079-1.298v-2e-3a1.197 1.197 0 0 1 1.3-1.079z"/><path d="m228.96 75.579c0.328 0.031 0.613 0.193 0.808 0.43 0.195 0.234 0.3 0.543 0.271 0.87v2e-3c-0.03 0.326-0.193 0.612-0.43 0.807-0.233 0.195-0.542 0.3-0.869 0.27h-2e-3a1.19 1.19 0 0 1-0.808-0.429 1.189 1.189 0 0 1-0.27-0.87v-2e-3a1.196 1.196 0 0 1 1.299-1.078z"/><path d="m231.51 75.976c0.329 0.03 0.614 0.192 0.808 0.428 0.195 0.235 0.301 0.544 0.271 0.87v2e-3a1.19 1.19 0 0 1-0.429 0.808 1.19 1.19 0 0 1-0.87 0.27h-2e-3a1.193 1.193 0 0 1-0.807-0.428 1.187 1.187 0 0 1-0.271-0.87v-3e-3a1.194 1.194 0 0 1 1.298-1.077z"/><path d="m234.04 76.572a1.195 1.195 0 0 1 1.079 1.3v2e-3a1.193 1.193 0 0 1-0.43 0.808 1.19 1.19 0 0 1-0.87 0.27h-2e-3a1.195 1.195 0 0 1-1.078-1.299v-1e-3a1.196 1.196 0 0 1 1.3-1.08z"/><path d="m219.1 78.762a0.98 0.98 0 0 1 0.883 1.065v2e-3a0.976 0.976 0 0 1-1.064 0.883h-1e-3a0.977 0.977 0 0 1-0.663-0.35 0.978 0.978 0 0 1 0.843-1.6z"/><path d="m221.39 78.706a0.978 0.978 0 0 1 0.884 1.065v2e-3a0.979 0.979 0 0 1-1.065 0.883h-2e-3a0.98 0.98 0 0 1-0.883-1.065v-2e-3a0.982 0.982 0 0 1 1.065-0.883z"/><path d="m223.67 78.738a0.978 0.978 0 0 1 0.883 1.064v2e-3a0.969 0.969 0 0 1-0.351 0.662 0.977 0.977 0 0 1-0.713 0.222h-1e-3a0.977 0.977 0 0 1-0.886-1.065l1e-3 -1e-3a0.98 0.98 0 0 1 1.065-0.884z"/><path d="m225.95 78.861a0.973 0.973 0 0 1 0.663 0.35c0.16 0.193 0.246 0.446 0.221 0.713v3e-3a0.98 0.98 0 0 1-1.065 0.883h-2e-3a0.979 0.979 0 0 1-0.883-1.064v-2e-3a0.98 0.98 0 0 1 1.065-0.883z"/><path d="m228.22 79.094a0.98 0.98 0 0 1 0.883 1.065v2e-3a0.976 0.976 0 0 1-1.064 0.883h-2e-3a0.977 0.977 0 0 1-0.883-1.065v-2e-3a0.98 0.98 0 0 1 1.065-0.883z"/><path d="m230.49 79.488a0.979 0.979 0 0 1 0.885 1.064v2e-3a0.986 0.986 0 0 1-1.065 0.884h-2e-3a0.978 0.978 0 0 1-0.883-1.065v-2e-3a0.978 0.978 0 0 1 1.064-0.884z"/><path d="m232.7 79.988a0.984 0.984 0 0 1 0.885 1.065v2e-3a0.982 0.982 0 0 1-1.065 0.884h-3e-3a0.98 0.98 0 0 1-0.883-1.065v-2e-3a0.982 0.982 0 0 1 1.065-0.884z"/><path d="m218.23 82.035 0.066 0.395 0.402-0.04 1.008-0.081 0.982-0.065 0.956-0.045 0.93-0.03 0.906-0.01 0.881 8e-3 0.857 0.024 0.832 0.04 0.809 0.059 0.787 0.075 0.763 0.092 0.74 0.108 0.72 0.125 0.697 0.141 0.677 0.158 0.655 0.173 0.635 0.189 0.372 0.124 0.057-0.136a38.583 38.583 0 0 0-7.116-1.35c-2.521-0.236-5.06-0.22-7.616 0.046z"/><path d="m217.67 78.721 0.384 2.254a39.693 39.693 0 0 1 7.897-0.058c2.495 0.232 4.972 0.707 7.432 1.426l0.881-2.113a48.914 48.914 0 0 0-11.982-1.657 47.963 47.963 0 0 0-4.612 0.148z"/><path d="m217.05 75.104 0.435 2.555a49.312 49.312 0 0 1 2.277-0.134 50.406 50.406 0 0 1 2.533-0.032 50.01 50.01 0 0 1 12.381 1.738l1-2.4a62.312 62.312 0 0 0-13.573-1.812 62.683 62.683 0 0 0-5.053 0.085z"/><path d="m236.45 74.964-0.85-0.188-0.038 0.028a1.54 1.54 0 0 1-0.656 0.274 1.856 1.856 0 0 1-0.727-0.034 1.834 1.834 0 0 1-0.702-0.19 1.532 1.532 0 0 1-0.543-0.459l-0.048-0.066 6e-3 -0.08-0.245-0.042-0.058 0.046a1.54 1.54 0 0 1-0.644 0.302 1.849 1.849 0 0 1-0.728-2e-3 1.852 1.852 0 0 1-0.71-0.158 1.53 1.53 0 0 1-0.562-0.436l-0.052-0.063 2e-3 -0.08v-0.03c-0.076-0.01-0.153-0.02-0.23-0.032l-0.01 0.048-0.062 0.052c-0.192 0.156-0.404 0.26-0.638 0.314-0.227 0.05-0.47 0.054-0.729 0.01a1.843 1.843 0 0 1-0.712-0.146 1.528 1.528 0 0 1-0.57-0.426l-0.052-0.061v-0.103l-0.242-0.023c0 7e-3 -3e-3 0.015-4e-3 0.023l-0.014 0.078-0.063 0.051c-0.191 0.156-0.404 0.26-0.638 0.314-0.228 0.051-0.47 0.055-0.728 0.01a1.848 1.848 0 0 1-0.713-0.145 1.536 1.536 0 0 1-0.57-0.426l-0.052-0.063 1e-3 -0.046c-0.078-5e-3 -0.156-0.01-0.233-0.013l-4e-3 0.03-0.013 0.078-0.062 0.053c-0.188 0.159-0.4 0.267-0.633 0.324a1.846 1.846 0 0 1-0.727 0.023c-0.263 0-0.501-0.043-0.716-0.133a1.552 1.552 0 0 1-0.577-0.415l-0.052-0.06-0.316-5e-3 -9e-3 0.078-0.06 0.055a1.532 1.532 0 0 1-0.618 0.352 1.856 1.856 0 0 1-0.726 0.055 1.868 1.868 0 0 1-0.721-0.1 1.55 1.55 0 0 1-0.593-0.39l-0.044-0.047c-0.353 5e-3 -0.704 0.013-1.057 0.023l0.157 0.916a63.138 63.138 0 0 1 2.414-0.098 63.274 63.274 0 0 1 16.811 1.888z"/><path d="m234.84 74.654a1.466 1.466 0 0 1-0.575-0.034l-0.016-5e-3 -0.019-1e-3a1.45 1.45 0 0 1-0.557-0.142 1.112 1.112 0 0 1-0.342-0.27c0.057-0.544 0.238-0.607 0.466-0.684 0.213-0.073 0.453-0.154 0.69-0.411 0.153 0.315 0.354 0.465 0.532 0.599 0.192 0.143 0.343 0.256 0.229 0.794-0.126 0.079-0.263 0.13-0.407 0.153z"/><path d="m231.86 74.134a1.426 1.426 0 0 1-0.575-0.01l-0.017-2e-3 -0.018-1e-3a1.434 1.434 0 0 1-0.563-0.117 1.102 1.102 0 0 1-0.353-0.255c0.032-0.546 0.21-0.617 0.435-0.704 0.21-0.082 0.444-0.174 0.672-0.44 0.165 0.308 0.372 0.45 0.556 0.574 0.199 0.135 0.354 0.241 0.264 0.785a1.083 1.083 0 0 1-0.4 0.17z"/><path d="m227.69 73.638c0.162 0.07 0.35 0.105 0.565 0.107h0.018l0.017 4e-3c0.212 0.038 0.404 0.037 0.576 0 0.142-0.034 0.275-0.093 0.397-0.18 0.08-0.54-0.082-0.645-0.283-0.776-0.188-0.123-0.4-0.26-0.569-0.568-0.225 0.269-0.457 0.365-0.662 0.45-0.222 0.093-0.396 0.164-0.417 0.715 0.104 0.107 0.224 0.19 0.358 0.248z"/><path d="m218.55 73.131c0.166 0.061 0.356 0.085 0.572 0.074l0.016-1e-3 0.019 2e-3c0.214 0.025 0.406 0.013 0.575-0.037 0.14-0.04 0.27-0.108 0.384-0.202 0.047-0.545-0.12-0.64-0.33-0.759-0.195-0.11-0.416-0.234-0.603-0.531-0.207 0.282-0.433 0.392-0.632 0.49-0.215 0.106-0.385 0.188-0.373 0.739 0.11 0.1 0.234 0.176 0.372 0.225z"/><path d="m221.65 73.18c0.163 0.068 0.352 0.1 0.568 0.098h0.017l0.018 2e-3c0.213 0.035 0.404 0.031 0.575-0.01 0.144-0.035 0.275-0.098 0.394-0.185 0.07-0.543-0.093-0.645-0.296-0.772-0.191-0.12-0.406-0.254-0.579-0.559-0.22 0.274-0.45 0.374-0.654 0.462-0.22 0.097-0.393 0.172-0.404 0.722 0.105 0.105 0.226 0.186 0.361 0.242z"/><path d="m236.61 74.56 0.4-1.032-1.098 0.877c0.233 0.05 0.465 0.101 0.698 0.155z"/><path d="m216.42 71.604 0.204 1.091c0.24-7e-3 0.48-0.014 0.719-0.019z"/><path d="m230.46 79.839h-2e-3a0.622 0.622 0 0 0-0.457 0.142 0.621 0.621 0 0 0-0.223 0.422v2e-3a0.628 0.628 0 0 0 0.564 0.68h2e-3a0.623 0.623 0 0 0 0.68-0.563v-2e-3a0.62 0.62 0 0 0-0.142-0.457 0.62 0.62 0 0 0-0.422-0.224z"/><path d="m232.67 80.341-2e-3 -1e-3a0.628 0.628 0 0 0-0.68 0.565v2e-3c-0.017 0.17 0.039 0.333 0.142 0.456a0.62 0.62 0 0 0 0.422 0.224h2e-3a0.626 0.626 0 0 0 0.68-0.564l2e-3 -3e-3a0.624 0.624 0 0 0-0.566-0.68z"/><path d="m228.18 79.446h-2e-3a0.629 0.629 0 0 0-0.682 0.565l2e-3 2e-3a0.623 0.623 0 0 0 0.564 0.68h2e-3a0.625 0.625 0 0 0 0.681-0.565v-2e-3a0.63 0.63 0 0 0-0.565-0.68z"/><path d="m225.92 79.212h-2e-3a0.63 0.63 0 0 0-0.68 0.564v3e-3c-0.016 0.17 0.039 0.332 0.142 0.455a0.622 0.622 0 0 0 0.422 0.224h3e-3a0.626 0.626 0 0 0 0.68-0.564v-2e-3a0.62 0.62 0 0 0-0.565-0.68z"/><path d="m223.64 79.09h-2e-3a0.625 0.625 0 0 0-0.68 0.564v2e-3a0.623 0.623 0 0 0 0.565 0.68 0.627 0.627 0 0 0 0.682-0.564v-2e-3a0.627 0.627 0 0 0-0.565-0.68z"/><path d="m221.36 79.057h-2e-3a0.626 0.626 0 0 0-0.68 0.565v1e-3a0.625 0.625 0 0 0 0.565 0.68l1e-3 1e-3a0.623 0.623 0 0 0 0.538-1.023 0.62 0.62 0 0 0-0.422-0.224z"/><path d="m219.06 79.114h-3e-3a0.623 0.623 0 0 0-0.68 0.565 0.616 0.616 0 0 0 0.142 0.458 0.62 0.62 0 0 0 0.423 0.224h2e-3a0.625 0.625 0 0 0 0.68-0.565v-2e-3a0.625 0.625 0 0 0-0.565-0.68z"/><path d="m234 77.002h-2e-3a0.763 0.763 0 0 0-0.83 0.688v3e-3a0.762 0.762 0 0 0 0.689 0.83h2e-3a0.766 0.766 0 0 0 0.83-0.689v-2e-3a0.762 0.762 0 0 0-0.689-0.83z"/><path d="m231.47 76.404h-3e-3a0.765 0.765 0 0 0-0.829 0.69v1e-3a0.761 0.761 0 0 0 0.689 0.83h2e-3a0.762 0.762 0 0 0 0.83-0.689v-2e-3a0.765 0.765 0 0 0-0.689-0.83z"/><path d="m228.93 76.008h-3e-3a0.759 0.759 0 0 0-0.556 0.173 0.756 0.756 0 0 0-0.273 0.516v3e-3a0.762 0.762 0 0 0 0.689 0.83h2e-3a0.761 0.761 0 0 0 0.83-0.69v-1e-3a0.763 0.763 0 0 0-0.689-0.83z"/><path d="m226.37 75.724h-3e-3a0.763 0.763 0 0 0-0.83 0.689v3e-3a0.763 0.763 0 0 0 0.69 0.83h1e-3a0.76 0.76 0 0 0 0.83-0.69v-1e-3a0.754 0.754 0 0 0-0.174-0.558 0.76 0.76 0 0 0-0.514-0.273z"/><path d="m223.78 75.55h-3e-3a0.766 0.766 0 0 0-0.83 0.689v3e-3a0.765 0.765 0 0 0 0.69 0.83h1e-3a0.758 0.758 0 0 0 0.83-0.69v-1e-3a0.762 0.762 0 0 0-0.689-0.83z"/><path d="m221.23 75.516h-2e-3a0.76 0.76 0 0 0-0.83 0.688v2e-3a0.762 0.762 0 0 0 0.689 0.83h2e-3a0.768 0.768 0 0 0 0.83-0.688v-3e-3a0.766 0.766 0 0 0-0.689-0.83z"/><path d="m218.67 75.547h-3e-3a0.761 0.761 0 0 0-0.829 0.689v3e-3a0.761 0.761 0 0 0 0.689 0.83h2e-3a0.765 0.765 0 0 0 0.83-0.689v-3e-3a0.757 0.757 0 0 0-0.173-0.556 0.76 0.76 0 0 0-0.516-0.274z"/><path d="m224.66 73.356c0.16 0.07 0.35 0.105 0.565 0.107h0.017l0.018 3e-3c0.212 0.039 0.404 0.038 0.576 0 0.143-0.033 0.275-0.092 0.396-0.179 0.08-0.541-0.08-0.645-0.284-0.777-0.188-0.123-0.4-0.26-0.567-0.568-0.225 0.27-0.457 0.366-0.663 0.451-0.22 0.092-0.394 0.164-0.417 0.715 0.104 0.107 0.223 0.19 0.359 0.248z"/><path d="m218.02 81.841h-0.078l-0.06-0.011-0.058-0.024-0.05-0.034-0.046-0.042-0.034-0.051-0.025-0.058-0.014-0.063v-0.066l0.012-0.061 0.023-0.057 0.035-0.052 0.043-0.044 0.05-0.035 0.058-0.025 0.074-0.016 0.242-0.026 0.252-0.025 0.252-0.023 0.252-0.022 0.251-0.021 0.252-0.019 0.251-0.017 0.251-0.016 0.25-0.014 0.252-0.013 0.5-0.02 0.25-7e-3 0.25-6e-3 0.251-5e-3 0.25-3e-3 0.249-1e-3h0.249l0.25 2e-3 0.247 3e-3 0.25 4e-3 0.249 7e-3 0.248 8e-3 0.496 0.02 0.248 0.013 0.247 0.014 0.247 0.016 0.248 0.018 0.248 0.019 0.246 0.02 0.247 0.023 0.246 0.023 0.246 0.026 0.248 0.027 0.246 0.029 0.246 0.03 0.246 0.032 0.245 0.033 0.247 0.035 0.246 0.037 0.245 0.038 0.245 0.04 0.245 0.041 0.246 0.043 0.246 0.044 0.244 0.046 0.245 0.048 0.245 0.05 0.244 0.05 0.244 0.052 0.245 0.054 0.245 0.056 0.244 0.057 0.244 0.06 0.243 0.059 0.244 0.062 0.245 0.064 0.243 0.065 0.244 0.066 0.243 0.068 0.243 0.07 0.243 0.072 0.233 0.07 0.07 0.03 0.052 0.034 0.044 0.044 0.034 0.051 0.023 0.057 0.013 0.06v0.063l-0.013 0.065-0.024 0.06-0.035 0.052-0.044 0.044-0.052 0.033-0.057 0.023-0.06 0.013h-0.063l-0.074-0.015-0.229-0.067-0.237-0.07-0.238-0.068-0.24-0.068-0.238-0.065-0.24-0.064-0.238-0.063-0.24-0.06-0.24-0.059-0.24-0.057-0.238-0.057-0.24-0.055-0.242-0.052-0.24-0.052-0.24-0.05-0.241-0.048-0.241-0.047-0.242-0.045-0.241-0.044-0.241-0.041-0.484-0.08-0.484-0.074-0.243-0.034-0.242-0.033-0.242-0.032-0.243-0.03-0.245-0.027-0.242-0.027-0.243-0.025-0.243-0.024-0.245-0.022-0.244-0.02-0.243-0.018-0.245-0.018-0.245-0.016-0.244-0.014-0.244-0.013-0.244-0.01-0.245-0.01-0.245-9e-3 -0.245-6e-3 -0.244-5e-3 -0.246-3e-3 -0.245-2e-3h-0.246l-0.245 1e-3 -0.246 3e-3 -0.246 4e-3 -0.245 6e-3 -0.246 8e-3 -0.247 0.01-0.245 0.01-0.247 0.012-0.246 0.014-0.246 0.016-0.247 0.016-0.247 0.019-0.246 0.02-0.248 0.021-0.246 0.023-0.248 0.025z"/><path d="m217.05 78.462-0.043-0.044-0.033-0.051-0.024-0.058-0.012-0.064 1e-3 -0.066 0.014-0.06 0.025-0.057 0.034-0.05 0.044-0.045 0.052-0.033 0.059-0.024 0.07-0.013 0.156-0.014 0.16-0.013 0.158-0.013 0.159-0.012 0.158-0.01 0.16-0.012 0.316-0.02 0.157-0.01 0.159-0.01 0.158-7e-3 0.157-8e-3 0.158-8e-3 0.158-7e-3 0.314-0.012 0.166-7e-3 0.166-4e-3 0.164-5e-3 0.162-5e-3 0.161-4e-3 0.32-6e-3 0.16-2e-3 0.156-2e-3h0.156l0.154-2e-3h0.306l0.152 1e-3 0.15 1e-3 0.15 2e-3 0.402 7e-3 0.404 0.01 0.402 0.014 0.403 0.018 0.4 0.02 0.403 0.024 0.401 0.026 0.402 0.03 0.4 0.034 0.402 0.036 0.401 0.04 0.4 0.043 0.4 0.047 0.4 0.05 0.4 0.052 0.398 0.057 0.4 0.06 0.399 0.062 0.398 0.067 0.399 0.07 0.397 0.072 0.4 0.075 0.397 0.08 0.397 0.082 0.396 0.086 0.398 0.089 0.396 0.092 0.397 0.096 0.395 0.1 0.397 0.101 0.396 0.106 0.386 0.106 0.069 0.027 0.053 0.035 0.044 0.042 0.036 0.05 0.024 0.058 0.015 0.06 2e-3 0.063-0.011 0.063-0.024 0.06-0.033 0.054-0.043 0.044-0.051 0.035-0.057 0.025-0.059 0.014-0.062 2e-3 -0.075-0.014-0.379-0.103-0.388-0.104-0.39-0.101-0.39-0.096-0.39-0.095-0.39-0.091-0.392-0.088-0.39-0.084-0.393-0.08-0.39-0.08-0.393-0.074-0.393-0.071-0.394-0.069-0.391-0.064-0.395-0.063-0.394-0.058-0.395-0.055-0.394-0.053-0.396-0.048-0.396-0.046-0.395-0.043-0.396-0.039-0.396-0.035-0.397-0.034-0.398-0.029-0.397-0.027-0.398-0.023-0.399-0.02-0.398-0.016-0.4-0.014-0.398-0.01-0.4-8e-3 -0.163-1e-3 -0.162-2e-3 -0.16-1e-3 -0.162-1e-3h-0.316l-0.157 2e-3h-0.157l-0.155 3e-3 -0.154 2e-3 -0.153 3e-3 -0.151 3e-3 -0.152 4e-3 -0.15 4e-3 -0.148 5e-3 -0.147 5e-3 -0.158 6e-3 -0.157 6e-3 -0.156 7e-3 -0.156 8e-3 -0.158 7e-3 -0.155 0.01-0.156 8e-3 -0.158 0.01-0.155 0.01-0.156 0.01-0.158 0.01-0.155 0.011-0.156 0.012-0.158 0.012-0.155 0.013-0.148 0.013-0.077-1e-3 -0.06-0.014-0.057-0.024z"/><path d="m216.24 74.846-0.042-0.045-0.033-0.052-0.023-0.058-0.01-0.065 2e-3 -0.065 0.016-0.06 0.025-0.057 0.036-0.051 0.044-0.043 0.053-0.033 0.06-0.022 0.068-0.011 0.18-0.013 0.36-0.022 0.36-0.02 0.358-0.018 0.356-0.016 0.354-0.014 0.177-6e-3 0.176-6e-3 0.176-5e-3 0.175-3e-3 0.176-4e-3 0.181-4e-3 0.183-3e-3 0.182-3e-3 0.181-3e-3 0.18-1e-3 0.178-2e-3 0.178-1e-3h0.532l0.174 2e-3 0.175 2e-3 0.174 2e-3 0.173 2e-3 0.172 4e-3 0.172 3e-3 0.454 0.012 0.454 0.014 0.453 0.02 0.453 0.021 0.453 0.025 0.453 0.029 0.452 0.032 0.452 0.033 0.453 0.04 0.45 0.04 0.451 0.046 0.453 0.046 0.45 0.052 0.45 0.055 0.45 0.057 0.45 0.06 0.451 0.065 0.449 0.068 0.448 0.071 0.45 0.074 0.449 0.077 0.45 0.08 0.447 0.085 0.448 0.087 0.447 0.09 0.448 0.095 0.447 0.096 0.448 0.1 0.447 0.105 0.446 0.106 0.447 0.11 0.435 0.11 0.072 0.027 0.052 0.033 0.045 0.043 0.038 0.048 0.025 0.057 0.017 0.06 2e-3 0.062-0.01 0.065-0.023 0.061-0.033 0.054-0.041 0.045-0.05 0.035-0.056 0.027-0.059 0.015-0.062 3e-3 -0.075-0.012-0.43-0.109-0.44-0.108-0.442-0.106-0.441-0.1-0.44-0.1-0.442-0.096-0.442-0.093-0.443-0.09-0.443-0.085-0.443-0.083-0.443-0.08-0.445-0.075-0.444-0.074-0.445-0.07-0.445-0.066-0.444-0.064-0.446-0.06-0.446-0.057-0.447-0.053-0.446-0.051-0.447-0.048-0.449-0.043-0.446-0.041-0.449-0.038-0.448-0.035-0.898-0.06-0.45-0.023-0.45-0.022-0.45-0.019-0.45-0.015-0.451-0.012-0.181-4e-3 -0.18-3e-3 -0.178-3e-3 -0.18-2e-3 -0.177-2e-3h-0.177l-0.176-2e-3h-0.526l-0.174 1e-3 -0.346 4e-3 -0.172 2e-3 -0.171 3e-3 -0.17 3e-3 -0.179 5e-3 -0.178 4e-3 -0.178 6e-3 -0.178 5e-3 -0.178 6e-3 -0.176 6e-3 -0.176 8e-3 -0.177 7e-3 -0.352 0.016-0.176 0.01-0.175 9e-3 -0.174 0.01-0.35 0.02-0.167 0.011-0.076-1e-3 -0.061-0.015-0.056-0.026-0.049-0.036z"/><path d="m227.38 66.206c-1.117 1.437-2.818 1.906-4.498 2.37-1.988 0.549-3.945 1.09-4.728 3.315 0.066-0.04 0.136-0.074 0.21-0.11 0.208-0.101 0.452-0.22 0.643-0.656l0.222-0.5 0.179 0.517c0.155 0.445 0.39 0.578 0.591 0.69 0.293 0.167 0.534 0.304 0.56 0.833l0.31 6e-3c0.067-0.594 0.327-0.708 0.651-0.849 0.21-0.091 0.46-0.2 0.67-0.627l0.244-0.49 0.156 0.524c0.137 0.452 0.364 0.595 0.56 0.717 0.28 0.175 0.512 0.321 0.522 0.827l0.23 0.012c0.083-0.55 0.34-0.658 0.658-0.79 0.211-0.088 0.463-0.192 0.681-0.615l0.252-0.485 0.147 0.526c0.127 0.455 0.354 0.602 0.547 0.727 0.278 0.18 0.51 0.332 0.508 0.842l0.24 0.023c0.092-0.504 0.342-0.608 0.648-0.735 0.212-0.088 0.463-0.193 0.682-0.615l0.251-0.486 0.148 0.527c0.128 0.454 0.354 0.6 0.547 0.727 0.288 0.187 0.524 0.342 0.508 0.896l0.227 0.03c0.105-0.493 0.362-0.593 0.668-0.713 0.215-0.084 0.467-0.182 0.684-0.601l0.25-0.486 0.148 0.526c0.128 0.458 0.353 0.611 0.543 0.74 0.293 0.2 0.529 0.36 0.482 0.96 0.078 0.012 0.156 0.026 0.235 0.04 0.122-0.515 0.386-0.605 0.705-0.714 0.217-0.074 0.473-0.161 0.709-0.57l0.271-0.474 0.126 0.532c0.107 0.464 0.325 0.626 0.51 0.763l0.106 0.081c-0.38-2.287-2.186-3.173-4.021-4.073-1.566-0.767-3.151-1.544-3.982-3.162z"/></g></g><g><g transform="matrix(4.8217 0 0 4.8217 -422.43 414.64)" fill="#fcdd09"><path d="m149.16-8.5275c-0.0866 0.17315 0.29435 0.76185 0.62333 0.76185 0.32894 0 0.18574-0.1985 0.4717-0.17909 0.1985 0.013474 0.37347 0.30007 0.37672 0.95825 5e-3 1.0253-1.3841 1.4067-2.3375 1.4371-0.34488 0.011007-0.27704-0.34629-0.27704-0.34629s0.25972-1.1947 0.13852-1.6449c-0.12121-0.45018-0.27916-0.57838-1.0389-1.4371-0.99151-1.1207-0.94637-2.6005-0.94637-2.6005s-0.2659-1.706 0.53786-2.3241c0.72789-0.55978 1.6183-0.37752 1.8488-0.42852 0.46568-0.10308 0.44135-0.22997 0.8203-0.37954 0.54803-0.21631 1.5794-0.12243 1.5794-0.12243s1.0314-0.09387 1.5794 0.12243c0.37895 0.14957 0.35462 0.27647 0.8203 0.37954 0.23042 0.051 1.1209-0.13126 1.8488 0.42852 0.80376 0.61813 0.53786 2.3241 0.53786 2.3241s0.0451 1.4798-0.94637 2.6005c-0.75972 0.85874-0.91767 0.98694-1.0389 1.4371-0.1212 0.45018 0.13852 1.6449 0.13852 1.6449s0.0678 0.3573-0.27704 0.34629c-0.95338-0.030428-2.3425-0.41186-2.3375-1.4371 3e-3 -0.65818 0.17822-0.94478 0.37672-0.95825 0.28596-0.01941 0.14276 0.17909 0.4717 0.17909 0.32898 0 0.70993-0.5887 0.62333-0.76185-0.0866-0.17315-1.1735-0.30152-1.7968-0.26689-0.62332-0.03463-1.7102 0.093746-1.7968 0.26689z" fill="#fcdd09"/><g transform="matrix(-1 0 0 1 301.91 0)"><path d="m149.74-4.6219c0.13467-0.40403 1.2121-0.31833 1.2121-0.31833s1.0774-0.085703 1.2121 0.31833c0.13468 0.40403-0.7346 1.3223-1.2121 1.359-0.47749-0.03673-1.3468-0.95498-1.2121-1.359z" fill="#fcdd09"/></g></g><path d="m292.05 350.86a5.6692 5.6692 0 0 0-4.1249 6.8759 5.6692 5.6692 0 0 0 0.71086 1.6421 5.6692 5.6692 0 0 1 4.2707-5.0924 5.6692 5.6692 0 0 1 6.1637 2.4699 5.6692 5.6692 0 0 0-0.14613-1.7702 5.6692 5.6692 0 0 0-6.8741-4.1253z" fill="#502d16"/><path d="m318.22 350.86a5.6692 5.6692 0 0 1 4.1249 6.8759 5.6692 5.6692 0 0 1-0.71086 1.6421 5.6692 5.6692 0 0 0-4.2707-5.0924 5.6692 5.6692 0 0 0-6.1637 2.4699 5.6692 5.6692 0 0 1 0.14612-1.7702 5.6692 5.6692 0 0 1 6.8741-4.1253z" fill="#502d16"/></g></g></svg>
