/* XPM */
static char *image[] = {
"32 32 236 2",
"   c None",
"00 c #283050",
"10 c #101840",
"20 c #303858",
"30 c #385468",
"40 c #607488",
"50 c #708490",
"60 c #608088",
"70 c #507480",
"80 c #406078",
"90 c #282c50",
":0 c #507888",
";0 c #689098",
"A0 c #282c58",
"B0 c #485478",
"C0 c #507080",
"D0 c #607c88",
"E0 c #485878",
"F0 c #383c68",
"G0 c #404868",
"H0 c #78a0a0",
"I0 c #506880",
"J0 c #304060",
"K0 c #788c98",
"L0 c #90a8b0",
"M0 c #506c80",
"N0 c #889ca8",
"O0 c #a8c4c0",
"P0 c #80a4a0",
"Q0 c #b0c4c0",
"R0 c #303c60",
"S0 c #505c88",
"T0 c #a0b8b8",
"U0 c #a8b8c0",
"V0 c #202458",
"W0 c #080c48",
"X0 c #000c48",
"Y0 c #202c58",
"Z0 c #586080",
"a0 c #687490",
"b0 c #788ca0",
"c0 c #d0dcd8",
"d0 c #b8c0c8",
"e0 c #505c78",
"f0 c #707490",
"g0 c #708498",
"h0 c #202850",
"i0 c #101448",
"j0 c #586480",
"k0 c #d8e8e0",
"l0 c #e8f0f0",
"m0 c #b8ccd0",
"n0 c #b0c0c0",
"o0 c #8090a0",
"p0 c #404468",
"q0 c #283058",
"r0 c #404878",
"s0 c #686c98",
"t0 c #b8ccc8",
"u0 c #e8f0e8",
"v0 c #f0f8f0",
"w0 c #e0ece8",
"x0 c #d8e0e0",
"y0 c #c0d4d0",
"z0 c #889cb0",
"01 c #586490",
"11 c #383c70",
"21 c #606898",
"31 c #7884b0",
"41 c #a0b4b8",
"51 c #a0bcb8",
"61 c #b0c0c8",
"71 c #b8c8c8",
"81 c #c0d0d0",
"91 c #c8d8d8",
":1 c #d0e0e0",
";1 c #e8ecf0",
"A1 c #e8f4f0",
"B1 c #e0e8e8",
"C1 c #d8e4e0",
"D1 c #d0dce0",
"E1 c #c0d8d0",
"F1 c #c0ccd0",
"G1 c #b0c4c8",
"H1 c #707ca8",
"I1 c #7880b0",
"J1 c #282c60",
"K1 c #384478",
"L1 c #586890",
"M1 c #707ca0",
"N1 c #98b4b8",
"O1 c #8894b0",
"P1 c #788498",
"Q1 c #707890",
"R1 c #686c90",
"S1 c #7888a0",
"T1 c #788098",
"U1 c #7884a0",
"V1 c #b0c8c8",
"W1 c #a8c0c0",
"X1 c #a8bcc0",
"Y1 c #88a0b0",
"Z1 c #6870a0",
"a1 c #485080",
"b1 c #102058",
"c1 c #88a4b0",
"d1 c #88a8b0",
"e1 c #606c90",
"f1 c #586088",
"g1 c #384878",
"h1 c #384468",
"i1 c #606488",
"j1 c #a8b8b8",
"k1 c #a0bcc0",
"l1 c #90b0b0",
"m1 c #7890a0",
"n1 c #404c78",
"o1 c #283468",
"p1 c #485078",
"q1 c #80a8a8",
"r1 c #8094a8",
"s1 c #505480",
"t1 c #384068",
"u1 c #102048",
"v1 c #303c68",
"w1 c #98b4b0",
"x1 c #607c90",
"y1 c #303868",
"z1 c #202c60",
"02 c #7094a0",
"12 c #708898",
"22 c #404870",
"32 c #404c80",
"42 c #384070",
"52 c #283460",
"62 c #181c50",
"72 c #505878",
"82 c #90a4b0",
"92 c #80a0a0",
":2 c #809ca0",
";2 c #587088",
"A2 c #081038",
"B2 c #303860",
"C2 c #689498",
"D2 c #405070",
"E2 c #484c70",
"F2 c #283860",
"G2 c #303460",
"H2 c #303c58",
"I2 c #505478",
"J2 c #586880",
"K2 c #283858",
"L2 c #588090",
"M2 c #588488",
"N2 c #688890",
"O2 c #7894a0",
"P2 c #809ca8",
"Q2 c #a0b0b8",
"R2 c #98b0b8",
"S2 c #98acb0",
"T2 c #90a8a8",
"U2 c #689090",
"V2 c #283458",
"W2 c #487478",
"X2 c #609090",
"Y2 c #7098a0",
"Z2 c #80a4a8",
"a2 c #88aca8",
"b2 c #90acb0",
"c2 c #80a0a8",
"d2 c #709498",
"e2 c #688c90",
"f2 c #608490",
"g2 c #507c80",
"h2 c #406478",
"i2 c #202c50",
"j2 c #487480",
"k2 c #588088",
"l2 c #608890",
"m2 c #708c98",
"n2 c #789ca0",
"o2 c #88a4a8",
"p2 c #88a8a8",
"q2 c #88a0a8",
"r2 c #7898a0",
"s2 c #709098",
"t2 c #608c90",
"u2 c #588890",
"v2 c #507c88",
"w2 c #507880",
"x2 c #407078",
"y2 c #406878",
"z2 c #182448",
"03 c #304460",
"13 c #505c80",
"23 c #506478",
"33 c #586888",
"43 c #586078",
"53 c #485c78",
"63 c #606890",
"73 c #506078",
"83 c #505880",
"93 c #405470",
":3 c #485070",
";3 c #384c68",
"A3 c #404c70",
"B3 c #304458",
"C3 c #384060",
"D3 c #182048",
"E3 c #001038",
"F3 c #182050",
"G3 c #283060",
"H3 c #101440",
"I3 c #203058",
"J3 c #182450",
"K3 c #202858",
"L3 c #102050",
"M3 c #101848",
"N3 c #101c48",
"O3 c #081848",
"P3 c #182458",
"Q3 c #182058",
"R3 c #081440",
"S3 c #101c50",
"T3 c #101850",
"U3 c #081448",
"V3 c #081048",
"W3 c #080c40",
"X3 c #001048",
"Y3 c #081040",
"Z3 c #000840",
"a3 c #000c40",
"b3 c #001040",
"c3 c #000c38",
"d3 c #080c38",
"e3 c #000838",
"e3d3e3d3e3d3e3d3e3d3e3d3e3d3e3d3e3d3e3d3e3d3e3d3e3d3e3d3e3d3e3d3",
"c3e3c3e3c3e3c3e3c3e3c3e3b3a3a3e3c3e3c3e3b3Z3c3e3c3e3c3e3c3e3c3e3",
"e3d3e3c3e3d3e3c3e3d3e3c3a3Y3a3a3e3d3a3X3Y3W3e3c3e3d3e3c3e3d3e3c3",
"c3e3e3e3c3e3e3e3c3e3e3e3Y3Z3V3a3c3e3V3Z3b3c3Z3e3c3e3e3e3c3e3e3e3",
"e3d3e3d3e3d3e3d3e3d3c3V3U3V3T3W3e3d3S3U3V3Y3a3d3e3d3e3d3e3d3e3d3",
"c3e3c3e3c3e3c3e3c3e3a3a3R3U3Q3a3c3c3P3U3U3a3b3e3c3e3c3e3c3e3c3e3",
"e3d3e3c3e3R3O3N3M3N3N3L3K3J3I3L3H3N3G3I3F3F3N3N3H3Y3e3c3e3d3e3c3",
"c3e3e3e3E3D3C3B3A3;3:39383736353437333231393:3;303z2W3e3c3e3e3e3",
"e3d3e3d3c3z203y2x2w2v2u2t2s2r2q2p2o2n2r2m2l2k2v2j2;3F3d3e3d3e3d3",
"c3e3c3e3c3E3J3i2h2g2f2e2d2n2c2p2b2a2Z2n2Y2X2l2k2w2W2V2b3c3e3c3e3",
"e3d3e3c3e3d3b3J3h2l2U2d2n2o2T2S2R2Q2b2o2P2O2U2N2M2L2K2U3e3d3e3c3",
"c3e3e3e3c3e3V3N3J2U2d2n2c2I2I2H2G2F2E2D2I2:3d2C2N2l2B2b3c3e3e3e3",
"e3d3e3d3e3A2F3J3;2:29282T272G262d3M35242322212P2Y202B2M3e3d3e3d3",
"c3e3c3e3b3X3z1y1x192b2w1R272v1u1a3N3z1t1s1I2r1q1n2n2p1U3X3e3c3e3",
"e3d3a3U3T3Q3o1n1m1b2l1k1j1i1h1g1M3o1t1p1f1e182R2d1c17252U3V3a3a3",
"Y3O3T3b1P3a1Z1e1Y1w1X1W1V1U1T1S1R1Q1U1P1O1S1X1N1R2b2M1L1K1b1U3U3",
"V3Q3J1g132I1H1H182W1G1F1E1D1C1B1A1;1C1:1918171615141T1312132B2J1",
"a3a3O3J311010101z0G181y0D1x0w0;1v0u0;1C1:19181t061l1s001r0I3O3O3",
"Z3V3Z3U3M3q052p0o0n0V1m0y091C1B1l0l0k0x0y081V1W1Y1j0K2v1K3i0Z3X3",
"c3e3a3a3U3V3i0h0g0N1X1n0G1Q1f0e0d0x0c0y0F1b0a0Z0I2Y0i0R3U3Z3X0Z3",
"e3d3e3W3a3W0a3V0x1S2N1U0T0j0S0K3R061y0F1Q0417322I3M3a3W3a3W3Z3d3",
"c3e3c3Z3c3a3X0u1;2P0b2w1R2I2s1U3M3C3U0O0k1w1N022K3U3X3Z3a3c3a3e3",
"e3d3e3c3e3d3e3J3M0r292L0L0A3h1Y3e3D3Z0R2N1b2o2K0J0F3a3a3e3d3e3c3",
"c3e3e3e3c3c3a3D3I0C2r2H0c2G0F0b3c3e3G2E0q2H0n2C2D0v1F3E3c3e3e3e3",
"e3d3e3d3e3i0D3B2C0l2e2r2r2B0G2R3e3Y3A022J2r2;0;0M2:00390N3A2e3d3",
"c3e3c3e3c3D30380C070D060m250I2M3E3e3B24012f2D070C0y2h23020R3c3e3",
"e3d3e3c3e310z2i2h0A0K3Y052B2h0R3e3d3D3B2V200Y0Y0h0q0h0h0F3R3e3c3",
"c3e3e3e3c3e3e3e3b3X0a3c3O3U3a3Z3c3e3Z3U3O3c3e3c3V3c3W3c3c3e3e3e3",
"e3d3e3d3e3d3e3d3e3d3e3d3W3V3a3d3e3d3e3V3W0Y3e3d3e3d3e3d3e3d3e3d3",
"c3e3c3e3c3e3c3e3c3e3c3e3R3a3a3e3c3e3c3a3X3e3c3e3c3e3c3e3c3e3c3e3",
"e3d3e3c3e3d3e3c3e3d3e3c3a3V3a3c3e3d3c3b3W3W3e3c3e3d3e3c3e3d3e3c3",
"c3e3e3e3c3e3e3e3c3e3e3e3b3c3Z3e3c3e3e3e3a3e3e3e3c3e3e3e3c3e3e3e3"};
