/* XPM */
static char *image[] = {
"30 42 199 2",
"   c None",
"00 c #282c88",
"10 c #303088",
"20 c #d8bc10",
"30 c #907c38",
"40 c #d0b420",
"50 c #202090",
"60 c #b8a420",
"70 c #080890",
"80 c #d0b818",
"90 c #c8b820",
":0 c #383888",
";0 c #182090",
"A0 c #c8b010",
"B0 c #e0c008",
"C0 c #c8b428",
"D0 c #787048",
"E0 c #585058",
"F0 c #383870",
"G0 c #988038",
"H0 c #e0c408",
"I0 c #000890",
"J0 c #181880",
"K0 c #c8b410",
"L0 c #c0a418",
"M0 c #080c90",
"N0 c #908c50",
"O0 c #282888",
"P0 c #302c70",
"Q0 c #b8a820",
"R0 c #d8bc08",
"S0 c #282878",
"T0 c #c8b418",
"U0 c #786c48",
"V0 c #908838",
"W0 c #e0cc08",
"X0 c #584c58",
"Y0 c #202488",
"Z0 c #887440",
"a0 c #101090",
"b0 c #e8dc18",
"c0 c #d0c818",
"d0 c #b09c20",
"e0 c #e0d858",
"f0 c #e0dca0",
"g0 c #f0ecb0",
"h0 c #f0ecb8",
"i0 c #f0ecc0",
"j0 c #e0e0c8",
"k0 c #d0d0a8",
"l0 c #b8b860",
"m0 c #d0c418",
"n0 c #d0b410",
"o0 c #101088",
"p0 c #101890",
"q0 c #f0f0c0",
"r0 c #f8f4e0",
"s0 c #f8ec58",
"t0 c #f8e820",
"u0 c #f8f060",
"v0 c #b8b898",
"w0 c #d8cc08",
"x0 c #d8c008",
"y0 c #202478",
"z0 c #000490",
"01 c #d8d038",
"11 c #c8c018",
"21 c #f8fcf0",
"31 c #c0b438",
"41 c #e8e048",
"51 c #c0c4b0",
"61 c #b8b050",
"71 c #b8b430",
"81 c #c8bc20",
"91 c #d0cc58",
":1 c #e8e8c8",
";1 c #f0e430",
"A1 c #f8f070",
"B1 c #f8f8f8",
"C1 c #e8e8e8",
"D1 c #e0d830",
"E1 c #f8ec50",
"F1 c #f8f4a8",
"G1 c #f8f8c0",
"H1 c #f8f8d0",
"I1 c #a0a068",
"J1 c #e8dc00",
"K1 c #f8f078",
"L1 c #d0cc80",
"M1 c #d8d028",
"N1 c #d0cc40",
"O1 c #d8cc38",
"P1 c #e0dc80",
"Q1 c #f0e018",
"R1 c #e8d810",
"S1 c #e8dc30",
"T1 c #e0dca8",
"U1 c #e0e4c8",
"V1 c #f0eca8",
"W1 c #f0f0d0",
"X1 c #f0f0f0",
"Y1 c #c0c080",
"Z1 c #e0c808",
"a1 c #b8b438",
"b1 c #c8b828",
"c1 c #f8ec48",
"d1 c #e8e8d8",
"e1 c #e8dc28",
"f1 c #f8e818",
"g1 c #f8f4b0",
"h1 c #b0b498",
"i1 c #f8f8c8",
"j1 c #c0bc70",
"k1 c #f8ec40",
"l1 c #f0f4f0",
"m1 c #d0c020",
"n1 c #f8e408",
"o1 c #f8fce0",
"p1 c #b8b868",
"q1 c #f8e828",
"r1 c #f8fce8",
"s1 c #b8b040",
"t1 c #d8d418",
"u1 c #f0eca0",
"v1 c #c0c0a0",
"w1 c #e0d008",
"x1 c #f8e838",
"y1 c #f8f8f0",
"z1 c #e8e068",
"02 c #c8c480",
"12 c #e0e0c0",
"22 c #e8ece8",
"32 c #b0ac58",
"42 c #d0c410",
"52 c #d8cc18",
"62 c #e8e4b0",
"72 c #f8fcf8",
"82 c #e8e460",
"92 c #f8f478",
":2 c #f8f488",
";2 c #f8f480",
"A2 c #f8f498",
"B2 c #f8f4c8",
"C2 c #e8e8c0",
"D2 c #f0f0c8",
"E2 c #f8f8a8",
"F2 c #f8ec38",
"G2 c #e8d408",
"H2 c #e8e010",
"I2 c #e8dc08",
"J2 c #d0c428",
"K2 c #c0b830",
"L2 c #c0bc30",
"M2 c #e0d410",
"N2 c #f0e800",
"O2 c #d8c818",
"P2 c #c0c030",
"Q2 c #c0bc38",
"R2 c #d0c820",
"S2 c #e8d808",
"T2 c #c8bc30",
"U2 c #c8b830",
"V2 c #e8d008",
"W2 c #e8d000",
"X2 c #d8c418",
"Y2 c #e8cc00",
"Z2 c #e0d018",
"a2 c #e8c800",
"b2 c #f0cc00",
"c2 c #f0c800",
"d2 c #e0c810",
"e2 c #d8d018",
"f2 c #e8dc10",
"g2 c #b8a840",
"h2 c #e8e008",
"i2 c #f0d000",
"j2 c #b8b038",
"k2 c #f8e000",
"l2 c #f0d800",
"m2 c #f0d400",
"n2 c #b0a848",
"o2 c #c8c030",
"p2 c #f0dc00",
"q2 c #e8d800",
"r2 c #c8bc28",
"s2 c #f8e400",
"t2 c #e0d010",
"u2 c #f0e408",
"v2 c #f8ec00",
"w2 c #f8e800",
"x2 c #f0e400",
"y2 c #f0e000",
"z2 c #d0c420",
"03 c #c0b838",
"13 c #d8d020",
"23 c #e0dc10",
"33 c #e0d810",
"43 c #c8c028",
"53 c #a8a050",
"                        534333231303                        ",
"                      z2y2x2w2w2w2v2u2                      ",
"                    t2y2x2s2s2s2s2s2w2v2                    ",
"                  r2y2y2s2s2s2s2s2s2s2w2u2                  ",
"                  q2p2s2s2s2s2s2s2s2s2w2w2o2                ",
"                n2m2l2k2s2s2s2s2s2s2s2s2w233                ",
"                j2i2l2y2s2s2s2s2s2s2s2s2w2h2                ",
"                g2i2m2y2y2s2s2s2s2s2s2s2w2f2                ",
"                  i2i2p2y2y2s2s2s2s2s2s2w2e2                ",
"                  d2c2i2p2y2y2k2s2s2s2s2w2                  ",
"                    b2a2m2y2y2y2y2s2s2x2Z2                  ",
"                    j2Y2b2l2y2k2y2y2y2t2                    ",
"                        X2W2l2l2l2V2U2                      ",
"            T2s2S2R2Q2                      P2              ",
"            O2y2s2w2v2v2N2M2R243L2K2J2e2I2N2v2H2            ",
"            G2p2y2s2w2F2E2D2C2B2A2;2:2A292w2w2v2Q2          ",
"            l2p2y2s282726252423222721202z1s2s2w2x2          ",
"            l2p2y252y172x1s2s2w1v172u1x2s2s2s2s2v2t1        ",
"            m2p2x2s172r1q1s2s2x2p172o1n1s2s2y2y2w2v2o2      ",
"          m1m2p2x2s1l172k1s2s2s2j172i1s2s2s2t2  S2w2v2      ",
"          d2m2y2x2t2h1l1g1f1s2e1d172c1s2s2k2b1    Z2w2w2a1  ",
"          Z1m2y2s2s2Z2Y1X1W1V1U1T1S1s2s2s2y2          52R1  ",
"          Y2m2y2s2s2Q1B2P1O1N1M1x2s2s2s2s2p2                ",
"          Y2m2y2s2x2L172K1n1n1n1n1n1s2s2s2l2                ",
"          W2l2y2s2J1I1X172r1o1o1H1G1F1E1s2l2                ",
"          m2l2y2s2s2D1v1l1l122C1X1B17272A1p2                ",
"          m2l2y2s2;1G1:191J2438171615172o1l2                ",
"          i2m2y2S2:17241s2s2s2s2s2s2312221G2                ",
"          i2i2p211C172E1s2s2s2s2s2s201l1F1q2                ",
"    z0z0y0x0i2l2w0v072o1u0t0f1f1t0s0r0q0q1p2                ",
"  p0z0z0o0n0b2l2y2m0l0k0j0i0h0g062f0e0u2s2y2                ",
"          d0b2l2y2s2y2S2t2O2c052b0y2s2s2s2y2                ",
"a0z0a0    Z0Y2m2y2s2s2s2s2s2s2x2x2s2s2s2s2x2                ",
"Y0z0z0z0z0X0a2i2y2s2s2x2p2W0V0U0T0y2l2p2s2s2                ",
"  z0z0z0z0S0R0b2p2s2y2p2Q0P0z0O0  N0Z1Y2l2s2                ",
"  M0z0z0z0M0L0c2l2k2p2K0J0z0z0I0      H0Y2l2j2              ",
"    z0z0z0z0G0a2m2p2Y2F0z0z0z0z0z0      a2b2U2              ",
"      M0z0z0E0Y2i2m2D0z0z0z0z0z0z0z0      a2C0              ",
"        p0z0S0B0b2A0        ;0;0I0z0z0:0  9080              ",
"            7060Y2                  50z0O0  40              ",
"              3020                      1000                ",
"                                                            "};
