/* XPM */
static char *image[] = {
"50 50 3 1",
"  c None",
"0 c #000000",
"1 c #ffffff",
"11111111111111111111111111111111111111111111111111",
"11010101010101010101010101010101010101010101010100",
"10101010101010101010101010101010101010101010101010",
"11111111010101111111110101010101010101010101010100",
"10100101001010100101000010101010101010101010101010",
"11010010100101010010000101010101010101010101010100",
"10101101010010101100001010101010101010101010101010",
"11010110101001010110010101010101010101010101010100",
"10101101010100101100001010101010101010101010101010",
"11010110101011010110010101010101010101010101010100",
"10101100010100101100001010101010101010101010101010",
"11010110011010010110010101010101010101010101010100",
"10101100000101001100001010101010101010101010101010",
"11010110010110100110010101010101010101010101010100",
"10101100001001010100001010101010101010101010101010",
"11010110010100101010010101010101010101010101010100",
"10101100001111111111111111111111111111111111111010",
"11010110011010101010101010101010101010101010100100",
"10101100001101010101010101010101010101010101010010",
"11011010011010111110111110111111101010101111100100",
"10111101001101111101111101111111010101011111010010",
"11011010101010101010101010101010101010101010100100",
"10100000001100000000000000000000000000000000000010",
"11010101011001111111111111111111111111111110100100",
"10101010101101110000000000000111111111111110110010",
"11010101011001111111111111111111111111111110100100",
"10101010101101110000000000111111111111111110110010",
"11010101011001111111111111111111111111111110100100",
"10101010101101111100000000001111000011111110110010",
"11010101011001111111111111111111111111111110100100",
"10101010101101111111110000111111111111111110110010",
"11010101011001111111111111111111111111111110100100",
"10101010101101111111110000111111111111111110110010",
"11010101011001111111111111111111111111111110100100",
"10101010101101111111110000000011111111111110110010",
"11010101011001111111111111111111111111111110100100",
"10101010101101111100000111111111111111111110110010",
"11010101011001111111111111111111111111111110100100",
"10101010101101110000000000111111111111111110110010",
"11010101011001111111111111111111111111111110100100",
"10101010101100000000000000000000000000000000010010",
"11010101011001111111111111111111111111111110100100",
"10101010101101010101010101010101010101010101010010",
"11010101010000000000000000000000000000000000000100",
"10101010101010101010101010101010101010101010101010",
"11010101010101010101010101010101010101010101010100",
"10101010101010101010101010101010101010101010101010",
"11010101010101010101010101010101010101010101010100",
"10101010101010101010101010101010101010101010101010",
"10000000000000000000000000000000000000000000000000"};
