/* XPM */
static char *image[] = {
"48 48 3 1",
"  c None",
"0 c #ffffff",
"1 c #000000",
"                 1111111111111                  ",
"                 1111111111111                  ",
"                 1111111111111                  ",
"               11111111111111111                ",
"             111111111111111111111              ",
"            11111111111111111111111             ",
"           1111111100001100011111111            ",
"          111111000000011000000111111           ",
"         11111000000000110000000011111          ",
"        1111100110000000000000110011111         ",
"       111110001100000000000001100011111        ",
"      11111000000000000000000000000011111       ",
"     1111100000000000000000000000000011111      ",
"     1111000000000000000000000000000001111      ",
"    111100000000000000000000001000000001111     ",
"    111101100000000000000000011100001101111     ",
"   11110011000000000000000001111000011001111    ",
"   11110000000000000000000011110000000001111    ",
"   11110000000000000000000111100000000001111    ",
"  1111000000000000000000011110000000000001111   ",
"  1111000000000000000000111100000000000001111   ",
"  1111000000000000000001111000000000000001111   ",
"  111100000000000000001111000000000000000111111 ",
"  111111100000000000001111000000000000111111111 ",
"  111111100000000000000111100000000000111111111 ",
"  111100000000000000000011110000000000000111111 ",
"  1111000000000000000000011110000000000001111   ",
"  1111000000000000000000001110000000000001111   ",
"  111110000000000000000000010000000000001111    ",
"   11110000000000000000000000000000000001111    ",
"   11110011000000000000000000000000011001111    ",
"    111101100000000000000000000000001101111     ",
"    111100000000000000000000000000000001111     ",
"     1111000000000000000000000000000001111      ",
"     111110000000000000000000000000001111       ",
"      11111000000000000000000000000011111       ",
"       111110001100000000000001100011111        ",
"        1111100110000000000000110011111         ",
"         11111000000000110000000011111          ",
"          111111000000011000000111111           ",
"           1111111100001100011111111            ",
"            11111111111111111111111             ",
"             111111111111111111111              ",
"               11111111111111111                ",
"                 1111111111111                  ",
"                 1111111111111                  ",
"                 1111111111111                  ",
"                 1111111111111                  "};
