/* XPM */
static char *image[] = {
"48 32 3 1",
"  c None",
"0 c #ffffff",
"1 c #000000",
"                                                ",
"                                                ",
"           1111                  1111           ",
"         11111111              11111111         ",
"        1110000111            1110000111        ",
"       110000000011          110000000011       ",
"      11000000000011        11000000000011      ",
"     1100000000000011      1100000000000011     ",
"    110000000000000011    110000000000000011    ",
"    110000000000000011    110000000000000011    ",
"    100000000000000001    100000000000000001    ",
"   11000000000000000011  11000000000000000011   ",
"   11000000000000000011  11000000000000000011   ",
"   11000000000000000011  11000000000000000011   ",
"   11000000000000000011  11000000000000000011   ",
"   11000000000000000011  11000000000000000011   ",
"   11000000000000000011  11000000000000000011   ",
"   11000000000011100011  11000000000000000011   ",
"   11000000000011100011  11000000000011100011   ",
"   11000000000011100011  11000000000011100011   ",
"   11000000000000000011  11000000000011100011   ",
"   1100000000000000001   1100000000000000001    ",
"    100000000000000011    100000000000000011    ",
"    10000000000000001     10000000000000001     ",
"    11000000000000011     11000000000000011     ",
"     110000000000001       110000000000001      ",
"      10000000000011        10000000000011      ",
"      1100000000011         1100000000011       ",
"       11100000111           11100000111        ",
"        111111111             111111111         ",
"         1111111                111111          ",
"                                                "};
