/* XPM */
static char *image[] = {
"16 16 70 2",
"   c None",
"00 c #181c10",
"10 c #909490",
"20 c #707068",
"30 c #807c70",
"40 c #686860",
"50 c #606058",
"60 c #202420",
"70 c #989890",
"80 c #302c20",
"90 c #383028",
":0 c #585850",
";0 c #a09c90",
"A0 c #504430",
"B0 c #585448",
"C0 c #b0b4b0",
"D0 c #d0d4d0",
"E0 c #302820",
"F0 c #d8d4d0",
"G0 c #303430",
"H0 c #181410",
"I0 c #d0d0c8",
"J0 c #d0d0d0",
"K0 c #b8bcb0",
"L0 c #c0c0b8",
"M0 c #484430",
"N0 c #403828",
"O0 c #383838",
"P0 c #605c50",
"Q0 c #201810",
"R0 c #686458",
"S0 c #b0aca8",
"T0 c #303020",
"U0 c #b0b0a8",
"V0 c #504838",
"W0 c #403c28",
"X0 c #201c10",
"Y0 c #000000",
"Z0 c #101010",
"a0 c #b8b8b0",
"b0 c #404030",
"c0 c #383020",
"d0 c #686450",
"e0 c #b8b4a8",
"f0 c #d8d8d0",
"g0 c #202010",
"h0 c #c0bcb8",
"i0 c #202018",
"j0 c #484030",
"k0 c #383428",
"l0 c #181810",
"m0 c #202020",
"n0 c #080808",
"o0 c #484c48",
"p0 c #080800",
"q0 c #000400",
"r0 c #282828",
"s0 c #101410",
"t0 c #181c18",
"u0 c #b0b0b0",
"v0 c #080c08",
"w0 c #181818",
"x0 c #606460",
"y0 c #888888",
"z0 c #909090",
"01 c #888c88",
"11 c #808480",
"21 c #b8b8b8",
"31 c #d8d8d8",
"41 c #585858",
"41414141414141414141414141414141",
"4131211101z0y0z01101z011x0w0v041",
"41u0t0w0t0s0t0s0r0t0s0r0v0q0p041",
"41o0n0t0m0m0l0k0j0k0i0k0i0h0l041",
"41m0n0g0k0j0k0f0e0d0c0b0c0a0Z041",
"41s0Y0X0W0V0U0T0k0S0R0k0i0h0l041",
"41r0q0Q0c0S0P0j0k0i0f0k0i0a0Z041",
"41O0q0k0R0a0N0M0W0c0f0W0c0h0l041",
"41m0q0W0L0K0T0k0j0k0J0S0i0I0H041",
"41G0q0F0h0a0i0W0V0W0F0K0S0a0Z041",
"41r0q0k0U0a0j0T0T0E0D0C0B0h0l041",
"41r0q0N0A0a0A0b0c0W0f0R0c0;0t041",
"41O0q0c0k0:0c09080c0k09080706041",
"41r0q050:0405050304050502010q041",
"4100s0s0p0s0s0s000s0s0s0t0n0Z041",
"41414141414141414141414141414141"};
