<svg width="4096" height="2160" version="1.1" viewBox="0 0 1083.7 571.5" xml:space="preserve" xmlns="http://www.w3.org/2000/svg" xmlns:xlink="http://www.w3.org/1999/xlink"><defs><style id="current-color-scheme" type="text/css">
      .ColorScheme-Text {
        color:#232629;
      }
      </style><style type="text/css">
      .ColorScheme-Text {
        color:#232629;
      }
      </style><linearGradient id="linearGradient15" x1="-2384.6" x2="3468.4" y1="12.51" y2="12.51" gradientUnits="userSpaceOnUse"><stop stop-color="#ff7f2a" offset="0"/><stop stop-color="#7a38ee" offset=".4972"/><stop stop-color="#d92aff" offset="1"/></linearGradient></defs><g transform="translate(2384.6 273.24)"><path d="m-2384.6-273.24h1083.7v1e-5 571.5 1e-5h-1083.7v-1e-5 -571.5-1e-5z" fill="url(#linearGradient15)" stroke-linecap="round" stroke-linejoin="round" stroke-width="1.0583" style="paint-order:stroke fill markers"/><g transform="matrix(.69558 0 0 .69558 -564.6 3.8083)"><g transform="translate(62.287 -15.106)"><g transform="matrix(.61801 0 0 .61801 -1010 7.6212)" stroke-width="2.0373"><path d="m-1377.9 79.496c2.0562 10.685-4.8606 18.148-11.447 15.164-61.669-27.952-73.678-32.566-131.57-59.532-5.7372-2.6717-12.195-11.429-1.9157-16.096 54.599-24.782 75.549-36.109 103.12-48.475 7.0355-3.1545 15.041 2.8282 16.865 10.311 9.9507 40.776 14.623 58.179 24.949 98.627zm-98.444-182.86c-1.9692-10.008-8.3753-15.858-18.019-15.858h-70.097c-7.2334 0-11.722 2.9013-12.468 9.2224-1.979 16.739 5.668 240.66 6.1192 240.93 0.3701 14.512 14.938 12.844 20.921 12.856 45.666 0.0931 117.1-0.0122 117.1-0.0122s64.912 3.3841 96.229-25.539c14.74-13.614 32.012-36.832 30.726-61.247-3.7879-71.994-78.472-121.06-153.94-118.63-5.1594 0.16624-8.4209-3.214-10.592-8.2488-1.8979-10.099-4.2905-24.894-5.9807-33.483z" fill="none"/><path d="m-1811.2 79.506c-2.0542 10.685 4.8526 18.15 11.431 15.164 61.581-27.954 73.577-32.568 131.38-59.534 5.7293-2.6737 12.177-11.431 1.9138-16.098-54.524-24.784-75.443-36.111-102.97-48.477-7.0255-3.1566-15.019 2.8282-16.844 10.311-9.9387 40.78-14.604 58.183-24.914 98.633zm98.307-182.87c1.9652-10.01 8.3634-15.858 17.994-15.858h69.999c7.2236 0 11.706 2.9013 12.452 9.2224 1.9751 16.739-5.66 240.66-6.1113 240.95-0.3681 14.512-14.916 12.844-20.892 12.856-45.601 0.0931-116.93-0.0122-116.93-0.0122s-64.822 3.3841-96.095-25.541c-14.72-13.615-31.967-36.834-30.686-61.249 3.7838-71.998 78.364-121.06 153.72-118.63 5.1515 0.16624 8.4109-3.214 10.576-8.2488 1.896-10.099 4.2867-24.894 5.9748-33.485z" fill="none"/><path d="m-1694.9-120.44c-5.0628 0-9.3984 1.5616-12.682 4.4839-3.2837 2.9223-5.4906 7.1541-6.513 12.361-1.6876 8.5884-4.0558 23.241-5.9409 33.308-1.0268 2.3628-2.2813 4.2842-3.7879 5.5506-1.5253 1.2821-3.2776 1.9644-5.5777 1.8902-37.957-1.2241-75.693 10.504-104.47 31.641-28.775 21.137-48.606 51.747-50.521 88.153-0.7222 13.748 4.2477 26.998 11.329 38.442 0.6251 1.383 1.2646 2.7807 2.153 4.3716 13.246 23.716 20.931 39.589 42.208 57.616 32.588 27.607 44.429 27.784 75.567 27.776 44.682-0.0122 71.346-0.0122 116.94 0 3.1541 1e-3 8.2699-0.78258 12.771-3.498 4.5012-2.7155 8.3335-7.4878 8.5036-15.063l5.4076-240.66v-0.03093s-0.6202-13.436-1.4263-27.088c-0.038-4.0746-0.1117-7.4012-0.2938-8.9443-0.4039-3.4224-1.9013-6.1125-4.3021-7.8311-2.4007-1.7187-5.5899-2.47-9.3656-2.47zm0 2.4468h70.001c3.4479 0 6.1104 0.70166 7.9432 2.0138 1.8328 1.3122 2.9512 3.2317 3.2932 6.1304 0.2229 1.889 0.3337 7.2874 0.3131 15.001-0.021 7.714-0.1562 17.828-0.3788 29.5-0.4449 23.345-1.2282 52.912-2.0872 81.964-0.859 29.054-1.795 57.596-2.5433 78.888-0.3742 10.646-0.7029 19.479-0.9509 25.658-0.1241 3.0893-0.2293 5.5133-0.3092 7.1664-0.04 0.82648-0.074 1.4625-0.1007 1.8824-7e-4 0.0102 7e-4 0.0122 0 0.0232l-0.046 0.0271-0.016 0.66485c-0.087 3.423-0.9867 5.7398-2.3115 7.3943-1.3248 1.6544-3.127 2.6878-5.1796 3.3358-4.1051 1.2958-9.0794 0.92535-12.184 0.93153-45.596 0.0931-116.93-0.0122-116.93-0.0122h-0.031l-0.031 4e-3s-16.097 0.83575-36.09-1.9172c-19.992-2.7528-43.802-9.1397-59.112-23.3-14.56-13.468-31.543-36.488-30.292-60.287 1.8706-35.591 21.222-65.517 49.522-86.306 28.3-20.788 65.538-32.377 102.94-31.17 2.8513 0.09202 5.3024-0.83706 7.2358-2.4623 1.9335-1.6252 3.3756-3.8977 4.5069-6.5285l0.05-0.12368 0.027-0.13142c1.9015-10.129 4.2929-24.932 5.9719-33.477 0.9428-4.8027 2.922-8.5004 5.7361-11.005s6.4878-3.8653 11.055-3.8653zm-78.531 86.479c-0.4997 3.97e-4 -0.9988 0.03582-1.492 0.10054-1.9727 0.25894-3.8749 1.0151-5.5622 2.122-3.3746 2.2141-5.9966 5.8077-6.9885 9.8759v0.0039c-9.9369 40.772-14.6 58.165-24.912 98.621l-0.015 0.06967c-1.0852 5.6443 0.1664 10.548 2.7289 13.71s6.6236 4.5171 10.409 2.7984c61.573-27.95 73.583-32.566 131.4-59.538 3.1695-1.4791 6.3935-4.4478 7.5955-8.0206 0.6009-1.7864 0.6393-3.7834-0.2667-5.6203-0.9061-1.8368-2.6858-3.4345-5.427-4.6809-54.504-24.773-75.406-36.095-102.98-48.479-1.4756-0.66299-2.9924-0.96364-4.4916-0.96248zm19.404 53.538c1.7659-0.05403 3.5816 0.28491 5.3381 1.0746 16.496 7.4094 28.673 12.968 51.022 24.219-27.76 12.731-50.162 22.673-80.913 36.5 6.8776-26.124 7.6936-30.354 13.049-52.33 1.3685-5.6121 6.2056-9.3041 11.503-9.4662z" fill="#f9f9f9" fill-rule="evenodd"/><path d="m-1564.5-120.44c-3.7804 0-6.9736 0.75143-9.3772 2.47-2.4036 1.7185-3.902 4.4085-4.306 7.8311-0.2715 2.296-0.3531 7.5579-0.3324 15.295 0.01 2.3688 0.088 6.2522 0.1159 9.0449-0.3402 6.8687-0.545 11.731-0.545 11.731l5.4153 240.62c0.3265 14.534 14.359 17.624 20.343 17.622 45.654-0.0122 72.356-0.0122 117.1 0 31.183 8e-3 42.502-0.0143 75.05-27.548 20.349-17.214 28.247-32.55 40.597-54.756 9.329-12.779 16.656-28.477 15.79-44.938-1.9153-36.404-21.774-67.008-50.59-88.145-28.815-21.135-66.601-32.868-104.61-31.641-2.3044 0.07422-4.0617-0.60401-5.5893-1.8863-1.5107-1.2681-2.7654-3.1949-3.7957-5.5622-1.8869-10.065-4.2557-24.71-5.9448-33.295-1.0244-5.2065-3.2327-9.4392-6.5207-12.361-3.288-2.9223-7.6319-4.4839-12.702-4.4839zm0 2.4468h70.097c4.5743 0 8.2559 1.3644 11.074 3.8692 2.8184 2.5048 4.7992 6.1991 5.7439 11.001 1.6809 8.5425 4.0762 23.345 5.9796 33.475l0.023 0.1353 0.054 0.12368c1.1343 2.6305 2.579 4.9035 4.5146 6.5285 1.9357 1.6249 4.3848 2.5503 7.2397 2.4584 37.453-1.2072 74.744 10.383 103.08 31.17 28.341 20.786 47.719 50.708 49.592 86.297 1.252 23.8-15.755 46.817-30.335 60.283-15.331 14.16-39.173 20.552-59.193 23.305-20.021 2.7528-36.142 1.9133-36.142 1.9133h-0.066s-71.433 0.10451-117.1 0.0122c-3.1071-6e-3 -8.0877 0.36068-12.199-0.93542-2.0556-0.64804-3.8566-1.6812-5.1835-3.3358-1.3267-1.6545-2.2279-3.9715-2.3153-7.3943l-0.016-0.66484-0.05-0.031c-5e-4 -8e-3 6e-4 -0.0102 0-0.0204-0.027-0.41993-0.06-1.0521-0.1004-1.8786-0.08-1.6529-0.185-4.0809-0.3092-7.1702-0.2483-6.1785-0.5762-15.009-0.9509-25.654-0.7494-21.29-1.6831-49.828-2.5433-78.88-0.8604-29.052-1.6457-58.617-2.0911-81.96-0.2228-11.672-0.3621-21.791-0.3827-29.504-0.021-7.7136 0.094-13.109 0.317-14.997 0.3421-2.8982 1.4615-4.818 3.2971-6.1304 1.8356-1.3124 4.5018-2.0138 7.9548-2.0138zm148.75 86.475c-1.5011-9.7e-4 -3.0219 0.30009-4.4991 0.96248-27.609 12.384-48.54 23.702-103.12 48.475-2.745 1.2462-4.527 2.8441-5.4346 4.6809-0.9076 1.837-0.8687 3.8374-0.2668 5.6241 1.2039 3.573 4.4336 6.5389 7.6071 8.0167 57.898 26.972 69.916 31.59 131.58 59.538 3.7894 1.7171 7.855 0.3631 10.421-2.7984 2.566-3.1617 3.8191-8.0658 2.7329-13.71l-0.01-0.03859-0.01-0.03484c-10.325-40.454-14.994-57.847-24.942-98.617-0.9922-4.0689-3.6213-7.6624-7.0002-9.8759-1.6893-1.1068-3.5911-1.8631-5.566-2.122-0.4937-0.06472-0.9916-0.10013-1.492-0.10054zm-19.435 53.534c5.3041 0.16386 10.149 3.8541 11.519 9.4662 5.3389 21.872 6.2614 26.479 13.061 52.283-32.713-14.703-52.342-23.321-81.021-36.453 22.382-11.253 34.577-16.814 51.095-24.223 1.7584-0.78865 3.5777-1.1253 5.3458-1.0707z" fill="#f9f9f9" fill-rule="evenodd"/></g><path class="ColorScheme-Text" d="m-1684.6-66.814v23.809h-11.905v11.904h-11.905v11.904h-11.901v11.905h-23.81v-11.905h-11.905v-35.713h-11.905v23.809h-11.905v23.809h-11.901v11.904h11.901v23.809h11.905v11.904h11.905v-23.809h11.905v-11.904h23.81v11.904h11.901v11.905h11.905v11.904h11.905v23.809h11.905v-11.905h11.905v-23.808h11.905v-11.905h11.901v-11.904h11.905v-11.904h-11.905v-11.905h-11.901v-11.904h-11.905v-23.809h-11.905v-11.904z" fill="#fff"/><path d="m-1764.9 120.95-2.6293-8.632h-13.221l-2.6293 8.632h-8.2848l12.799-36.413h9.401l12.849 36.413zm-4.4649-15.081-2.6293-8.4336q-0.248-0.84336-0.6697-2.158-0.3969-1.3395-0.8185-2.7037-0.3969-1.3891-0.645-2.4061-0.248 1.017-0.6945 2.5301-0.4217 1.4883-0.8185 2.8277-0.3969 1.3395-0.5706 1.91l-2.6044 8.4336zm42.168-12.65v27.732h-5.8043l-1.017-3.5471h-0.3969q-0.8929 1.4139-2.2324 2.3068-1.3394 0.89297-2.9517 1.3146t-3.3487 0.42168q-2.9765 0-5.1842-1.0418-2.2076-1.0666-3.4478-3.299-1.2154-2.2324-1.2154-5.8043v-18.083h7.5654v16.197q0 2.9766 1.0666 4.4896 1.0666 1.5131 3.3982 1.5131 2.3069 0 3.6215-1.0418 1.3147-1.0666 1.8356-3.1006 0.5457-2.0588 0.5457-5.0106v-13.047zm16.718 28.228q-4.6385 0-7.5655-3.6215-2.9021-3.6463-2.9021-10.691 0-7.1189 2.9517-10.765 2.9518-3.6711 7.7143-3.6711 1.9844 0 3.4975 0.5457 1.513 0.5457 2.6044 1.4635 1.1163 0.91777 1.8852 2.0588h0.2481q-0.1489-0.79375-0.3721-2.3316-0.1985-1.5627-0.1985-3.1998v-8.8801h7.5903v38.596h-5.8043l-1.4635-3.5967h-0.3225q-0.7193 1.141-1.8107 2.0836-1.0666 0.91777-2.5549 1.4635-1.4883 0.54571-3.4974 0.54571zm2.6541-6.0275q3.1005 0 4.3656-1.8356 1.2898-1.8604 1.3642-5.581v-0.81856q0-4.0432-1.2402-6.1764-1.2402-2.158-4.6137-2.158-2.5052 0-3.9191 2.158-1.4139 2.158-1.4139 6.226t1.4139 6.1268q1.4387 2.0588 4.0432 2.0588zm28.277-22.2v27.732h-7.5654v-27.732zm-3.7703-10.864q1.6867 0 2.9021 0.79375 1.2155 0.76894 1.2155 2.9021 0 2.1084-1.2155 2.927-1.2154 0.79375-2.9021 0.79375-1.7115 0-2.927-0.79375-1.1906-0.81856-1.1906-2.927 0-2.1332 1.1906-2.9021 1.2155-0.79375 2.927-0.79375zm36.909 24.681q0 3.4727-0.9426 6.1516-0.9178 2.6789-2.7037 4.5392-1.7611 1.8356-4.2664 2.7781-2.4805 0.94258-5.6059 0.94258-2.9269 0-5.3826-0.94258-2.4309-0.94258-4.2416-2.7781-1.7859-1.8604-2.7781-4.5392-0.9674-2.6789-0.9674-6.1516 0-4.6137 1.6371-7.8135 1.6371-3.1998 4.6633-4.8617t7.2181-1.6619q3.8944 0 6.8957 1.6619 3.0262 1.6619 4.7377 4.8617 1.7364 3.1998 1.7364 7.8135zm-19.174 0q0 2.7285 0.5954 4.5889 0.5953 1.8604 1.8603 2.8029 1.2651 0.94258 3.299 0.94258 2.0092 0 3.2495-0.94258 1.265-0.94258 1.8355-2.8029 0.5953-1.8604 0.5953-4.5889 0-2.7533-0.5953-4.5641-0.5705-1.8356-1.8355-2.7533-1.2651-0.91777-3.2991-0.91777-3.0013 0-4.3656 2.0588-1.3395 2.0588-1.3395 6.1764z" fill="#f9f9f9" stroke-width=".26458" aria-label="Audio"/></g></g></g></svg>
