<?xml version="1.0" encoding="UTF-8"?>
<svg version="1.1" viewBox="0 0 384 384" xml:space="preserve" xmlns="http://www.w3.org/2000/svg"><path d="m192.1 127.9c-35.513 0-64.104 28.59-64.104 64.104s28.59 64.104 64.104 64.104h148.97c16.565 0 31.574-6.2741 42.928-16.516v-95.176c-11.353-10.242-26.363-16.516-42.928-16.516h-148.97z" fill="#1e1e1e" stroke-width="3.858"/><g transform="matrix(.63356 0 0 .63356 260.98 86.387)" fill-rule="evenodd"><path d="m70.198 189.84c1.0093 5.2447-2.3858 8.9079-5.6186 7.443-30.27-13.72-36.165-15.985-64.579-29.221-2.8161-1.3114-5.9858-5.6099-0.94033-7.9005 26.8-12.164 37.083-17.724 50.614-23.794 3.4534-1.5484 7.3827 1.3882 8.2784 5.0611 4.8843 20.015 7.1778 28.557 12.246 48.411zm-48.321-89.756c-0.96656-4.9124-4.111-7.7839-8.8447-7.7839h-34.407c-3.5505 0-5.7537 1.4241-6.1199 4.5268-0.97141 8.2162 2.7821 118.13 3.0036 118.26 0.18166 7.1234 7.3322 6.3045 10.269 6.3103 22.415 0.0457 57.478-6e-3 57.478-6e-3s31.862 1.6611 47.234-12.536c7.2351-6.6824 15.713-18.079 15.082-30.063-1.8593-35.338-38.518-59.421-75.559-58.228-2.5325 0.0816-4.1334-1.5776-5.199-4.0489-0.93159-4.9571-2.106-12.219-2.9356-16.435z" fill="#1e1e1e"/><path d="m-142.5 189.84c-1.0083 5.2447 2.3819 8.9088 5.6109 7.443 30.227-13.721 36.115-15.986 64.489-29.222 2.8122-1.3124 5.9771-5.6109 0.93936-7.9015-26.763-12.165-37.031-17.725-50.543-23.795-3.4485-1.5494-7.3721 1.3882-8.2677 5.0611-4.8784 20.017-7.1681 28.559-12.229 48.414zm48.254-89.761c0.96461-4.9134 4.1052-7.7839 8.8321-7.7839h34.359c3.5457 0 5.7459 1.4241 6.1121 4.5268 0.96947 8.2162-2.7782 118.13-2.9997 118.27-0.18068 7.1234-7.3215 6.3045-10.255 6.3103-22.383 0.0457-57.397-6e-3 -57.397-6e-3s-31.818 1.6611-47.168-12.537c-7.2254-6.6831-15.691-18.08-15.062-30.064 1.8573-35.34 38.465-59.424 75.455-58.231 2.5286 0.0816 4.1285-1.5776 5.1912-4.0489 0.93061-4.9571 2.1041-12.219 2.9327-16.436z" fill="#1e1e1e"/><path d="m-85.417 91.698c-2.4851 0-4.6132 0.76649-6.225 2.2009-1.6118 1.4344-2.6951 3.5116-3.1969 6.0675-0.82837 4.2156-1.9908 11.408-2.9161 16.349-0.50401 1.1598-1.1198 2.1029-1.8593 2.7245-0.74871 0.62931-1.6088 0.96422-2.7378 0.92778-18.631-0.60085-37.154 5.1561-51.278 15.531-14.124 10.375-23.858 25.4-24.798 43.27-0.35445 6.7482 2.085 13.252 5.561 18.869 0.30684 0.67884 0.6207 1.3649 1.0568 2.1458 6.5016 11.641 10.274 19.432 20.718 28.281 15.996 13.551 21.808 13.638 37.092 13.634 21.932-6e-3 35.02-6e-3 57.399 0 1.5482 5.2e-4 4.0593-0.38413 6.2686-1.717 2.2094-1.3329 4.0905-3.6754 4.174-7.3938l2.6543-118.13v-0.0152s-0.30443-6.5952-0.7001-13.296c-0.0185-2-0.0548-3.6329-0.14419-4.3903-0.19829-1.6799-0.93326-3.0003-2.1117-3.8439-1.1784-0.84364-2.7438-1.2124-4.5971-1.2124zm0 1.201h34.36c1.6924 0 2.9993 0.34441 3.8989 0.98849 0.89967 0.64407 1.4486 1.5863 1.6165 3.0091 0.10941 0.92721 0.1638 3.577 0.15369 7.3634-0.0101 3.7864-0.0767 8.7508-0.18594 14.48-0.2184 11.459-0.60286 25.972-1.0245 40.232-0.42167 14.261-0.88111 28.271-1.2484 38.722-0.18365 5.2255-0.34503 9.5613-0.46673 12.594-0.0609 1.5164-0.11256 2.7062-0.15179 3.5176-0.0196 0.40568-0.0361 0.71786-0.0494 0.92398-3.4e-4 5e-3 3.3e-4 6e-3 0 0.0114l-0.0227 0.0133-8e-3 0.32634c-0.0426 1.6802-0.48433 2.8174-1.1346 3.6295-0.65025 0.81209-1.5349 1.3193-2.5424 1.6374-2.015 0.63604-4.4566 0.45421-5.9803 0.45724-22.381 0.0457-57.395-6e-3 -57.395-6e-3h-0.0152l-0.0152 2e-3s-7.9014 0.41023-17.715-0.94106c-9.8133-1.3512-21.5-4.4862-29.015-11.437-7.1469-6.6109-15.483-17.91-14.869-29.592 0.91818-17.47 10.417-32.159 24.308-42.363s32.169-15.892 50.527-15.3c1.3996 0.0452 2.6027-0.41087 3.5517-1.2086 0.94907-0.79771 1.6569-1.9132 2.2122-3.2045l0.02466-0.0607 0.01328-0.0645c0.93335-4.9717 2.1072-12.238 2.9313-16.432 0.46281-2.3574 1.4343-4.1724 2.8156-5.4016s3.1845-1.8973 5.4263-1.8973zm-38.547 42.448c-0.24528 2e-4 -0.49028 0.0176-0.73235 0.0494-0.96831 0.1271-1.902 0.49824-2.7302 1.0416-1.6564 1.0868-2.9434 2.8507-3.4303 4.8476v2e-3c-4.8775 20.013-7.1665 28.55-12.228 48.408l-8e-3 0.0342c-0.53264 2.7705 0.0817 5.1776 1.3395 6.7297s3.2512 2.2172 5.1094 1.3736c30.223-13.719 36.118-15.985 64.497-29.224 1.5557-0.726 3.1382-2.1832 3.7282-3.9369 0.29498-0.87686 0.31381-1.8571-0.13091-2.7587-0.44473-0.90159-1.3183-1.6858-2.6638-2.2976-26.753-12.16-37.013-17.717-50.546-23.796-0.72431-0.32543-1.4688-0.473-2.2047-0.47243zm9.5244 26.279c0.86677-0.0265 1.758 0.13985 2.6202 0.52745 8.0969 3.6369 14.074 6.3654 25.044 11.888-13.626 6.2488-24.622 11.129-39.716 17.916 3.3759-12.823 3.7764-14.899 6.4053-25.686 0.67173-2.7547 3.046-4.5669 5.6463-4.6465z" fill="#fff"/><path d="m-21.372 91.698c-1.8556 0-3.423 0.36884-4.6028 1.2124-1.1798 0.84353-1.9153 2.1639-2.1136 3.8439-0.13325 1.127-0.17329 3.7098-0.16316 7.5076 3e-3 1.1627 0.0434 3.0689 0.0569 4.4397-0.16699 3.3715-0.26752 5.7583-0.26752 5.7583l2.6581 118.11c0.16028 7.134 7.0479 8.6507 9.9854 8.6498 22.409-6e-3 35.516-6e-3 57.478 0 15.306 4e-3 20.862-7e-3 36.838-13.522 9.9882-8.4495 13.865-15.977 19.927-26.877 4.5791-6.2724 8.1755-13.978 7.7504-22.058-0.94013-17.869-10.688-32.891-24.832-43.266-14.144-10.374-32.691-16.133-51.348-15.531-1.1311 0.0364-1.9937-0.29648-2.7435-0.92588-0.74154-0.62246-1.3574-1.5682-1.8631-2.7302-0.92622-4.9403-2.0889-12.129-2.918-16.343-0.50282-2.5556-1.5868-4.6332-3.2007-6.0675-1.6139-1.4344-3.7461-2.2009-6.2345-2.2009zm0 1.201h34.407c2.2453 0 4.0524 0.66972 5.4357 1.8992 1.3834 1.2295 2.3557 3.0428 2.8194 5.3997 0.82509 4.1931 2.0008 11.459 2.9351 16.431l0.0114 0.0664 0.0266 0.0607c0.55678 1.2912 1.2659 2.4069 2.216 3.2045 0.95015 0.7976 2.1523 1.2518 3.5536 1.2067 18.384-0.59254 36.688 5.0965 50.599 15.3 13.911 10.203 23.423 24.89 24.342 42.359 0.61456 11.682-7.7332 22.98-14.89 29.59-7.5252 6.9502-19.228 10.088-29.055 11.439-9.8275 1.3512-17.74 0.93916-17.74 0.93916h-0.0322s-35.063 0.0513-57.477 6e-3c-1.5251-3e-3 -3.9698 0.17704-5.9879-0.45915-1.009-0.31809-1.893-0.82524-2.5443-1.6374-0.65125-0.81213-1.0936-1.9494-1.1365-3.6295l-8e-3 -0.32634-0.0247-0.0152c-2.7e-4 -4e-3 2.9e-4 -5e-3 0-0.01-0.0132-0.20612-0.0297-0.51643-0.0493-0.92209-0.0392-0.81131-0.0908-2.0031-0.15179-3.5195-0.12186-3.0327-0.28282-7.3671-0.46673-12.592-0.36782-10.45-0.82613-24.458-1.2484-38.718-0.42229-14.26-0.80776-28.772-1.0264-40.23-0.10934-5.729-0.17775-10.696-0.18783-14.482-0.0101-3.7862 0.046-6.4345 0.15557-7.3615 0.16792-1.4226 0.71741-2.3649 1.6184-3.0091 0.90099-0.64419 2.2097-0.98849 3.9046-0.98849zm73.012 42.446c-0.73681-4.7e-4 -1.4833 0.1473-2.2084 0.47243-13.552 6.0789-23.826 11.634-50.616 23.794-1.3474 0.61169-2.2221 1.396-2.6676 2.2976-0.44548 0.90167-0.42637 1.8836-0.13092 2.7606 0.5909 1.7538 2.1762 3.2096 3.7339 3.935 28.419 13.239 34.318 15.506 64.584 29.224 1.86 0.84282 3.8556 0.17823 5.1151-1.3736 1.2595-1.5519 1.8746-3.9591 1.3414-6.7297l-4e-3 -0.0189-4e-3 -0.0171c-5.0682-19.857-7.3597-28.394-12.243-48.406-0.48701-1.9972-1.7775-3.7611-3.436-4.8476-0.82923-0.54325-1.7627-0.9145-2.7321-1.0416-0.24234-0.0318-0.48674-0.0491-0.73235-0.0494zm-9.5396 26.277c2.6035 0.0804 4.9815 1.8918 5.6539 4.6465 2.6206 10.736 3.0734 12.997 6.411 25.663-16.057-7.2172-25.692-11.447-39.769-17.893 10.986-5.5234 16.972-8.2533 25.08-11.89 0.8631-0.38711 1.7561-0.55236 2.624-0.52555z" fill="#fff"/></g></svg>
