/* XPM */
static char * dynetux_xpm[] = {
"80 80 225 2",
"  	c None",
". 	c #000001",
"+ 	c #020309",
"@ 	c #080708",
"# 	c #171718",
"$ 	c #090503",
"% 	c #444344",
"& 	c #69696B",
"* 	c #333333",
"= 	c #525252",
"- 	c #807F81",
"; 	c #4A4A4A",
"> 	c #201F1F",
", 	c #0B0B0B",
"' 	c #403F41",
") 	c #3B3A3C",
"! 	c #1B1B1B",
"~ 	c #121213",
"{ 	c #0E0E10",
"] 	c #232323",
"^ 	c #272728",
"/ 	c #7A7A7B",
"( 	c #3C404E",
"_ 	c #737373",
": 	c #A3A3A3",
"< 	c #999686",
"[ 	c #F6F7F9",
"} 	c #DCDCDC",
"| 	c #4A4A45",
"1 	c #E3E3E3",
"2 	c #F0F0EF",
"3 	c #FEFEFE",
"4 	c #B3B3B4",
"5 	c #ECECEC",
"6 	c #B0AFAE",
"7 	c #E7E2DE",
"8 	c #787675",
"9 	c #6F6F70",
"0 	c #888789",
"a 	c #C4C4C4",
"b 	c #D7D7D8",
"c 	c #8C8C8B",
"d 	c #CBCBCB",
"e 	c #030717",
"f 	c #7D83A7",
"g 	c #797B87",
"h 	c #887C67",
"i 	c #8E6F0D",
"j 	c #986705",
"k 	c #896203",
"l 	c #7D6826",
"m 	c #BCBBBB",
"n 	c #DFE1E8",
"o 	c #2B2B2B",
"p 	c #563804",
"q 	c #BA8507",
"r 	c #FBC40B",
"s 	c #FED40C",
"t 	c #E4AA0A",
"u 	c #C59804",
"v 	c #EAC817",
"w 	c #8D5F16",
"x 	c #140D02",
"y 	c #383942",
"z 	c #E8EBF5",
"A 	c #BDC0C8",
"B 	c #D0A651",
"C 	c #D49402",
"D 	c #F4B904",
"E 	c #EDBA0B",
"F 	c #E8C707",
"G 	c #EED125",
"H 	c #F6D626",
"I 	c #FBDC0E",
"J 	c #D9B506",
"K 	c #CBB053",
"L 	c #EBD495",
"M 	c #403D39",
"N 	c #755411",
"O 	c #F7D814",
"P 	c #F7DA46",
"Q 	c #F6D739",
"R 	c #FFE211",
"S 	c #FFE105",
"T 	c #F3CC02",
"U 	c #BA950C",
"V 	c #0B0805",
"W 	c #C88A05",
"X 	c #D59A09",
"Y 	c #ECB30B",
"Z 	c #F0B60B",
"` 	c #C8A90B",
" .	c #C7A813",
"..	c #D8A808",
"+.	c #180E05",
"@.	c #D19408",
"#.	c #E8AD0A",
"$.	c #E3C501",
"%.	c #C28808",
"&.	c #E4A502",
"*.	c #C18608",
"=.	c #684404",
"-.	c #F3C90D",
";.	c #B37906",
">.	c #D18F06",
",.	c #D89D09",
"'.	c #363638",
").	c #5D5D61",
"!.	c #93691D",
"~.	c #AA7506",
"{.	c #BBA40B",
"].	c #B97E08",
"^.	c #C79938",
"/.	c #C6B996",
"(.	c #9C9C9C",
"_.	c #989AA3",
":.	c #875605",
"<.	c #AC6F02",
"[.	c #CD9209",
"}.	c #BC8412",
"|.	c #BAA176",
"1.	c #B9BEC9",
"2.	c #C8CBD6",
"3.	c #D2D2D3",
"4.	c #CFD2D9",
"5.	c #B4A792",
"6.	c #B27604",
"7.	c #A36B05",
"8.	c #B38633",
"9.	c #B5B1AA",
"0.	c #C3C6CB",
"a.	c #A6906E",
"b.	c #9B815A",
"c.	c #AE8F5D",
"d.	c #BABCC3",
"e.	c #F4F4F3",
"f.	c #E5E7E9",
"g.	c #D6CBB3",
"h.	c #A2A09B",
"i.	c #B7B7B7",
"j.	c #939293",
"k.	c #5A5A5A",
"l.	c #959598",
"m.	c #46443B",
"n.	c #ACACAC",
"o.	c #636364",
"p.	c #9C9578",
"q.	c #8C8871",
"r.	c #938C76",
"s.	c #F7CF10",
"t.	c #A29139",
"u.	c #E2E2FA",
"v.	c #D9C773",
"w.	c #C9C1A6",
"x.	c #FED300",
"y.	c #FFDB00",
"z.	c #AB952C",
"A.	c #D3BE5D",
"B.	c #EBCB00",
"C.	c #99916C",
"D.	c #FECD00",
"E.	c #A89430",
"F.	c #DBD0A2",
"G.	c #D9C45B",
"H.	c #EBC42E",
"I.	c #D5B214",
"J.	c #B8B081",
"K.	c #B09B2A",
"L.	c #DDDEE1",
"M.	c #88805B",
"N.	c #9C8C22",
"O.	c #8E7817",
"P.	c #8C8FA2",
"Q.	c #AEA37B",
"R.	c #D7DBF0",
"S.	c #BDC2E0",
"T.	c #878269",
"U.	c #726C58",
"V.	c #BDBDDA",
"W.	c #9298B2",
"X.	c #EDF0FA",
"Y.	c #D4C8A8",
"Z.	c #A29B6F",
"`.	c #D5B921",
" +	c #DEC34E",
".+	c #FDCD0C",
"++	c #BBA731",
"@+	c #9EA0B5",
"#+	c #545559",
"$+	c #A39E86",
"%+	c #DEC402",
"&+	c #D5C58D",
"*+	c #AEA05A",
"=+	c #E7D06F",
"-+	c #998D34",
";+	c #1E1505",
">+	c #39341F",
",+	c #3B3722",
"'+	c #F4BC0C",
")+	c #493404",
"!+	c #A88513",
"~+	c #272118",
"{+	c #332303",
"]+	c #E6B012",
"^+	c #C69125",
"/+	c #DDA309",
"(+	c #E1B037",
"_+	c #EEB200",
":+	c #5A4106",
"<+	c #D59B10",
"[+	c #CC9111",
"}+	c #E0AD11",
"|+	c #D8A72E",
"1+	c #251804",
"2+	c #D09B29",
"3+	c #B67D07",
"4+	c #E1A609",
"5+	c #BA8A2B",
"6+	c #E09D04",
"7+	c #AD8641",
"8+	c #794C00",
"9+	c #210E00",
"0+	c #838383",
"a+	c #49320D",
"b+	c #935E04",
"                                                                                                                                                                ",
"                                                                                                                                                                ",
"                                                                                                                                                                ",
"                                                                                                                                                                ",
"                                                                                                                                                                ",
"                                                                                                                                                                ",
"                                                                          . + . . @                                                                             ",
"                                                                      . + . + . . + . . .                                                                       ",
"                                                                    . + + . . . . . + # # .                                                                     ",
"                                                                  + . . . . $ + + . $ % & * .                                                                   ",
"                                                                . + + . . + + $ . . $ = - ; > $                                                                 ",
"                                                              + . . + . . + . . . . , ' ) ! ~ . +                                                               ",
"                                                              . @ . + . + . + . . . , { . . . + .                                                               ",
"                                                              + + . . . + . . . . + . . . . . . . +                                                             ",
"                                                            , . . $ , . . + . + . . . . ~ . . . . +                                                             ",
"                                                            , + . . { > . . . $ . @ > { ] ^ . . . +                                                             ",
"                                                            , . ] / ( ~ ~ . . . ] _ : : ) ~ , . + + ,                                                           ",
"                                                            @ , < [ } | . . . ! : 1 2 3 4 , . + . . ,                                                           ",
"                                                            @ ' 5 6 5 7 ~ . . 8 3 1 9 4 3 8 . . + + +                                                           ",
"                                                            @ 0 : @ & [ % @ , < 3 * . | a b $ . . + +                                                           ",
"                                                            { c & , * d ( . e f b . . # / 2 ~ . . + .                                                           ",
"                                                            > g c . + h i j k l m e . . 0 2 { . . . +                                                           ",
"                                                            ! % n o p q r s t u v w x y z 4 . . + + .                                                           ",
"                                                            ! + A B C D E F v G H I J K L M . + . . .                                                           ",
"                                                              @ N C t E E F O P Q I R S T U V . . + +                                                           ",
"                                                              p W X Y Z F F P P O R R `  ...+.. . . .                                                           ",
"                                                              p @.#.D Z $.G Q I R v u %.&.*.$ . . . .                                                           ",
"                                                              @ =.u r -.H O O F U ;.>.,.,.N . . = '.. .                                                         ",
"                                                              . ).!.~.`  .{.q ~.].C W ^./.(., . ) (.= $                                                         ",
"                                                              . _./.:.<...[.@.[.W }.|.1.2.3.* . $ 9 / , .                                                       ",
"                                                              . c 4.5.!.<.6.<.7.8.9.1.d z 3 c . . ~ ! . +                                                       ",
"                                                            . @ m b 0.m a.b.c.5.m d.3.3 3 3 e.^ . . . + . @                                                     ",
"                                                            . _ 3 f.m m 0.0.0.d.g.} [ 3 [ 3 3 h.. . . + . +                                                     ",
"                                                          , > f.3 3 3.4 m i.i.3.5 3 3 3 3 3 3 e.* . . . . . .                                                   ",
"                                                        . . h.3 3 3 [ b a d f.3 3 3 3 3 3 3 3 3 j.. + . . + +                                                   ",
"                                                        . * [ 3 3 3 3 3 [ 3 3 3 3 3 [ 3 3 3 [ 3 3., . . . + . .                                                 ",
"                                                      . . (.3 3 3 3 3 3 3 3 3 3 3 3 3 3 3 3 3 3 [ o . . $ + + . +                                               ",
"                                                    + . { a 3 3 3 3 3 3 e.3 3 3 3 3 3 3 3 3 [ 5 3 k.. . . . . . . +                                             ",
"                                                  + . . o 6 } e.e.3 [ f.7 7 2 3 3 [ 5 n } b 3.d f.l.. . . . . + . + .                                           ",
"                                                . . . . m.n.a 1 e.3 [ 5 1 e.3 3 [ 3 e.n d g.m i.m 2 o.. # ] . . + . .                                           ",
"                                                . . . . _ 1 [ 3 3 3 3 e.e.3 3 3 3 3 3 3 3 e.5 b m d 5 o . ] o , . . . +                                         ",
"                                              + $ ] . o 1 3 3 [ 5 p.q.r.9.[ d r.q.r.b [ 3 3 3 3 e.a 1 n.. . ~ o $ . . +                                         ",
"                                              . ] ! . h.3 3 [ 3 g.v s.s.t.u.v.-.s.F p.3 3 [ 3 3 3 [ d f.'.. $ ! ] . + . .                                       ",
"                                              , o . * e.3 3 3 3 w.T x.y.z.u.A.x.x.B.C.3 3 [ 3 3 3 3 e.e.j.. '.o ^ , . . +                                       ",
"                                              > ! . : 3 [ 3 3 z w.T D.x.E.u.A.x.x.B.q.z [ [ 3 [ 3 3 3 3 b , * o , o . . . .                                     ",
"                                            + o . ^ [ 3 3 z F.G.H.D.D.x.E.u.A.D.D.D.I.K J.2.[ 3 3 3 [ 3 [ o . . . o , . . +                                     ",
"                                            ~ > . c 3 3 z G.I.J y.x.D.x.E.u.A.D.D.x.S J J K.1.3 3 [ 3 3 3 k.. $ . > ! . . +                                     ",
"                                            ] , , L.3 [ v.x.M._.N.B.y.x.E.u.A.x.y.B.O.P.Q.S t.R.[ 3 3 3 3 / . . . ! ] . . . +                                   ",
"                                          + ] . % 3 3 0.v T p.3 S.T. .y.z.u.A.y.` U.V.3 w.y.J 8 [ 3 [ 3 3 j.. . . ! ! . . + .                                   ",
"                                          , ] . / 3 3 p.s.B.C.3 [ 3 W.I.K.u.G.{.f 3 [ [ /.x.$.m.3 [ [ [ 3 h.. . . ! , . + . .                                   ",
"                                        . , o . : 3 [ < -.B.C.3 3 X.Y.O z.u.G.$.Z.4.3 3 /.x.$.| [ 3 3 [ 3 n.. . . > , . + . $                                   ",
"                                      . . ~ * . m 3 [ V.`.x.r.3 b  +.+x.E.u.A.y.T ++h.u.w.S {.@+[ [ 3 [ 3 n.. . + > $ . . . +                                   ",
"                                      + . o #+. d 3 3 [ $+%+++&+O x.x.y.E.u.G.S y.y.F *+=+%+T.3 3 [ 3 [ 3 9.. . , ! . . + . .                                   ",
"                                      . . . '.~ b 3 [ 3 z r.{.$.$.$.$.$.-+u.*+B.$.$.B.%+{.T.R.3 3 [ [ [ 3 n.. . ] { $ . . . $                                   ",
"                                      + ;+V + ] } 3 3 3 [ [ @+m.>+,+,+,+q.3 c >+>+>+>+m.: [ 3 [ [ [ 3 3 3 c . > ! @ # > ! . .                                   ",
"                                      j '+J )++ : 3 3 3 3 3 [ 3 3 [ 1 [ 3 3 3 [ 3 3 3 3 [ 3 [ [ [ 3 3 [ 3 = . @ . . . , o = +                                   ",
"                                      Z r r r p + n.3 3 3 3 3 3 3 e.7 [ 3 3 [ 3 3 [ [ 3 [ 3 [ 3 3 3 L H.Q !+$ . . . . . ~ '.~+                                  ",
"                                    >.Y '+'+r r {+. l.3 3 [ 3 3 3 3 7 [ 3 3 3 [ 3 [ 3 [ [ [ [ 3 3 3 ]+D y.` + . + . . + ~ + U                                   ",
"                                  ^+/+Z '+'+'+.+..$ . & e.3 3 [ 3 [ 5 e.3 [ 3 [ [ [ [ [ 3 3 [ [ 3 3 (+_+.+~.+ . . . . . . :+s                                   ",
"                          <+@.[+[+}+Y '+'+'+'+'+s i . . | 7 3 3 3 3 3 3 [ [ [ 3 3 3 [ 3 [ [ 3 3 3 L.|+D '+q x + . + + + 1+..-.Y                                 ",
"                        ,.Z Y #.Y '+'+'+'+'+'+'+r .+)+. . ^ a 3 [ 3 [ 3 3 [ [ 3 3 [ 3 3 [ 3 3 3 L.d.|+_+#.C k 1+$ , 1+p W Z Z Y                                 ",
"                        t Z '+'+'+r '+'+'+'+'+'+'+s u . + . , : 3 [ 3 [ [ 3 3 [ [ [ [ [ 3 3 3 [ 2.1.2+_+Y X W q 7.j 3+@.#.Y '+'+                                ",
"                        4+Z '+'+'+'+r '+'+'+'+'+'+'+s :+. . . . 9.3 [ 3 [ 3 3 [ [ 3 [ 3 3 3 3 3 3.a ^.&.Y /+X C @.@.,.&.'+'+'+'+#.                              ",
"                        ,.'+'+'+'+'+'+'+'+'+'+'+'+'+.+J +.. . . * e.3 3 [ [ [ 3 [ 3 3 3 3 [ 3 3 L.2.5+C E Y /+/+/+/+t Z '+'+'+'+'+                              ",
"                        X Z '+'+'+'+'+'+'+r '+'+'+'+'+s i . . . # e.3 3 [ 3 [ 3 [ 3 3 [ 3 3 [ 3 [ l.j 6+Y '+Y Y #.Y Y '+'+'+'+'+'+'+                            ",
"                        @.Z '+'+'+'+'+'+'+'+'+'+'+r '+-..+)+. { l.3 3 3 3 3 3 [ 3 [ [ 3 [ 3 3 3 i.~ j #.Y '+'+'+'+'+'+'+'+'+'+'+'+'+'+'+                        ",
"                        @.#.'+'+'+'+'+'+'+'+'+'+'+'+'+Z s u h L.3 3 3 [ 3 [ 3 3 [ 3 [ 3 3 3 3 n.{ . ~.4+Z '+'+'+'+'+'+r '+'+'+'+'+'+'+'+                        ",
"                        @.Z '+'+'+'+'+'+'+'+'+'+'+'+'+'+'+-.7+[ 3 [ 3 3 [ 3 [ [ [ [ [ 3 3 [ q.. . ;+;.4+Z '+'+'+'+'+'+'+'+'+'+'+'+'+'+'+                        ",
"                        X '+'+'+'+'+'+'+'+'+'+'+'+'+'+'+Z F W C.3 3 3 3 3 3 [ 3 3 3 3 3 m % . . . 1+<.t D '+'+'+'+'+'+'+'+'+'+'+'+'+'+/+                        ",
"                        #.'+'+'+'+'+'+'+'+'+'+'+'+'+'+'+'+E t 8+& L.3 3 3 3 3 3 3 5 m k.. . . + . {+~./+Y '+'+'+'+'+'+'+'+'+'+'+'+#.                            ",
"                        #.'+'+'+r '+r '+'+'+'+'+'+'+'+'+'+Y /+6.9+~ = 8 j.c 0+9 m.] . . . . $ . . a+;./+'+'+'+'+'+'+'+'+'+'+'+4+                                ",
"                        X t #.Z Y Y '+'+'+'+'+'+'+'+'+'+'+Y /+6.p . . . . . . . . . . . . . + + + p ;.,.Y '+'+'+'+'+'+Z ]+]+                                    ",
"                          ;.].W @.X 6+t #.Y Z '+'+'+'+'+'+t W j =.$ . . + . + . . + + . . + . + . )+<.>.t Z '+'+'+Z ]+4+>.                                      ",
"                                7.<.6.6.*.>.,.4+Y '+'+Y #.@.6.:.p $ + . , ~ ~ ~ ~ { ~ { ~ , + + . )+b+].X t Y Z Y t @.*.                                        ",
"                                        :.b+7.].%.@.,.X %.~.:.=.                                    :.~.*.>.X @.[+*.~.                                          ",
"                                                                                                                                                                ",
"                                                                                                                                                                ",
"                                                                                                                                                                ",
"                                                                                                                                                                ",
"                                                                                                                                                                "};
