/* XPM */
static char *staticip[] = {
/* columns rows colors chars-per-pixel */
"64 64 257 2",
"   c #000000",
".  c #0d0a01",
"X  c #0b0b0b",
"o  c #070708",
"O  c #0e1417",
"+  c #100e0a",
"@  c #15130b",
"#  c #141413",
"$  c #14161a",
"%  c #15181c",
"&  c #181713",
"*  c #1a1a16",
"=  c #1b1b1b",
"-  c #1b1d20",
";  c #1c2022",
":  c #1f2529",
">  c #201e19",
",  c #271e17",
"<  c #22211c",
"1  c #2a2616",
"2  c #372f0c",
"3  c #352816",
"4  c #3d3204",
"5  c #27210a",
"6  c #232323",
"7  c #252628",
"8  c #292825",
"9  c #2b2b2b",
"0  c #272828",
"q  c #32312c",
"w  c #383424",
"e  c #313131",
"r  c #3a3930",
"t  c #3c3c3b",
"y  c #382b21",
"u  c #3f3f41",
"i  c #472a14",
"p  c #44390c",
"a  c #443818",
"s  c #573213",
"d  c #413c2b",
"f  c #75370f",
"g  c #564a15",
"h  c #4a4124",
"j  c #444238",
"k  c #524a28",
"l  c #514e3f",
"z  c #5e5121",
"x  c #575138",
"c  c #794211",
"v  c #7d4320",
"b  c #60562f",
"n  c #7c660b",
"m  c #6f622a",
"M  c #6d6235",
"N  c #434343",
"B  c #4b4b4b",
"V  c #4c4b41",
"C  c #4d4e51",
"Z  c #504f47",
"A  c #555449",
"S  c #535353",
"D  c #5b5b5b",
"F  c #595853",
"G  c #625e4b",
"H  c #65645c",
"J  c #726e58",
"K  c #626262",
"L  c #6b6b6b",
"P  c #6b6b64",
"I  c #71716b",
"U  c #797765",
"Y  c #737373",
"T  c #7b7b7b",
"R  c #787875",
"E  c #7d7d80",
"W  c #945f0a",
"Q  c #9a5114",
"!  c #844810",
"~  c #865233",
"^  c #9c611d",
"/  c #8a7519",
"(  c #857534",
")  c #907f39",
"_  c #877528",
"`  c #b14e0e",
"'  c #a84d11",
"]  c #ab5e34",
"[  c #ac672a",
"{  c #84794e",
"}  c #a47850",
"|  c #c85518",
" . c #c6661c",
".. c #c36430",
"X. c #d36424",
"o. c #d46c30",
"O. c #dd7d36",
"+. c #e27c32",
"@. c #ee6f37",
"#. c #e87a42",
"$. c #ff7b44",
"%. c #f87946",
"&. c #9f8b3b",
"*. c #9a852a",
"=. c #a48a14",
"-. c #b99d1b",
";. c #a58e27",
":. c #b59d37",
">. c #a8933c",
",. c #bba028",
"<. c #baa136",
"1. c #8b825c",
"2. c #998a4f",
"3. c #888368",
"4. c #868476",
"5. c #9f9362",
"6. c #989377",
"7. c #a7954b",
"8. c #a79255",
"9. c #a3996b",
"0. c #a39d7c",
"q. c #bba54c",
"w. c #b9a85c",
"e. c #aea375",
"r. c #bbab67",
"t. c #b9ac77",
"y. c #cdaf3d",
"u. c #d8945b",
"i. c #cf874e",
"p. c #d19777",
"a. c #c2ab47",
"s. c #c3ae59",
"d. c #c7b15a",
"f. c #c6b56b",
"g. c #c6b775",
"h. c #d3a072",
"j. c #d2be72",
"k. c #e78e45",
"l. c #ff8046",
"z. c #fe824a",
"x. c #f18744",
"c. c #ff8a55",
"v. c #ff8856",
"b. c #ff935c",
"n. c #f59359",
"m. c #e48f56",
"M. c #fd9462",
"N. c #fe9b6a",
"B. c #f99a64",
"V. c #e49765",
"C. c #e8a778",
"Z. c #fba065",
"A. c #ffaa7a",
"S. c #f8a474",
"D. c #ffb37a",
"F. c #e0c02c",
"G. c #e2c338",
"H. c #e6d05d",
"J. c #f6d746",
"K. c #e0ce7e",
"L. c #f2dc70",
"P. c #fff55e",
"I. c #fff567",
"U. c #fff77e",
"Y. c #f6e374",
"T. c #838383",
"R. c #8b8b8b",
"E. c #8a8985",
"W. c #979687",
"Q. c #939393",
"!. c #9b9b9b",
"~. c #989897",
"^. c #9ba1a6",
"/. c #a29f87",
"(. c #a09f9a",
"). c #bf9780",
"_. c #aba586",
"`. c #a6a597",
"'. c #b4ab82",
"]. c #b0ad9c",
"[. c #b9b28c",
"{. c #bbb598",
"}. c #a2a2a2",
"|. c #ababa5",
" X c #ababab",
".X c #afafb0",
"XX c #b6b6aa",
"oX c #b3b3b3",
"OX c #bbbbbb",
"+X c #b9b9b5",
"@X c #bdbdc0",
"#X c #bcc2c6",
"$X c #c6bb86",
"%X c #c3bc98",
"&X c #c3baa9",
"*X c #c0beba",
"=X c #efa780",
"-X c #e6b787",
";X c #ffb283",
":X c #f9b987",
">X c #cdc088",
",X c #ccc296",
"<X c #d3c588",
"1X c #d2c898",
"2X c #ded482",
"3X c #c6c3a8",
"4X c #c2c2bb",
"5X c #cbc9b6",
"6X c #d4d2b9",
"7X c #fcc687",
"8X c #ffc499",
"9X c #ffcb9e",
"0X c #ecd983",
"qX c #e1c3ac",
"wX c #fcd7a9",
"eX c #ffdab4",
"rX c #f9eb84",
"tX c #fef386",
"yX c #fffd92",
"uX c #fffe9a",
"iX c #faf191",
"pX c #f3e4a9",
"aX c #f9e6ba",
"sX c #c3c3c3",
"dX c #cbcac5",
"fX c #cbcbcb",
"gX c #c3c7ca",
"hX c #cdced2",
"jX c #d1cfce",
"kX c #dbdbcc",
"lX c #d3d3d3",
"zX c #dadad5",
"xX c #dbdbdb",
"cX c #d8d7d4",
"vX c #dee2e6",
"bX c #e0d5cc",
"nX c #e3ddd7",
"mX c #e7e3ce",
"MX c #e4e4d6",
"NX c #fdecc2",
"BX c #ffefcc",
"VX c #f0eed7",
"CX c #e3e3e3",
"ZX c #e6e7e8",
"AX c #ebebeb",
"SX c #eaeae3",
"DX c #eaedf1",
"FX c #eef0f6",
"GX c #f1eee5",
"HX c #fdfded",
"JX c #f1f1eb",
"KX c #f3f3f3",
"LX c #f4f5fb",
"PX c #fafbf3",
"IX c #fdfdfd",
"UX c #f6f8fd",
"YX c None",
/* pixels */
"YXYXYXYXYXYXYXYXYXYXYXYXYXYXYXYXYXYXYXYXYXYXYXYXYXYXYXYXYXYXYXYXYXYXYXYXYXYXYXYXYXYXYXYXYXYXYXYXYXYXYXYXYXYXYXYXYXYXYXYXYXYXYXYX",
"YXYXYXYXYXYXYXYXYXYXYXYXYXYXYX* C Y K K D K K K K K K K K K S t 9 = + YXYXYXYXYXYXYXYXYXYXYXYXYXYXYXYXYXYXYXYXYXYXYXYXYXYXYXYXYX",
"YXYXYXYXYXYXYXYXYXYXYXYXYXYXYXe T CXKXJXKXKXKXKXKXKXKXKXLXPXAXOXY L K C e # YXYXYXYXYXYXYXYXYXYXYXYXYXYXYXYXYXYXYXYXYXYXYXYXYXYX",
"YXYXYXYXYXYXYXYXYXYXYXYXYXYXYXX Y fXAXKXJXFXJXFXKXKXAXCXZXCXxXlX XL K T T P B 6 o YXYXYXYXYXYXYXYXYXYXYXYXYXYXYXYXYXYXYXYXYXYXYX",
"YXYXYXYXYXYXYXYXYXYXYXYXYXYXYX  Y sXxXZXAXAXAXSXZXCX.XD S S C B B u t S L E.R.E D 9 X YXYXYXYXYXYXYXYXYXYXYXYXYXYXYXYXYXYXYXYXYX",
"YXYXYXYXYXYXYXYXYXYXYXYXYXYXYX  Y sXCXKXLXPXUXKXAXAXQ.< - - = = # # = t B D T Q.Q.E D 7 o YXYXYXYXYXYXYXYXYXYXYXYXYXYXYXYXYXYXYX",
"YXYXYXYXYXYXYXYXYXYXYXYXYXYXYX  R sXxXUXIXIXIXUXKXAX!.9 6 6 < - * % 6 9 9 B D Y Q.~.Q.T B # YXYXYXYXYXYXYXYXYXYXYXYXYXYXYXYXYXYX",
"YXYXYXYXYXYXYXYXYXYXYXYXYXYXYX  Y sXCXPXIXIXIXIXPXAX!.9 6 6 6 < = # 6 9 % e S D Y Q.!.}.Q.L 7   YXYXYXYXYXYXYXYXYXYXYXYXYXYXYXYX",
"YXYXYXYXYXYXYXYXYXYXYXYXYXYXYX  Y gXvXIXIXIXIXIXLXJX!.9 7 0 7 6 < = < 9 = = t F K Y T.!..X}.T u   YXYXYXYXYXYXYXYXYXYXYXYXYXYXYX",
"YXYXYXYXYXYXYXYXYXYXYXYXYXYXYXYXT #XvXUXIXIXIXIXUXLX!.9 8 0 8 7 < % 7 9 = = > B D L Y T Q..X.XR.B o   & YXYXYXYXYXYXYXYXYXYXYXYX",
"YXYXYXYXYXYXYXYXYXYXYXYX. p n W [ i.h.-X-XqXkXMXCXAX^.9 9 9 9 0 < = 6 e - - * t D L Y Y Y R.oXOXQ.S o   YXYXYXYXYXYXYXYXYXYXYXYX",
"YXYXYXYXYXYXYX. 4 n =.-.F.G.P.U.0Xm.%.M.:X-XC.V.u.u.} y 6 7 7 0 6 = 7 9 > - = 9 D K Y R Y Y E }.+X!.S o   YXYXYXYXYXYXYXYXYXYXYX",
"YXYX. 4 n =.,.y.J.I.U.yXuXyXyXtXiX2X2.] N.8XeXBXNXwX:Xu.[ f 3 - - - 7 9 6 = - 6 C K L Y L K D D L T.R.C     YXYXYXYXYXYXYXYXYXYX",
"/ ,.G.J.I.U.yXuXyXtXrXY.H.q.( z d 1 > @ s ] b.A.;X8XeXNXaX7Xk.Q i O ; 9 6 < > - B K L D F C S F F F D L t   = YXYXYXYXYXYXYXYXYX",
"g y.iXuXiXrXY.L.0XpXNX[.w = $ % - - = % O > c %.b.b.c.b.D.9XeX7Xk.Q i : - - > = u K S D T Q. XOXsXsXoXR.K =   - YXYXYXYXYXYXYXYX",
"4 ;.a.2XpXNXmXGXKXLXIXOX- 6 6 6 6 < = * & * $ i o.c.c.z.z.z.M.;X8XD.O.! > - 6 = u u e Q.OX@XsXfXhXlXhX.XT 0   o YXYXYXYXYXYXYXYX",
"5 ;.:.,XLXLXLXIXIXUXIXcXr 6 7 6 6 < < - # * > $ i o.%.%.$.v.$.z.M.;X;Xx.' 3 - - 7 = 7 Q.@XsXfXhXlXlXfX XT -     YXYXYXYXYXYXYXYX",
"@ *.:.$XDXLXUXIXIXIXIXAXF < 8 7 7 6 < - = * - - $ i X.%.$.$.v.$.$.$.M.;Xn. .s - % & 9 ~.sXfXhXlXcXhXfX}.T 6     YXYXYXYXYXYXYXYX",
"  _ <.g.AXLXIXIXIXIXIXIX4.6 9 7 9 7 6 < = # < - = $ f X.%.$.$.$.v.N.A.;X:XS.+.! > $ 9 }.fXjXcXxXcXlXfX XE - o YXYXYXYXYXYXYXYXYX",
"YXg <.s.xXIXIXIXIXIXIXIX}.7 9 9 9 8 7 < = = < < , $ 3 ` @.%.b.N.;X;XA.S.C.S.C.k.^ & 7 }.jXcXxXcXfX+X XQ.L 9 O o YXYXYXYXYXYXYXYX",
"YXa :.q.dXIXIXIXIXIXIXIXsX9 9 9 9 9 9 6 - = > ; = - = f | %.S.A.B.V.p.&XsXjXsXr.y.3 7 ^.hXfXOX X}.}.!.Q.T D K C 7 o YX  YXYXYXYX",
"YX5 7.q.3XIXIXIXIXIXIXIXcXr 9 q 9 9 9 6 < & = 6 6 6 - i ' M.N.m.).oX#XgXhXlXhX'.a.s % ~.oX X.XoX.X}.!.Q.E Y { T D 9 o     YXYXYX",
"YX@ &.a.,XUXIXIXIXIXIXIXAXH 0 e e 9 9 0 < * > 6 6 - - , ' #.~ }.OX@XsXfXlXlXlX{.a.m % T.oXOXoX XQ.T.T Y D N L R.T.D 7     YXYXYX",
"YX. ) q.g.KXIXIXIXIXIXIXKXT.6 e e e 9 0 6 = # 8 6 6 - - f 3 - !.@XsXfXlXlXlXlX&Xs.( t }.OXoX(.E.R.E.T.T.D % 0 L ^.{ N #     YXYX",
"YXYXz q.g.CXIXIXIXIXIXUXLX(.9 e e e 9 0 6 6 & 6 6 6 6 6 > $ # T.sXfXlXcXxXlXhX*Xd.7.H { E K C S D F D T T <   9 E !.K 7     YXYX",
"YXYXh q.s.dXIXIXIXIXIXPXJX+X9 q e 9 9 0 6 ; & ; 6 6 6 6 - = $ K fXjXcXcXxXlXhX@Xt.q.4.C - % # # # # X K R.9     C !.E e       YX",
"YXYX1 7.d.5XUXIXIXIXUXJXZXsXq e e 9 9 9 ; < = > 9 6 6 6 6 = # B gXhXcXxXcXhXfX@X'.d.{ 7 $ - - - - % $ L E.6   YX7 ^.R.t       YX",
"YXYX* 7.d.,XFXUXIXUXKXAXCXcXF 9 e q 9 9 7 < & > 0 6 6 6 6 6 # t OXjXlXlXlXfX@XOX{.d.{ = - - ; = = = 9 T Q.S e 9 C .XT.e       YX",
"YXYXo 2.w.>XZXLXKXKXAXZXxXcXR 8 e 9 q 0 6 6 # & 9 6 6 6 6 6 = 0  XfXfXjXfXsXOXoX].f.2.< * = 6 t K !.OX@X@XsXOXoX X XY -       YX",
"YXYXYXM s.g.cXJXAXAXCXvXcXhXE.8 e e 9 0 6 6 = # 8 9 9 0 6 6 = = Q.dXsXsX@X@XoX.X|.j.7.< % B R.sXcXxXxXxXxXcXcXjXsXoX XD o     YX",
"YXYXYXh r.g.OXZXCXCXxXzXfXgX~.8 9 9 9 0 6 6 $ & 6 0 0 0 6 6 > # L sXsX@XoX}.E.Y F 5.w.l E fXCXZXKXKXAXAXAXZXCXCXcXgX!.!.D     YX",
"YXYXYX3 w.f.XXxXxXxXcXfXsX@X}.q 9 9 9 0 6 6 > # > e 0 6 6 # o # C R.Y H V 9 = 6 X b ,XsXCXAXIXIXIXIXIXUXKXKXAXZXxXlX}.P E e     ",
"YXYXYX1 8.j.%XlXlXlXjXgXOXoX.XZ 7 9 9 0 6 ; = # > * = & & V 4.dX}.> 6 > - - 6 # 0 ~.lXZXIXIXIXIXIXIXIXIXIXUXKXAXZXzX@XL C C o   ",
"YXYXYXX 2.f.%XsXfXdXsXOX+X.X.XH 6 9 7 * # & # = Z E. X4XMXLXIXIXsX9 6 6 6 6 & S oXCXKXIXIXIXIXIXIXIXIXIXIXIXPXKXZXxX@X{ C D     ",
"YXYXYXYX{ f.$X*XsXsXOXOX.X X.XT * = 8 H R..X4XnX*XLXIXIXIXIXIXIXCX9 0 0 7 9 T.fXjXxXCXCXZXAXKXLXPXIXIXIXIXIXIXUXAXhX}.E B D o   ",
"YXYXYXYXk g.$X.X@X@XOX.X(.R.L F (.dXSXIXIXIXIXUX4XzXLXUXIXIXIXIXKXF 6 6 d T.~.R.~. X@XgXlXxXZXAXJXUXIXIXIXIXIXIXAX+X XL B S     ",
"YXYXYXYXw r.$X/.Q.I S N t > & > fXIXUXIXIXIXUXIXdXsXUXUXIXIXIXIXIXR.= e E R.Y D D D R !.oXsXlXxXZXAXKXUXIXIXIXIXfX.X}.S C B     ",
"YXYXYXYX1 9.<XJ 6 = = = 6 - - * `.LXPXIXIXIXIXIXcX4XPXIXIXIXIXIXIX}.9 E xXgXQ.E T I K K K R !.+XfXxXCXAXLXPXIXcXoXoXE.B L e     ",
"YXYXYXYX+ 5.1X{ - 6 6 6 6 6 6 # P IXUXIXIXIXIXIXCX+XLXIXIXIXIXIXIXsXL xXIXhX}.!.}.}.!.R.E L K K T }.sXhXCXKXcXOXfX XK S L #     ",
"YXYXYXYX. 1.$X9.6 6 8 8 7 6 < # S KXIXIXIXIXIXIXJXOXJXIXIXIXIXIXIXsX XIXcX.X X X X.X.X X X}.~.E L D L ~.sXsX XjXgXE.C I S       ",
"YXYXYXYXYXx $Xt.q 0 0 0 0 8 6 6 t MXIXIXIXIXIXIXIXsXCXIXIXIXIXIXLX!.cXZXOX X.XoXOXOXOXOXOXoXoX X}.R.I D Y sX}.sXoXL S T.t       ",
"YXYXYXYXYXd t.$Xq 0 9 9 0 0 6 6 7 sXIXIXIXIXIXIXUXjXfXIXIXIXIXIXzXQ.CXsXT.Y L Q.OXOXsX@XsXsXsXOXoX X}.E S }.OXoX~.B Y L X       ",
"YXYXYXYXYX1 e.<XG 7 9 9 9 0 0 6 = |.IXIXIXIXIXIXPXzX4XIXIXIXIXIXOX}. XY R.T.L S }.OXsXfXfXgXsXsXsX+XoX!.L T.fX XL S T.u       YX",
"YXYXYXYXYX@ 6.1X3.6 e q e 9 9 0 # I IXIXIXIXIXIXLXMXOXUXIXIXIXIXR.P T..X.X!.T C R..XgXfXfXjXfXfXsX@XoX!.Y E sX!.C R D X       YX",
"YXYXYXYXYX  3.<X6.8 9 9 e q 9 8 = S PXIXIXIXIXIXLXCXOXAXIXIXKX!.L  X@X X}.T B D R. XdXfXjXjXfXsXfX@XoX}.Y E fXY K Y *         YX",
"YXYXYXYXYXYXx %X_.e e e 9 9 9 9 = t CXIXIXIXIXUXJXCX*XCXIXOXY R.sXOX X XR N F T !.OXgXfXfXfX~.L T.oX.X!.L T. XK T e         YXYX",
"YXYXYXYXYXYXj $X$Xe e e e e 9 9 6 9 sXIXIXIXIXKXZXCXdX XE Y oXsX.XoXoXY N D Y Q.oXsXsXfXhX~. XE.u R.}.Q.K T.}.T u         YXYXYX",
"YXYXYXYXYXYX8 '.,XA 9 e e 9 9 9 6 = |.LXPXUXKXJXCXCXQ.S ~.fXoX X@X.XK u F Y ~..XOX@XsXfX}.Q.gXT.S K Q.R.D  X.XS           YXYXYX",
"YXYXYXYXYXYX* 0.1XU 0 e e e 9 9 6 = R KXKXKXAXAXZX XK oXgX}.}.@X XD t C L T.}.oX@X@X@X@XT.lX^.Y N P T.T K sXI X         YXYXYXYX",
"YXYXYXYXYXYXo 6.,X6.9 e e 9 9 9 8 # S AXAXZXAXZXsXP dX@XQ.}.oXR.S N t B Y Q.!. X XoX@XE sXgXQ.D S L E L R R.$         YXYXYXYXYX",
"YXYXYXYXYXYXYXJ %X/.q e e e 9 9 7 = u hXCXCXxXxXQ.Q. XT.!.!.L B D L L K D T R.!.^. X{  XxX}.E.N D T T D L 6           YXYXYXYXYX",
"YXYXYXYXYXYXYXj [.[.9 q 9 9 9 9 0 = q oXxXxXcXgXY R.R E I C B P T R.!.Q.u t D Y T.T T.AX.X}.L N K R Y D *           YXYXYXYXYXYX",
"YXYXYXYXYXYXYXw '.,Xj 9 e e 9 0 7 > = `.cXfXhX+XD S S u u S Y T.~.}.}.}.S X < Z L L xXhX X~.N N S D S 9         YXYXYXYXYXYXYXYX",
"YXYXYXYXYXYXYX< /.3XP 6 9 9 9 0 6 6 # R fXfXsX@XQ.D S F D R T.Q.}.|.XX+X|.XXkX6XY .XZX XoXI 6 - 0 0 X         YXYXYXYXYXYXYXYXYX",
"YXYXYXYXYXYXYXo 6.3X4.0 q 9 9 7 7 < # B fX@X+XoX XQ.Y R T.`.XX4XMXHXPXIXIXIXHX(.R.KXoXoX!.t                   YXYXYXYXYXYXYXYXYX",
"YXYXYXYXYXYXYXYXU XX6.9 9 9 8 7 6 - X 9  X X XoXoXXX+XkXJXPXIXIXIXHXVX6X[.4.H L xXfX XoXY *                 YXYXYXYXYXYXYXYXYXYX",
"YXYXYXYXYXYXYXYXl {.].8 0 6 = O @ = q H *XdXSXHXPXIXIXIXHXVX6X`.4.A <       u +XZX}. X!.u           YXYXYXYXYXYXYXYXYXYXYXYXYXYX",
"YXYXYXYXYXYXYXYXr ].{.q 6 j A I `.zXPXIXIXIXIXHXMX5X`.3.A &               e R.JX X!. XP =       YXYXYXYXYXYXYXYXYXYXYXYXYXYXYXYX",
"YXYXYXYXYXYXYXYX< _.XX5XzXHXIXIXIXIXHXmX3X`.U V @                       # K fX@XR.}.R.u o       YXYXYXYXYXYXYXYXYXYXYXYXYXYXYXYX",
"YXYXYXYXYXYXYXYXX W.VXIXIXHXmXXXW.U j o                               YX6 Y  XT.Q.Q.D <       YXYXYXYXYXYXYXYXYXYXYXYXYXYXYXYXYX",
"YXYXYXYXYXYXYXYXo W.3XW.J r o                               YXYXYXYXYXYX6 K R T.T.K e o       YXYXYXYXYXYXYXYXYXYXYXYXYXYXYXYXYX",
"YXYXYXYXYXYXYXYX  X                             YX  YXYXYXYXYXYXYXYXYXYXX B K K B 9 o       YXYXYXYXYXYXYXYXYXYXYXYXYXYXYXYXYXYX",
"YXYXYXYXYXYXYXYX                            YXYXYXYXYXYXYXYXYXYXYXYXYXYXYX# 9 0 #           YXYXYXYXYXYXYXYXYXYXYXYXYXYXYXYXYXYX",
"YXYXYXYXYXYXYXYXYX            YXYXYXYXYXYXYXYXYXYXYXYXYXYXYXYXYXYXYXYXYX                  YXYXYXYXYXYXYXYXYXYXYXYXYXYXYXYXYXYXYX"
};
