<?xml version="1.0" encoding="UTF-8"?>
<svg version="1" viewBox="0 0 300 300" xml:space="preserve" xmlns="http://www.w3.org/2000/svg"><g fill-rule="evenodd"><path d="m259.46 173.82c1.039 5.399-2.456 9.17-5.784 7.662-31.161-14.124-37.229-16.455-66.479-30.081-2.899-1.35-6.162-5.775-0.968-8.133 27.589-12.522 38.174-18.246 52.103-24.494 3.555-1.594 7.6 1.429 8.522 5.21 5.028 20.604 7.389 29.397 12.606 49.836zm-49.743-92.397c-0.995-5.057-4.232-8.013-9.105-8.013h-35.42c-3.655 0-5.923 1.466-6.3 4.66-1 8.458 2.864 121.6 3.092 121.74 0.187 7.333 7.548 6.49 10.571 6.496 23.075 0.047 59.169-6e-3 59.169-6e-3s32.8 1.71 48.624-12.905c7.448-6.879 16.175-18.611 15.526-30.948-1.914-36.378-39.652-61.17-77.783-59.941-2.607 0.084-4.255-1.624-5.352-4.168-0.959-5.103-2.168-12.579-3.022-16.919z" fill="#ccc"/><path d="m40.494 173.83c-1.038 5.399 2.452 9.171 5.776 7.662 31.117-14.125 37.178-16.456 66.387-30.082 2.895-1.351 6.153-5.776 0.967-8.134-27.551-12.523-38.121-18.247-52.03-24.495-3.55-1.595-7.589 1.429-8.511 5.21-5.022 20.606-7.379 29.399-12.589 49.839zm49.674-92.402c0.993-5.058 4.226-8.013 9.092-8.013h35.37c3.65 0 5.915 1.466 6.292 4.66 0.998 8.458-2.86 121.61-3.088 121.75-0.186 7.333-7.537 6.49-10.557 6.496-23.042 0.047-59.086-6e-3 -59.086-6e-3s-32.754 1.71-48.556-12.906c-7.438-6.88-16.153-18.612-15.505-30.949 1.912-36.38 39.597-61.173 77.675-59.945 2.603 0.084 4.25-1.624 5.344-4.168 0.958-5.103 2.166-12.579 3.019-16.92z" fill="#ccc"/><path d="m99.26 72.793c-2.5582 0-4.7489 0.78905-6.4082 2.2656-1.6593 1.4766-2.7745 3.6149-3.291 6.2461-0.85275 4.3397-2.0494 11.744-3.002 16.83-0.51884 1.1939-1.1528 2.1648-1.9141 2.8047-0.77075 0.64783-1.6562 0.99259-2.8184 0.95508-19.18-0.61853-38.247 5.3078-52.787 15.988-14.54 10.68-24.561 26.148-25.527 44.543-0.36488 6.9468 2.1464 13.642 5.7246 19.424 0.31587 0.69882 0.63896 1.4051 1.0879 2.209 6.693 11.983 10.576 20.004 21.328 29.113 16.466 13.95 22.449 14.039 38.184 14.035 22.578-6e-3 36.051-6e-3 59.088 0 1.5938 5.3e-4 4.1787-0.39544 6.4531-1.7676 2.2744-1.3721 4.2109-3.7836 4.2969-7.6113l2.7324-121.61v-0.01563s-0.31339-6.7892-0.7207-13.688c-0.019-2.0589-0.0564-3.7398-0.14844-4.5195-0.20412-1.7293-0.96072-3.0886-2.1738-3.957-1.2131-0.86847-2.8246-1.248-4.7324-1.248zm0 1.2363h35.371c1.7422 0 3.0875 0.35455 4.0137 1.0176 0.92614 0.66302 1.4912 1.633 1.6641 3.0977 0.11263 0.9545 0.16862 3.6823 0.15821 7.5801-0.0104 3.8978-0.079 9.0084-0.19141 14.906-0.22483 11.796-0.6206 26.736-1.0547 41.416-0.43408 14.68-0.90704 29.103-1.2852 39.861-0.18906 5.3793-0.35518 9.8427-0.48047 12.965-0.0627 1.5611-0.11587 2.7858-0.15625 3.6211-0.0202 0.41762-0.0372 0.73898-0.0508 0.95117-3.5e-4 5e-3 3.4e-4 6e-3 0 0.0117l-0.0234 0.0137-8e-3 0.33594c-0.0439 1.7297-0.49858 2.9004-1.168 3.7363s-1.58 1.3582-2.6172 1.6856c-2.0743 0.65476-4.5877 0.46758-6.1562 0.4707-23.04 0.047-59.084-6e-3 -59.084-6e-3h-0.01563l-0.01563 2e-3s-8.134 0.4223-18.236-0.96875-22.133-4.6183-29.869-11.773c-7.3573-6.8054-15.938-18.437-15.307-30.463 0.9452-17.985 10.724-33.105 25.023-43.609 14.3-10.504 33.115-16.359 52.014-15.75 1.4408 0.0465 2.6793-0.42296 3.6562-1.2441 0.977-0.82118 1.7057-1.9695 2.2773-3.2988l0.02539-0.0625 0.01367-0.06641c0.96082-5.118 2.1692-12.598 3.0176-16.916 0.47643-2.4268 1.4765-4.2951 2.8984-5.5605 1.422-1.2654 3.2782-1.9531 5.5859-1.9531zm-39.682 43.697c-0.2525 2e-4 -0.50471 0.0181-0.75391 0.0508-0.9968 0.13084-1.958 0.5129-2.8105 1.0723-1.7051 1.1187-3.03 2.9346-3.5312 4.9902v2e-3c-5.021 20.602-7.3774 29.39-12.588 49.832l-0.0078 0.0352c-0.54832 2.852 0.08411 5.33 1.3789 6.9277 1.2948 1.5977 3.3469 2.2825 5.2598 1.4141 31.113-14.123 37.18-16.456 66.395-30.084 1.6015-0.74736 3.2306-2.2474 3.8379-4.0527 0.30367-0.90266 0.32305-1.9117-0.13476-2.8398-0.45782-0.92812-1.3571-1.7354-2.7422-2.3652-27.541-12.518-38.102-18.238-52.033-24.496-0.74562-0.33501-1.512-0.48692-2.2695-0.48633zm9.8047 27.053c0.89228-0.0273 1.8098 0.14397 2.6973 0.54297 8.3352 3.7439 14.488 6.5527 25.781 12.238-14.026 6.4326-25.347 11.457-40.885 18.443 3.4753-13.201 3.8875-15.337 6.5938-26.441 0.6915-2.8358 3.1357-4.7013 5.8125-4.7832z" fill="#4d4d4d"/><path d="m165.19 72.793c-1.9102 0-3.5238 0.3797-4.7383 1.248-1.2145 0.86835-1.9716 2.2275-2.1758 3.957-0.13717 1.1602-0.17839 3.819-0.16797 7.7285 3e-3 1.1969 0.0447 3.1592 0.0586 4.5703-0.1719 3.4707-0.27539 5.9277-0.27539 5.9277l2.7363 121.59c0.165 7.344 7.2553 8.9053 10.279 8.9043 23.069-6e-3 36.561-6e-3 59.17 0 15.756 4e-3 21.476-7e-3 37.922-13.92 10.282-8.6981 14.273-16.447 20.514-27.668 4.7138-6.457 8.4161-14.39 7.9785-22.707-0.96782-18.395-11.002-33.859-25.562-44.539-14.56-10.68-33.653-16.607-52.859-15.988-1.1644 0.0375-2.0524-0.3052-2.8242-0.95313-0.76336-0.64078-1.3973-1.6143-1.918-2.8105-0.95348-5.0857-2.1503-12.486-3.0039-16.824-0.51762-2.6308-1.6335-4.7695-3.2949-6.2461-1.6614-1.4766-3.8564-2.2656-6.418-2.2656zm0 1.2363h35.42c2.3114 0 4.1716 0.68943 5.5957 1.9551 1.4241 1.2656 2.425 3.1324 2.9024 5.5586 0.84937 4.3165 2.0597 11.796 3.0215 16.914l0.0117 0.06836 0.0274 0.0625c0.57317 1.3292 1.3031 2.4777 2.2812 3.2988 0.97812 0.82107 2.2156 1.2887 3.6582 1.2422 18.925-0.60998 37.768 5.2465 52.088 15.75 14.32 10.503 24.112 25.622 25.059 43.605 0.63264 12.026-7.9608 23.656-15.328 30.461-7.7466 7.1548-19.793 10.384-29.91 11.775s-18.262 0.9668-18.262 0.9668h-0.0332s-36.095 0.0528-59.168 6e-3c-1.57-3e-3 -4.0866 0.18225-6.1641-0.47266-1.0387-0.32745-1.9487-0.84952-2.6191-1.6855-0.67041-0.83603-1.1258-2.0068-1.1699-3.7363l-8e-3 -0.33594-0.0254-0.0156c-2.8e-4 -4e-3 2.9e-4 -5e-3 0-0.01-0.0136-0.21218-0.0306-0.53162-0.0508-0.94922-0.0404-0.83519-0.0935-2.0621-0.15625-3.623-0.12545-3.1219-0.29115-7.5839-0.48047-12.963-0.37864-10.758-0.85044-25.178-1.2852-39.857-0.43471-14.679-0.83153-29.619-1.0566-41.414-0.11256-5.8976-0.18298-11.011-0.19336-14.908-0.0104-3.8976 0.0473-6.6238 0.16015-7.5781 0.17286-1.4645 0.73852-2.4345 1.666-3.0977s2.2748-1.0176 4.0195-1.0176zm75.16 43.695c-0.75849-4.9e-4 -1.5269 0.15164-2.2734 0.48633-13.951 6.2578-24.527 11.977-52.105 24.494-1.387 0.62969-2.2875 1.437-2.7461 2.3652-0.45858 0.9282-0.43891 1.9391-0.13477 2.8418 0.60829 1.8055 2.2403 3.3041 3.8438 4.0508 29.255 13.628 35.328 15.962 66.484 30.084 1.9147 0.86762 3.9691 0.18348 5.2656-1.4141 1.2966-1.5975 1.9297-4.0756 1.3809-6.9277l-4e-3 -0.0195-4e-3 -0.0176c-5.2175-20.441-7.5765-29.23-12.604-49.83-0.50134-2.056-1.8298-3.8718-3.5371-4.9902-0.85363-0.55924-1.8146-0.94141-2.8125-1.0723-0.24947-0.0327-0.50107-0.0506-0.7539-0.0508zm-9.8203 27.051c2.6801 0.0828 5.1281 1.9475 5.8203 4.7832 2.6977 11.052 3.1638 13.38 6.5996 26.418-16.529-7.4296-26.448-11.784-40.939-18.42 11.31-5.686 17.471-8.4962 25.818-12.24 0.8885-0.3985 1.8078-0.56862 2.7012-0.54102z" fill="#4d4d4d"/></g></svg>
