<?xml version="1.0" encoding="UTF-8"?>
<svg width="100" height="100" version="1.1" viewBox="0 0 26.458 26.458" xmlns="http://www.w3.org/2000/svg">
 <defs>
  <linearGradient id="linearGradient2" x1="282.85" x2="308.26" y1="686.41" y2="766.07" gradientTransform="matrix(.26626 0 0 .2718 -67.182 -180.82)" gradientUnits="userSpaceOnUse">
   <stop stop-color="#f79910" offset="0"/>
   <stop stop-color="#c718f5" offset="1"/>
  </linearGradient>
 </defs>
 <path d="m9.2986 13.088c-0.73622 3.0835-0.82325 3.5809-1.8061 7.3844-0.84698 0.38975-1.7722 0.8165-2.8003 1.2929-0.88509 0.41015-1.8141-0.61507-1.5379-2.0825 1.3872-5.5555 2.0148-7.9451 3.352-13.545 0.24522-1.0277 1.3206-1.8496 2.2661-1.4161 3.7035 1.6982 6.5179 3.2539 13.853 6.6576 1.3811 0.6406 0.51441 1.8461-0.25747 2.2107-3.7474 1.7702-3.7474 1.7697-3.7474 1.7697-3.144-1.6196-4.7856-2.3823-7.0565-3.4235-0.94526-0.43379-2.0207 0.12475-2.2661 1.1524z" fill="url(#linearGradient2)" fill-rule="evenodd" stroke-width=".26902"/>
 <path d="m3.1546 19.685c-0.27638 1.4674 0.65288 2.4926 1.5379 2.0825 8.2857-3.8391 9.8995-4.4727 17.676-8.1761 0.77084-0.3672 1.6383-1.5699 0.25747-2.2108-7.3358-3.4037-10.15-4.9594-13.853-6.6576-0.94526-0.43353-2.0207 0.38838-2.2661 1.4161-1.3372 5.6006-1.9647 7.9904-3.352 13.546z" fill="none" stroke="#f79910" stroke-width="1.0207"/>
</svg>
