<svg version="1.1" viewBox="0 0 105.83 52.364" xmlns="http://www.w3.org/2000/svg">
 <g transform="translate(-54.24 -147.66)">
  <g transform="matrix(.26458 0 0 .26458 8.1847 62.565)" fill="#f79910">
   <path transform="translate(182.59 224.08)" d="m96.406 241.96c0.997 0.029 1.828 0.387 2.492 1.07 0.664 0.686 1.009 1.529 1.034 2.529 0 0.648-0.144 1.225-0.432 1.729l-26.055 44.92c-0.332 0.547-0.767 0.982-1.305 1.305s-1.135 0.486-1.791 0.494h-11.232c-0.998-0.027-1.829-0.385-2.493-1.07-0.664-0.686-1.009-1.527-1.035-2.529 3e-3 -0.326 0.051-0.645 0.144-0.953 0.093-0.309 0.213-0.592 0.36-0.846l7.848-12.887c0.147-0.258 0.267-0.551 0.36-0.881s0.141-0.66 0.144-0.99c-3e-3 -0.324-0.051-0.629-0.144-0.918-0.093-0.287-0.213-0.557-0.36-0.811l-14.4-24.834c-0.288-0.504-0.432-1.08-0.432-1.729 0.025-1 0.371-1.844 1.035-2.529 0.665-0.684 1.496-1.041 2.493-1.07h11.383v10.66c0.018 0.666 0.252 1.225 0.703 1.676 0.45 0.449 1.008 0.684 1.674 0.701 0.218 2e-3 0.431-0.02 0.639-0.063 0.209-0.043 0.404-0.119 0.585-0.225l21.205-12.75h7.58z"/>
   <path transform="translate(182.59 224.08)" d="m103.86 268.86v-23.391c0.026-0.998 0.37-1.84 1.034-2.525 0.664-0.684 1.494-1.039 2.49-1.068h22.467c4.688 0.119 8.589 1.734 11.703 4.846 3.114 3.113 4.73 7.016 4.848 11.705v22.436c-0.025 0.998-0.37 1.83-1.034 2.494s-1.494 1.01-2.49 1.035c-0.327 0-0.644-0.037-0.953-0.109-0.309-0.07-0.59-0.18-0.845-0.322l-20.236-11.277c-0.249-0.152-0.507-0.297-0.774-0.432s-0.561-0.207-0.882-0.217c-0.663 2e-3 -1.209 0.252-1.639 0.748s-0.651 1.23-0.667 2.205v9.449-0.045h-9.425c-1-0.025-1.842-0.371-2.527-1.035s-1.042-1.496-1.07-2.494z"/>
   <path transform="translate(182.59 224.08)" d="m382.96 245.28c-0.024-0.996-0.37-1.826-1.034-2.49-0.665-0.664-1.496-1.008-2.493-1.033h-7.767c-3.96 0.045-7.541 1.018-10.743 2.914-3.203 1.898-5.753 4.449-7.651 7.65-1.897 3.203-2.87 6.785-2.915 10.744 0.045 3.957 1.018 7.531 2.915 10.721 1.898 3.191 4.448 5.73 7.651 7.615 3.202 1.887 6.783 2.854 10.743 2.898h7.705c0.998-0.029 1.829-0.385 2.493-1.07s1.01-1.527 1.035-2.527v-5.828c-0.025-1-0.371-1.842-1.035-2.527s-1.495-1.041-2.493-1.07h-5.328c-0.974-0.016-1.709-0.236-2.205-0.666s-0.746-0.977-0.747-1.639c9e-3 -0.322 0.081-0.615 0.217-0.883 0.134-0.268 0.278-0.525 0.432-0.773l10.789-20.236c0.145-0.256 0.252-0.537 0.324-0.846 0.071-0.309 0.107-0.628 0.107-0.954z"/>
   <g fill-rule="evenodd">
    <path transform="translate(182.59 224.08)" d="m178.17 256.13c0.41 0.012 0.753 0.156 1.03 0.432 0.277 0.277 0.421 0.621 0.432 1.031 0 0.135-0.033 0.299-0.1 0.492-0.066 0.195-0.166 0.416-0.299 0.66l-6.337 10.459c-0.135 0.225-0.309 0.406-0.521 0.543s-0.452 0.207-0.72 0.211c-0.27-4e-3 -0.517-0.074-0.743-0.211-0.225-0.137-0.406-0.318-0.542-0.543l-6.559-10.857c-0.065-0.111-0.112-0.232-0.139-0.361-0.026-0.127-0.04-0.258-0.039-0.393 0.011-0.41 0.155-0.754 0.432-1.031 0.277-0.275 0.62-0.42 1.03-0.432zm15.788-10.848c-0.024-0.996-0.37-1.826-1.034-2.49-0.665-0.664-1.496-1.008-2.493-1.033h-17.767c-3.96 0.045-7.541 1.018-10.744 2.914-3.203 1.898-5.753 4.449-7.651 7.65-1.898 3.203-2.87 6.785-2.916 10.744 0.045 3.957 1.018 7.531 2.916 10.721 1.898 3.191 4.448 5.73 7.651 7.615 3.203 1.887 6.784 2.854 10.744 2.898h17.705c0.998-0.029 1.829-0.385 2.493-1.07 0.664-0.686 1.01-1.527 1.035-2.527v-5.828c-0.025-1-0.371-1.842-1.035-2.527-0.665-0.686-1.496-1.041-2.493-1.07h-5.328c-0.974-0.016-1.708-0.236-2.205-0.666s-0.746-0.977-0.747-1.639c9e-3 -0.322 0.081-0.615 0.216-0.883s0.279-0.525 0.432-0.773l10.79-20.236c0.145-0.256 0.252-0.537 0.324-0.846 0.071-0.309 0.107-0.628 0.107-0.954z"/>
    <path transform="translate(182.59 224.08)" d="m264.72 268.06c-0.41-0.012-0.754-0.156-1.03-0.434-0.276-0.275-0.421-0.619-0.432-1.029 0-0.135 0.032-0.299 0.099-0.494 0.067-0.193 0.167-0.414 0.3-0.658l6.337-10.459c0.135-0.225 0.309-0.406 0.521-0.543 0.213-0.137 0.452-0.207 0.72-0.211 0.27 4e-3 0.518 0.074 0.743 0.211s0.405 0.318 0.543 0.543l6.558 10.857c0.065 0.111 0.111 0.232 0.139 0.359 0.027 0.129 0.04 0.26 0.039 0.395-0.011 0.41-0.155 0.754-0.432 1.029-0.278 0.277-0.621 0.422-1.03 0.434zm6.535-27.337c-4.176 0.049-7.951 1.072-11.327 3.068-3.375 1.998-6.063 4.68-8.061 8.045-1.999 3.365-3.022 7.123-3.07 11.273 0.048 4.176 1.071 7.951 3.07 11.326 1.998 3.375 4.686 6.063 8.061 8.063 3.376 2 7.151 3.023 11.327 3.072 4.178-0.049 7.954-1.072 11.329-3.072 3.376-2 6.063-4.688 8.062-8.063s3.022-7.15 3.07-11.326c-0.048-4.15-1.071-7.908-3.07-11.273s-4.686-6.047-8.062-8.045c-3.375-1.996-7.151-3.02-11.329-3.068z"/>
    <path transform="translate(182.59 224.08)" d="m231.87 252.55c-0.018-0.666-0.252-1.225-0.702-1.676-0.449-0.449-1.009-0.684-1.675-0.701-0.217 0-0.484 0.053-0.801 0.162-0.317 0.107-0.674 0.27-1.071 0.484l-16.999 10.301c-0.366 0.219-0.66 0.502-0.882 0.846-0.223 0.346-0.337 0.736-0.343 1.17 6e-3 0.439 0.12 0.842 0.343 1.207 0.222 0.367 0.516 0.66 0.882 0.883l17.647 10.66c0.181 0.105 0.376 0.182 0.585 0.225s0.422 0.064 0.639 0.063c0.666-0.018 1.226-0.252 1.675-0.701 0.45-0.451 0.685-1.01 0.702-1.676zm-30.356 28.347v-51.848c0.025-1.002 0.37-1.844 1.034-2.529 0.665-0.686 1.495-1.043 2.492-1.072h12.954c1.001 0.029 1.843 0.387 2.528 1.072 0.685 0.686 1.042 1.527 1.07 2.529v10.521c0.019 0.664 0.253 1.209 0.703 1.639 0.451 0.43 1.01 0.65 1.677 0.666 3.957 0.045 7.531 1.01 10.722 2.896 3.191 1.887 5.729 4.426 7.616 7.615 1.888 3.191 2.854 6.766 2.897 10.723-0.045 3.959-1.017 7.541-2.915 10.742-1.898 3.203-4.449 5.752-7.651 7.65-3.203 1.898-6.782 2.871-10.74 2.916h-18.861c-0.997-0.025-1.827-0.369-2.492-1.033-0.664-0.662-1.009-1.491-1.034-2.487z"/>
    <path transform="translate(182.59 224.08)" d="m13.338 252.55c0.018-0.666 0.252-1.225 0.702-1.676 0.45-0.449 1.009-0.684 1.675-0.701 0.218 0 0.485 0.053 0.801 0.162 0.317 0.107 0.674 0.27 1.072 0.484l16.999 10.301c0.366 0.219 0.66 0.502 0.882 0.846 0.222 0.346 0.336 0.736 0.342 1.17-6e-3 0.439-0.12 0.842-0.342 1.207-0.222 0.367-0.516 0.66-0.882 0.883l-17.647 10.66c-0.182 0.105-0.377 0.182-0.585 0.225s-0.421 0.064-0.639 0.063c-0.666-0.018-1.225-0.252-1.675-0.701-0.45-0.451-0.684-1.01-0.702-1.676v-21.247zm30.357 28.347v-51.848c-0.026-1.002-0.371-1.844-1.035-2.529s-1.495-1.043-2.492-1.072h-12.954c-1 0.029-1.842 0.387-2.528 1.072-0.685 0.686-1.042 1.527-1.07 2.529v10.521c-0.018 0.664-0.252 1.209-0.704 1.639-0.451 0.43-1.01 0.65-1.677 0.666-3.957 0.045-7.53 1.01-10.721 2.896s-5.729 4.426-7.617 7.615c-1.887 3.191-2.853 6.766-2.897 10.723 0.046 3.959 1.018 7.541 2.916 10.742 1.898 3.203 4.449 5.752 7.651 7.65 3.203 1.898 6.783 2.871 10.74 2.916h18.861c0.997-0.025 1.828-0.369 2.492-1.033s1.009-1.491 1.035-2.487z"/>
   </g>
   <path transform="translate(182.59 224.08)" d="m344.26 234.28c-0.067-2.49-0.943-4.564-2.628-6.223-1.686-1.658-3.774-2.52-6.269-2.584-2.489 0.064-4.563 0.926-6.223 2.584-1.658 1.658-2.52 3.732-2.583 6.223 0.063 2.494 0.925 4.582 2.583 6.268 1.659 1.686 3.733 2.561 6.223 2.629 2.494-0.068 4.583-0.943 6.269-2.629 1.684-1.686 2.56-3.774 2.628-6.268z"/>
   <path transform="translate(182.59 224.08)" d="m318.1 229.05c-0.025-1-0.37-1.842-1.035-2.527-0.663-0.686-1.494-1.043-2.491-1.07h-10.65c-0.997 0.027-1.828 0.385-2.492 1.07s-1.009 1.527-1.034 2.527v51.844c0.025 0.998 0.37 1.83 1.034 2.494s1.495 1.008 2.492 1.033h10.65c0.997-0.025 1.828-0.369 2.491-1.033 0.665-0.664 1.01-1.496 1.035-2.494z"/>
   <path transform="translate(182.59 224.08)" d="m344.26 280.9v-29.592c-0.025-0.998-0.369-1.828-1.034-2.494-0.664-0.664-1.495-1.008-2.492-1.035h-10.65c-0.997 0.025-1.827 0.371-2.491 1.035-0.665 0.666-1.009 1.496-1.034 2.494v29.592c0.025 0.998 0.369 1.828 1.034 2.494 0.664 0.664 1.494 1.008 2.491 1.033h10.65c0.997-0.025 1.828-0.369 2.492-1.033 0.665-0.666 1.008-1.496 1.034-2.494z"/>
  </g>
 </g>
</svg>
