<svg width="77.535mm" height="40.856mm" version="1.1" viewBox="0 0 77.535 40.856" xmlns="http://www.w3.org/2000/svg">
 <g transform="translate(-25.929 -50.006)">
  <g transform="matrix(.26458 0 0 .26458 5.4896 11.48)">
   <path d="m214.62 150.41c0.057 0.238 0.095 0.491 0.113 0.762 0.551 8.146 0.959 17.874 0.959 17.874l-2.732 121.59c-0.165 7.345-7.245 8.905-10.265 8.904-23.037-6e-3 -36.509-6e-3 -59.087 0-15.734 4e-3 -21.446-6e-3 -37.87-13.92-10.689-9.056-14.519-16.986-21.218-28.98-1.959-3.508-3.48-6.549-4.567-9.459 2.934 7.671 8.479 14.443 13.454 19.044 15.802 14.616 48.556 12.906 48.556 12.906s36.043 0.053 59.086 6e-3c3.02-6e-3 10.371 0.838 10.557-6.496 0.228-0.14 4.086-113.29 3.088-121.75-0.02-0.165-0.044-0.326-0.074-0.482z" fill="#333" fill-rule="evenodd"/>
   <path d="m214.62 150.41c0.057 0.238 0.095 0.491 0.113 0.762 0.551 8.146 0.959 17.874 0.959 17.874l-2.732 121.59c-0.165 7.345-7.245 8.905-10.265 8.904-23.037-6e-3 -36.509-6e-3 -59.087 0-15.734 4e-3 -21.446-6e-3 -37.87-13.92-10.689-9.056-14.519-16.986-21.218-28.98-1.959-3.508-3.48-6.549-4.567-9.459 2.934 7.671 8.479 14.443 13.454 19.044 15.802 14.616 48.556 12.906 48.556 12.906s36.043 0.053 59.086 6e-3c3.02-6e-3 10.371 0.838 10.557-6.496 0.228-0.14 4.086-113.29 3.088-121.75-0.02-0.165-0.044-0.326-0.074-0.482z" fill="none" stroke="#333" stroke-width=".9718"/>
   <path d="m137.34 222.38c-2.765 11.345-3.092 13.175-6.783 27.169-3.181 1.434-6.656 3.004-10.517 4.757-3.324 1.509-6.813-2.263-5.776-7.662 5.21-20.44 7.567-29.233 12.589-49.838 0.921-3.781 4.96-6.805 8.511-5.21 13.909 6.248 24.479 11.972 52.03 24.495 5.187 2.357 1.932 6.792-0.967 8.134-14.074 6.513-14.074 6.511-14.074 6.511-11.808-5.959-17.973-8.765-26.502-12.596-3.55-1.596-7.589 0.459-8.511 4.24z" fill="#333" fill-rule="evenodd"/>
   <path d="m232.74 150.41c-0.057 0.238-0.095 0.491-0.113 0.762-0.552 8.145-0.96 17.873-0.96 17.873l2.736 121.59c0.165 7.344 7.255 8.905 10.279 8.904 23.069-6e-3 36.561-6e-3 59.17 0 15.756 4e-3 21.476-6e-3 37.922-13.919 10.704-9.055 14.539-16.985 21.247-28.979 1.962-3.508 3.485-6.548 4.574-9.458-2.938 7.671-8.491 14.442-13.473 19.043-15.824 14.616-48.624 12.905-48.624 12.905s-36.094 0.053-59.169 6e-3c-3.023-6e-3 -10.385 0.837-10.571-6.496-0.228-0.14-4.091-113.29-3.092-121.74 0.02-0.167 0.044-0.328 0.074-0.483z" fill="#333" fill-rule="evenodd"/>
   <path d="m232.74 150.41c-0.057 0.238-0.095 0.491-0.113 0.762-0.552 8.145-0.96 17.873-0.96 17.873l2.736 121.59c0.165 7.344 7.255 8.905 10.279 8.904 23.069-6e-3 36.561-6e-3 59.17 0 15.756 4e-3 21.476-6e-3 37.922-13.919 10.704-9.055 14.539-16.985 21.247-28.979 1.962-3.508 3.485-6.548 4.574-9.458-2.938 7.671-8.491 14.442-13.473 19.043-15.824 14.616-48.624 12.905-48.624 12.905s-36.094 0.053-59.169 6e-3c-3.023-6e-3 -10.385 0.837-10.571-6.496-0.228-0.14-4.091-113.29-3.092-121.74 0.02-0.167 0.044-0.328 0.074-0.483z" fill="none" stroke-width="0"/>
   <path d="m310.12 222.38c2.769 11.344 3.096 13.174 6.792 27.168 3.186 1.434 6.666 3.004 10.532 4.756 3.329 1.509 6.823-2.263 5.784-7.662-5.218-20.438-7.578-29.231-12.607-49.835-0.922-3.781-4.967-6.804-8.522-5.21-13.928 6.248-24.513 11.971-52.103 24.494-5.193 2.357-1.935 6.792 0.968 8.133 14.093 6.513 14.094 6.511 14.094 6.511 11.825-5.959 17.999-8.765 26.54-12.596 3.554-1.594 7.599 0.46 8.522 4.241z" fill="#333" fill-rule="evenodd"/>
   <path d="m114.27 246.64c-1.038 5.399 2.452 9.171 5.776 7.662 31.117-14.125 37.178-16.456 66.387-30.082 2.895-1.351 6.153-5.776 0.967-8.134-27.551-12.523-38.121-18.247-52.03-24.495-3.55-1.595-7.589 1.429-8.511 5.21-5.022 20.606-7.379 29.399-12.589 49.839zm49.674-92.402c0.993-5.058 4.226-8.013 9.092-8.013h35.37c3.65 0 5.915 1.466 6.292 4.66 0.998 8.458-2.86 121.61-3.088 121.75-0.186 7.333-7.537 6.49-10.557 6.496-23.042 0.047-59.086-6e-3 -59.086-6e-3s-32.754 1.71-48.556-12.906c-7.438-6.88-16.153-18.612-15.505-30.949 1.912-36.38 39.597-61.173 77.675-59.945 2.603 0.084 4.25-1.624 5.344-4.168 0.958-5.103 2.166-12.579 3.019-16.92z" fill="#f79910" fill-rule="evenodd"/>
   <path d="m114.27 246.64c-1.038 5.399 2.452 9.171 5.776 7.662 31.117-14.125 37.178-16.456 66.387-30.082 2.895-1.351 6.153-5.776 0.967-8.134-27.551-12.523-38.121-18.247-52.03-24.495-3.55-1.595-7.589 1.429-8.511 5.21-5.022 20.606-7.379 29.399-12.589 49.839zm49.674-92.402c0.993-5.058 4.226-8.013 9.092-8.013h35.37c3.65 0 5.915 1.466 6.292 4.66 0.998 8.458-2.86 121.61-3.088 121.75-0.186 7.333-7.537 6.49-10.557 6.496-23.042 0.047-59.086-6e-3 -59.086-6e-3s-32.754 1.71-48.556-12.906c-7.438-6.88-16.153-18.612-15.505-30.949 1.912-36.38 39.597-61.173 77.675-59.945 2.603 0.084 4.25-1.624 5.344-4.168 0.958-5.103 2.166-12.579 3.019-16.92z" fill="none" stroke="#333" stroke-width="1.2374"/>
   <path d="m333.23 246.64c1.039 5.399-2.456 9.17-5.784 7.662-31.161-14.124-37.229-16.455-66.479-30.081-2.899-1.35-6.162-5.775-0.968-8.133 27.589-12.522 38.174-18.246 52.103-24.494 3.555-1.594 7.6 1.429 8.522 5.21 5.028 20.604 7.389 29.397 12.606 49.836zm-49.743-92.397c-0.995-5.057-4.232-8.013-9.105-8.013h-35.42c-3.655 0-5.923 1.466-6.3 4.66-1 8.458 2.864 121.6 3.092 121.74 0.187 7.333 7.548 6.49 10.571 6.496 23.075 0.047 59.169-6e-3 59.169-6e-3s32.8 1.71 48.624-12.905c7.448-6.879 16.175-18.611 15.526-30.948-1.914-36.378-39.652-61.17-77.783-59.941-2.607 0.084-4.255-1.624-5.352-4.168-0.959-5.103-2.168-12.579-3.022-16.919z" fill="#f79910" fill-rule="evenodd"/>
   <path d="m333.23 246.64c1.039 5.399-2.456 9.17-5.784 7.662-31.161-14.124-37.229-16.455-66.479-30.081-2.899-1.35-6.162-5.775-0.968-8.133 27.589-12.522 38.174-18.246 52.103-24.494 3.555-1.594 7.6 1.429 8.522 5.21 5.028 20.604 7.389 29.397 12.606 49.836zm-49.743-92.397c-0.995-5.057-4.232-8.013-9.105-8.013h-35.42c-3.655 0-5.923 1.466-6.3 4.66-1 8.458 2.864 121.6 3.092 121.74 0.187 7.333 7.548 6.49 10.571 6.496 23.075 0.047 59.169-6e-3 59.169-6e-3s32.8 1.71 48.624-12.905c7.448-6.879 16.175-18.611 15.526-30.948-1.914-36.378-39.652-61.17-77.783-59.941-2.607 0.084-4.255-1.624-5.352-4.168-0.959-5.103-2.168-12.579-3.022-16.919z" fill="none" stroke="#333" stroke-width="1.2374"/>
  </g>
 </g>
</svg>
