/* XPM */
static char * charselect_xpm[] = {
"64 64 33 1",
" 	c None",
".	c #7C7C7C",
"+	c #929292",
"@	c #A3A3A3",
"#	c #ACACAC",
"$	c #838383",
"%	c #9B9B9B",
"&	c #C3C3C3",
"*	c #CBCBCB",
"=	c #E3E3E3",
"-	c #ECECEC",
";	c #D3D3D3",
">	c #8B8B8B",
",	c #B3B3B3",
"'	c #FEFEFE",
")	c #F4F4F4",
"!	c #4B4B4B",
"~	c #1A1A1A",
"{	c #BBBBBB",
"]	c #DBDBDB",
"^	c #6B6B6B",
"/	c #000000",
"(	c #3B3B3B",
"_	c #0A0A0A",
":	c #5B5B5B",
"<	c #232323",
"[	c #131313",
"}	c #636363",
"|	c #737373",
"1	c #2B2B2B",
"2	c #343434",
"3	c #434343",
"4	c #535353",
"                                                                ",
"                                                                ",
"                                                                ",
"                                                                ",
"                                                                ",
"                                        .                       ",
"                                  .+@###+                       ",
"                              $%###&*=-;>>                      ",
"                          .+@#,&;=-''''*>>>                     ",
"                       >@#,&;-)'''''--'#%+>>                    ",
"                   $%##&;=)'''''';$!~.'#@%+>>                   ",
"                $@#{*]-''''''''''^///(]##@%+>>                  ",
"             $@,{;=)'''')]&*-'''',///_#&,##%+>>                 ",
"           %,&]-''''''*:<///[($='=~///};{{##%+>>                ",
"         >#*=''''''''@_//(|:~//~^-.///(]*{##@%+>>               ",
"        +,]''''''''';_//>'')={|_/(+_//_*]&{,#@%>>>              ",
"       >#=''''''''''://_])-)''';|/_////$-;&{,#@%>>>             ",
"       @&''''''''''-1//[-''''''''#[////!'=;&{,#@%>>>            ",
"      .%&-'''''')-)=[//_]''''''''']2///[=)];&{{#@+>>$           ",
"      %@;-''''---)'-[///#''''''''''#////%'-=*&.:#@+>>.          ",
"      %,=''#|---)'''1///!''''''''''=_///2-'-];(/|#%+>>          ",
"     $@&-'':/+-)''''!////&'''''''''':////2&'--$/2##%>$$         ",
"     %@;)'=1_~#-)'''%////3''''''''''%/////[>-]3/_@#@%>$         ",
"     @,]''>_[_2*-''''<////@'''''''''{///22//<<///@,@%>$$        ",
"    $@&-''![~[_4])'''+////~='''''''';///(]!/////(&,#@+>$        ",
"    %#;-'&<~~~~[.-''''(////!''''''''=_//('-%2_[^**{#@%>$        ",
"    @#]''|~<~~~~<@-''';[////.''''''';///^')'-;]-=*&##%>$$       ",
"   $%&='-3<<<<<<~2&''''{_////.''''''+//~]'-)---==;*{#%+$$       ",
"   %@*-'@11<<<<11<:]''''{[////3&)''@_//#'-)---==];*{#@+>$       ",
"   @#]))}111111111<.-)''';(/////<(1//<,'')--====]==-=={$..      ",
"  $%{='*322111211212@-'''')%1//////<>=''))--=---)'')-))& .      ",
"  +@&-)>(222222222223&''''''-{+$$%{-''')))--))'))------=.       ",
"  %@*-=}((222(2(((((2:]''''''''''''''))))))')----=====]-+       ",
"  %#;-#33(((((((((((3($-'''''''''''')')''-----=======]]=@       ",
" .%#&].33((33(33333333!#)'''''''''')'''---=======]]=]]]]#       ",
" .>>%#>!33333333!3!!3!!:*)'''''''')'---=====]]]]]]]]]];;#       ",
"  >>>@#^333!!!!!!!!!!4!!.=''''''''---==]]]]]]]]];]];];;;,       ",
"   >>%#@4!!!!!!4!44444444%--''))---=]]]]]]]]]];;;;;;;*;*,       ",
"   $$>@#>!!!44444::4:4::4}&-'))'-=]]]]]]]]];;;;;;;;*****{       ",
"    >>+@#.4444::::::::::}:%--))-==]];]];;;;;;;;*;******&,  .    ",
"     $>+@#}::4:}:}}:}}}}}}.;=---]];];];;;;;***;******&&&#  $    ",
"     $$>%#+::::}}}}}}}}^}}^&=--=];;;;;;;*;;******&&&&&&{#  .    ",
"      >$>%#$}}}}^}^^^^^^^^^#]--];;;;;;*********&&&&*&&&{#  $    ",
"       >$+%@|}}}^^^||^|||||#;=-];*;;*;*****&&&&&&&&*&&&&% ..    ",
"        $>+@+^^^^^|||||||||%;]=];*********&&&&&**&&&&&{#$..$    ",
"        $$>+@>^^^||.|.....|%*;=];******&&&&&&&&&&&&{&#+....$    ",
"         $$>%%.||||........+&;];****&*&&&&&**&&&&{{#%$....$     ",
"          $$>%+||.|..$$$$$$>&;];*&&&&&&&&&&&&&{{{,@>.. ..       ",
"           $$>%>||...$$>$$$+{*;**&&&&&&&&&&&&{{#@>.....         ",
"            $$>%$...$$>>>>>+{&;*&{&&&&&&&{{{,#@>. ...           ",
"            .$$>+$.$$$>>>>>+{&**&&&&&{&{{,,#%>.....             ",
"             $$$>>..$$$>+++%{{**&&{&{{{,#@%>$....               ",
"              $.$+>$$$>>>++%{{&&{{{{,##@%>$.$$                  ",
"               $.$>$$>>++>+@,{{{{###@%+>$..$                    ",
"                $.$>>>>>+++######@%%>>$..$                      ",
"                 $.$>>>>>+@@###@%++$$.$$                        ",
"                  ...$>>+%%%@%++>>$.$.                          ",
"                   .$.$$$>+++>>$$$$.                            ",
"                     $..$$$>$$$$.                               ",
"                       .$....$                                  ",
"                                                                ",
"                                                                ",
"                                                                ",
"                                                                "};
