/* XPM */
static char * locale_xpm[] = {
"75 75 356 2",
"  	c None",
". 	c #222222",
"+ 	c #2C2C2C",
"@ 	c #373737",
"# 	c #393939",
"$ 	c #383838",
"% 	c #363636",
"& 	c #323232",
"* 	c #252525",
"= 	c #1C1C1C",
"- 	c #232323",
"; 	c #434343",
"> 	c #5C5C5C",
", 	c #767676",
"' 	c #979797",
") 	c #A5A4A5",
"! 	c #AEAEAE",
"~ 	c #B0B0B0",
"{ 	c #B3B3B3",
"] 	c #AEB0B1",
"^ 	c #A6A4A5",
"/ 	c #969596",
"( 	c #828182",
"_ 	c #747374",
": 	c #5D5C5D",
"< 	c #3C3C3C",
"[ 	c #1F1F1F",
"} 	c #0F0F0F",
"| 	c #000000",
"1 	c #3D3D3D",
"2 	c #6A696A",
"3 	c #B1B1B1",
"4 	c #CBCBCB",
"5 	c #E1E1E1",
"6 	c #E7E7E7",
"7 	c #EFF0F0",
"8 	c #F7F8F8",
"9 	c #FEFEFE",
"0 	c #F8F9F9",
"a 	c #F1F1F1",
"b 	c #E7E8E8",
"c 	c #D6D7D7",
"d 	c #C3C3C3",
"e 	c #9D9D9D",
"f 	c #898989",
"g 	c #717272",
"h 	c #626262",
"i 	c #525252",
"j 	c #010101",
"k 	c #030303",
"l 	c #020202",
"m 	c #3A3A3A",
"n 	c #7B7B7B",
"o 	c #B7B7B7",
"p 	c #DAD9D8",
"q 	c #F8F8F8",
"r 	c #F9F7F6",
"s 	c #F3F3F3",
"t 	c #EEF0F0",
"u 	c #EBEBEB",
"v 	c #E3E3E3",
"w 	c #D7DDE1",
"x 	c #B8B6B7",
"y 	c #AAAFAB",
"z 	c #A0A1A1",
"A 	c #909091",
"B 	c #818181",
"C 	c #616161",
"D 	c #4C4C4C",
"E 	c #161616",
"F 	c #0B0B0B",
"G 	c #1B1B1B",
"H 	c #131313",
"I 	c #080808",
"J 	c #353534",
"K 	c #727272",
"L 	c #B9B9B9",
"M 	c #EEEEEE",
"N 	c #F6F6F6",
"O 	c #F6F5F4",
"P 	c #DDE8E7",
"Q 	c #D3D3D3",
"R 	c #A7B7C4",
"S 	c #ACB1AC",
"T 	c #A3A3A3",
"U 	c #9D9EA0",
"V 	c #9B9B9B",
"W 	c #8D8D8E",
"X 	c #808080",
"Y 	c #6F6F6F",
"Z 	c #555555",
"` 	c #323233",
" .	c #2B2B2B",
"..	c #151515",
"+.	c #444444",
"@.	c #939593",
"#.	c #DAD8D7",
"$.	c #F9F9F9",
"%.	c #B4B4B3",
"&.	c #A7A8A8",
"*.	c #989698",
"=.	c #909090",
"-.	c #7B7B7C",
";.	c #5B5B5C",
">.	c #343334",
",.	c #787879",
"'.	c #060606",
").	c #303030",
"!.	c #8E8E8E",
"~.	c #D3D3D2",
"{.	c #BBBBBB",
"].	c #ABABAB",
"^.	c #8B8B8B",
"/.	c #5A5B5B",
"(.	c #353535",
"_.	c #292929",
":.	c #262626",
"<.	c #585858",
"[.	c #C4C4C4",
"}.	c #3B3B3B",
"|.	c #333333",
"1.	c #0D0D0D",
"2.	c #343434",
"3.	c #919191",
"4.	c #CFCFCF",
"5.	c #668465",
"6.	c #4A724B",
"7.	c #71777B",
"8.	c #7F8990",
"9.	c #96A296",
"0.	c #95A2AB",
"a.	c #8E8E8F",
"b.	c #919091",
"c.	c #9C9C9C",
"d.	c #B1B2B2",
"e.	c #E0E0E0",
"f.	c #939393",
"g.	c #535353",
"h.	c #040404",
"i.	c #E0DFE0",
"j.	c #C7D0D6",
"k.	c #98A7B2",
"l.	c #517174",
"m.	c #377B36",
"n.	c #2A6D2A",
"o.	c #255D24",
"p.	c #294A2C",
"q.	c #2A424D",
"r.	c #284154",
"s.	c #475660",
"t.	c #777C83",
"u.	c #DBDBDB",
"v.	c #6B6B6B",
"w.	c #141414",
"x.	c #838384",
"y.	c #7D98AC",
"z.	c #376B9A",
"A.	c #2E766D",
"B.	c #44923D",
"C.	c #368636",
"D.	c #32742F",
"E.	c #206018",
"F.	c #153A5B",
"G.	c #1D364B",
"H.	c #3C505F",
"I.	c #C4C6C8",
"J.	c #050505",
"K.	c #527895",
"L.	c #3571A0",
"M.	c #29679A",
"N.	c #258553",
"O.	c #389229",
"P.	c #297628",
"Q.	c #1B641A",
"R.	c #12572C",
"S.	c #0B5855",
"T.	c #154676",
"U.	c #194268",
"V.	c #153B63",
"W.	c #123036",
"X.	c #0D4D31",
"Y.	c #374637",
"Z.	c #0C0C0C",
"`.	c #879CAC",
" +	c #467498",
".+	c #2D72A9",
"++	c #276DB4",
"@+	c #138B48",
"#+	c #1C784A",
"$+	c #1B685A",
"%+	c #166776",
"&+	c #104F90",
"*+	c #0E4A84",
"=+	c #0A5737",
"-+	c #144A14",
";+	c #101010",
">+	c #2D75B5",
",+	c #2D78C6",
"'+	c #3682CA",
")+	c #3179D6",
"!+	c #1B6C85",
"~+	c #19726B",
"{+	c #0E6051",
"]+	c #11612E",
"^+	c #213921",
"/+	c #737373",
"(+	c #3A89D6",
"_+	c #3F8EE1",
":+	c #327DC5",
"<+	c #058603",
"[+	c #067801",
"}+	c #178715",
"|+	c #278926",
"1+	c #318F2D",
"2+	c #064B07",
"3+	c #193418",
"4+	c #4A97D9",
"5+	c #529ED7",
"6+	c #55A7E7",
"7+	c #4587C2",
"8+	c #059504",
"9+	c #1B9819",
"0+	c #279927",
"a+	c #359635",
"b+	c #3A9C3A",
"c+	c #023302",
"d+	c #F0EEED",
"e+	c #3478B6",
"f+	c #6FB6E1",
"g+	c #88D3F1",
"h+	c #5DB1EA",
"i+	c #3E7CAD",
"j+	c #0C8428",
"k+	c #39A439",
"l+	c #41A041",
"m+	c #175A17",
"n+	c #031D03",
"o+	c #5B5B5B",
"p+	c #C2CBD2",
"q+	c #426E91",
"r+	c #A3DCE7",
"s+	c #BBEFF0",
"t+	c #B3F3F8",
"u+	c #94E4EC",
"v+	c #76C1EA",
"w+	c #55A2CD",
"x+	c #4791CA",
"y+	c #258D8C",
"z+	c #8DA1B4",
"A+	c #408FE1",
"B+	c #69B4E4",
"C+	c #78D2E8",
"D+	c #4589B5",
"E+	c #2AA62A",
"F+	c #032504",
"G+	c #242C25",
"H+	c #4B4B4B",
"I+	c #B3ECEF",
"J+	c #DCF5F4",
"K+	c #60B5D6",
"L+	c #187615",
"M+	c #096706",
"N+	c #095707",
"O+	c #4D5F4D",
"P+	c #333937",
"Q+	c #64DA9C",
"R+	c #15B517",
"S+	c #068510",
"T+	c #137838",
"U+	c #0A5B18",
"V+	c #06354C",
"W+	c #003623",
"X+	c #043A07",
"Y+	c #646364",
"Z+	c #356487",
"`+	c #1ECF22",
" @	c #28E225",
".@	c #0BC709",
"+@	c #07A714",
"@@	c #07A606",
"#@	c #046414",
"$@	c #0C486B",
"%@	c #083D75",
"&@	c #073258",
"*@	c #012B52",
"=@	c #2B608A",
"-@	c #4EA1ED",
";@	c #6CC3F6",
">@	c #45E545",
",@	c #45D845",
"'@	c #41C941",
")@	c #3AB63A",
"!@	c #208A1E",
"~@	c #0E5828",
"{@	c #0A3966",
"]@	c #4697E6",
"^@	c #77CAF9",
"/@	c #21C746",
"(@	c #41B541",
"_@	c #126141",
":@	c #1C5176",
"<@	c #00292A",
"[@	c #90A0AD",
"}@	c #63B8F8",
"|@	c #3EC982",
"1@	c #10D708",
"2@	c #3CDA3C",
"3@	c #265884",
"4@	c #2A537C",
"5@	c #5CB3F1",
"6@	c #185646",
"7@	c #345A89",
"8@	c #022648",
"9@	c #335671",
"0@	c #265C95",
"a@	c #296BA5",
"b@	c #2ACB2A",
"c@	c #6DE56B",
"d@	c #3AC73A",
"e@	c #254D78",
"f@	c #00251E",
"g@	c #19271A",
"h@	c #15588A",
"i@	c #4CB6BB",
"j@	c #1BA33B",
"k@	c #154738",
"l@	c #21466C",
"m@	c #01233E",
"n@	c #051A1A",
"o@	c #56A7F4",
"p@	c #22B11B",
"q@	c #001D3A",
"r@	c #000F21",
"s@	c #87929B",
"t@	c #2A9D70",
"u@	c #011527",
"v@	c #131F29",
"w@	c #1E65A6",
"x@	c #4C96F5",
"y@	c #309D80",
"z@	c #84878A",
"A@	c #18445B",
"B@	c #325A93",
"C@	c #165994",
"D@	c #1E4A88",
"E@	c #08B904",
"F@	c #303A40",
"G@	c #404941",
"H@	c #1E2B21",
"I@	c #817F82",
"J@	c #0E0E0E",
"K@	c #070707",
"L@	c #0A0A0A",
"M@	c #242424",
"N@	c #484848",
"O@	c #1E1E1E",
"                                                                                                                                                      ",
"                                                                                                                                                      ",
"                                                                                                                                                      ",
"                                                                                                                                                      ",
"                                                                                                                                                      ",
"                                                                                                                                                      ",
"                                                    . + @ # # $ % & * =                                                                               ",
"                                            - ; > , ' ) ! ~ { ] ^ / ( _ : < + [ }                                                                     ",
"              | | | | | | |             1 2 ' 3 4 5 6 7 8 9 0 a b c d ! e f g h i & [                                                                 ",
"            | | j k l | | | |       m n o p 6 a q r s t t u u u v w 4 d x y z A B , C D + E                                                           ",
"            | | F G H | | | I G J K L 5 M N O u v u t t t s s r s u P Q R S T U V / W X Y Z ` H                         |                             ",
"            | | H  .- | | l ..+.@.#.a $.s u v u t t t s s s r r 9 r u Q 4 d x %.&.T U V *.=.-.;.>.H               ; ,.- l |                           ",
"            | | H  . .k | '.).!.~.s a v v v u t t t s s r s r r r r s v Q 4 {.S x %.%.].&.T U *.^./.(._.- :.@ <.f [.d }.| | |                         ",
"            | | H  .|.1.j I 2.3.4.u v v u u u u s s t s s r r r r 9 9 Q %.V 5.6.7.7.8.9.%.%.].&.&.T 0.a.b.c.d.e.9 r f.g.| | |                         ",
"            | | F  .|.} l h.G ^.x i.v v u u u u s s s r s r r 9 r j.k.l.m.n.n.o.p.q.r.r.s.t.&.{.x d u.s 9 9 9 9 r Q f.v.| | |                         ",
"              | F - }.w.j j F x.S u.v u u u s u t s s r s 9 9 P y.z.z.A.B.C.m.D.E.p.F.F.F.G.H.t.{.4 u.u u u u i.u.I.V n G J.|                         ",
"              | F  .}.G | | | n &.u.v u v u u s s s s r 9 r R K.z.L.M.N.O.P.P.Q.R.S.T.U.V.F.W.X.Y.T u u u v v v v Q &.^.+.Z.| |                       ",
"              | F - }.- | | | g.&.Q v u u u t s s s s 9 t `. +L..+.+++@+#+$+%+&+&+&+*+*+T.=+D.Q.-+p.T u u u u w v u.%.^.g.;+| |                       ",
"              | F - }. .F | | }.T I.v v u u t u s s r r `.z.L..+>+,+,+'+)+,+++!+~+{+S.S.]+P.B.C.n.-+^+T u u v v v i.d *./+} j |                       ",
"              | | G }.|.F | |  .*.d v u u u t t t r 9 R  +z..+>+'+(+(+_+(+'+:+%+<+<+[+[+}+|+1+C.C.P.2+3+S u u v v v 4 V x.- l |                       ",
"              | | G }.}.F | | - ^.x u.u u t t t t 9 u. +L..+>+'+(+4+5+6+6+4+7+'+A.8+9+0+0+a+a+b+C.C.n.c+Y.Q v v v w Q &.^.+.| |                       ",
"              | | G }.+.H | | H x.S u.u u u d+s r s y.z.L.e+'+(+5+f+g+g+f+h+5+7+i+j+8+k+b+B.l+N.a+C.C.m+n+x.u.v v i.u.%.f.o+| | |                     ",
"              | j H }.+.G | | F v.].Q u u u s s r p+q+z.>+e+(+4+f+r+s+t+u+v+w+x+x+y+<+9+k+k+k+k+b+b+a+P.c+Y.{.v v i.u.d *./+| | |                     ",
"                l H |.+.- | | | g.&.Q v u u s s r z+z..+>+'+A+B+r+P d+t t+C+B+w+D+i+#+8+E+k+k+k+k+l+a+1+2+F+f.u.i.u.u.4 T x.G+| |                     ",
"                j 1.|.H+ .| | | }.U I.v u u s s w K.z..+e+'+4+f+I+u d+J+t+C+K+w+D+7+i+j+8+O.l+l+l+1+L+M+N+F+O+4 v u.u.4 ].f.+.| |                     ",
"                | Z. .H+P+F | |  .*.{.i.u u t r p+z.L..+'+(+5+v+I+J+J+t+Q+R+8+8+S+N.~+T+}+E+k+B.}+U+X.V+W+X+^+%.i.u.u.Q x f.Y+| | |                   ",
"                | F - H++.H | | G ^.%.u.u u t r k.Z+M..+'+(+4+B+u+t+t+u+`+ @.@.@+@@@8+<+9+k+l+|+#@$@%@&@*@X+F+*.v u.Q Q {.V v.F j |                   ",
"                | | - H++.H | | F x.].Q u u s s k.=@M.>+'+_+-@h+;@g+g+C+.@ @>@,@'@)@E+E+0+a+!@[+~@*+%@{@*@W+c+f.w u.Q Q 4 &.x. .| | |                 ",
"                | | - +.H+G | | | v.T Q u u t s k.=@M.>+'+(+]@h+;@;@^@^@/@ @>@,@'@(@(@k+b+}+#@_@:@T.{@&@*@<@c+f.u.u.Q Q 4 &.f.H+| | |                 ",
"                  | G +.g.- | | | +.U 4 v u u s [@Z+M..+:+(+]@-@h+}@;@^@|@1@2@,@'@)@)@k+k+L+R.M.3@V.V.&@*@<@3+*.u.Q Q Q 4 %.*.Y+| | |                 ",
"                  j F +.g. .F | | |.f.{.i.u u d+`.4@M..+:+(+]@]@5@5@;@^@|@2@2@,@'@)@k+k+1+M+6@7@4@V.{@*@8@<@3+*.u.u.Q Q 4 x V /+F | |                 ",
"                  | F }.g.}.F | | - ^.%.u.u u s &.9@0@a@e+(+A+]@5@5@;@K+b@c@2@2@d@)@E+a+L+m+Z+7@e@T.F.*@8@f@g@*.u.Q Q 4 4 d T ^.|.| | |               ",
"                  | Z.|.o+}.F | | F x.].Q v u t I.9@h@a@.+:+(+]@-@-@5@i@j@.@b@,@d@)@k+0+M+k@q+4@l@V.&@*@m@n@Y.T Q Q Q 4 4 d &.f.H+| | |               ",
"                  | J. .g.H+H | | | v.&.4 v u t v l.e@0@a@>+(+_+]@-@o@5@5@+@@@p@E+k+b+|+N+k@7@e@U.F.*@8@q@r@Y+%.Q Q 4 4 4 d S f.Y+| | |               ",
"                  | J.- g.g.- | | | +.U d u.u u d+s@l@h@M..+,+(+_+]@-@o@5@t@N.@++@8+M+U+U+q.e@l@F.*@8@m@u@v@n I.Q Q 4 4 I.d %.V n F | |               ",
"                    k H H+g.- F | | |.f.x u.v u u d 9@l@h@w@++,+'+_+_+]@x@o@o@o@y@#@A.z.7@4@l@V.G.8@8@q@r@P+f.Q Q 4 4 I.d d x V ^.|.| |               ",
"                    j F +.o+ .F | | G ^.].Q v v u u z@A@:@h@w@a@,+)+(+_+_+A+]@x@7+e+e+B@3@l@V.&@8@m@<@n@n@Y+].Q Q 4 I.d d d x &.f.g.| | |             ",
"                    | F }.o+|.F | | F n &.4 v v v v 4 s.A@:@h@C@a@++,+)+'+)+e+y+j@%+C@D@T.{@*@m@W+2+c+n+P+x.d Q 4 4 4 d d {.x ].*.Y+| | |             ",
"                    | k  .o++.H | | | g.V {.i.v v u u &.G.U.T.&+h@%+%+!+~+@++@E@.@<+#@6@X.-+2+N+2+X+n+- Y+&.4 4 4 I.I.{.{.{.x ].*.n H | |             ",
"                      k G o+g.G | | |  .f.%.Q v i.v v v z@W.&@T.{+}+8+8+@@@@R+b@d@p@8+[+[+M+N+-+X+n+g@g.z@S d 4 4 I.d {.{.x x %.T ^.}.| |             ",
"                      l F H+o+- F | | G x.&.4 i.v v v v u.f.W.m@]+N.!@9+0+E+(@(@(@(@1+|+L+n.-+X+n+g@H+n V S {.4 4 d {.{.x x x {.].*.H+| |             ",
"                      | F +.Y+|.F | | | v.U {.u.i.i.v v u u.U F@c+-+E.P.1+a+a+b+a+a+|+n.o.-+F+n+G+g.v.^.T &.x d d d {.{.x {.{.].f.g.F | |             ",
"                      | k  .Y++.H | | | }.*.S Q u.u.i.w v v i.d /+3+c+X+2+N+U+Q.Q.U+-+c+F+H g@}.o+/+x.f.V T S {.d {.x {.{.{.&.^.}.| | | |             ",
"                        k G o+o+G | | | G z@T d u.u.u.i.i.i.v i.Q ].n G@H@g@F+n+n+F+g@G+P+g.o+v.n x.^.^.f.U ].{.d {.d d {.T n  .| | | | |             ",
"                        k H H+Y+- F | | | v.V x Q u.Q u.u.i.i.i.i.v u.d &.V ^.I@n I@z@z@x.x.^.^.f.f.^.^.f.*.&.%.{.d d S *.Y+H | | | | |               ",
"                        | F }.Y+}.F | | | }.f.].4 Q Q u.u.u.u.u.u.v v v v i.Q 4 d 4 4 {.x S T V *.f.f.f.V T ].{.I.{.&.^.+.| | | | | |                 ",
"                        | k  .Y+g.H | | | G x.U {.Q Q Q Q Q u.u.u.u.u.u.u.i.u.u.u.w u.Q x U ^./+Y+o+Y+v.x.^.&.S %.*.v.- | | | | | |                   ",
"                          l H g.Y+- | | | | Y+V %.4 Q Q Q Q Q Q Q Q u.u.Q Q u.Q i.v u.%.^.o+|.G F F H - |.H+Y+v.Y+}.| | | | | |                       ",
"                          | J@+.v.|.F | | | |.f.T {.4 Q 4 Q Q Q Q Q Q Q Q Q Q i.v Q &.v. .| | | | | | | | | | | | | | | | | |                         ",
"                          | F |.Y+H+H | | | H x.*.x I.4 4 4 4 4 Q Q Q 4 Q Q u.Q {.*.H+F | | | | | | | | | | | | | | | | |                             ",
"                          | K@* o+o+G | | | | o+f.&.d 4 4 4 4 4 4 4 4 4 Q Q I.].n  .| | | | | | | | | | | | | | | | | |                               ",
"                            h...H+v. .F | | |  .^.V x d d I.I.4 4 d 4 Q 4 {.V Y+F | | | | | |                                                         ",
"                            | L@}.v.+.F | | | F n f.].d d d d d d d 4 I.].^.+.| | | | | |                                                             ",
"                            | '.- o+o+H | | | | +.f.V x d d d d d I.x T n  .| | | | | |                                                               ",
"                              k } H+Y+- F | | | G x.f.&.d {.{.d {.].*.v.H | | | | |                                                                   ",
"                              | } }.Y++.F | | | F v.f.V %.{.{.%.T ^.g.F | | | | |                                                                     ",
"                              | '.M@g.o+F | | | | |.^.f.].{.].*.^.+.| | | | | |                                                                       ",
"                                h.w.N@Y+G+| | | | H n ^.&.&.*.x.|.| | | | |                                                                           ",
"                                | F & Y++.| | | | | H+f.f.*./+- | | | | |                                                                             ",
"                                | J.O@H+o+F | | | | - x.f.v.H | | | | |                                                                               ",
"                                  j F }.Y+|.| | | | | v.Y+F | | | | |                                                                                 ",
"                                  | K@M@g.H+| | | | | G F | | | |                                                                                     ",
"                                    k ;+}.g.G | | | | | | | | |                                                                                       ",
"                                    | '.- H++.| | | | | | | |                                                                                         ",
"                                      k } |.}.F | | | | | |                                                                                           ",
"                                      | h.F | | | | | | | |                                                                                           ",
"                                        | | | | | | | | | |                                                                                           ",
"                                      | | | | | | | | | |                                                                                             ",
"                                        | | | | | | | | |                                                                                             ",
"                                                                                                                                                      ",
"                                                                                                                                                      ",
"                                                                                                                                                      ",
"                                                                                                                                                      ",
"                                                                                                                                                      ",
"                                                                                                                                                      "};
