<?xml version="1.0" encoding="UTF-8"?>
<svg width="100" height="100" version="1.1" viewBox="0 0 26.458 26.458" xmlns="http://www.w3.org/2000/svg" xmlns:xlink="http://www.w3.org/1999/xlink">
 <defs>
  <linearGradient id="linearGradient2" x1="282.85" x2="308.26" y1="686.41" y2="766.07" gradientTransform="matrix(.33543 0 0 .3424 20.412 -112.47)" gradientUnits="userSpaceOnUse">
   <stop stop-color="#f79910" offset="0"/>
   <stop stop-color="#f79910" stop-opacity="0" offset="1"/>
  </linearGradient>
 </defs>
 <g transform="translate(-108.74 -120.91)">
  <g transform="matrix(.7938 0 0 .7938 25.36 29.37)">
   <path d="m116.76 131.81c-0.92746 3.8845-1.0371 4.5111-2.2752 9.3026-1.067 0.49099-2.2326 1.0286-3.5277 1.6288-1.115 0.51669-2.2853-0.77484-1.9374-2.6234 1.7476-6.9986 2.5382-10.009 4.2227-17.064 0.30892-1.2946 1.6637-2.33 2.8548-1.7839 4.6655 2.1393 8.211 4.0992 17.452 8.387 1.7399 0.80701 0.64804 2.3256-0.32435 2.785-4.7208 2.23-4.7208 2.2294-4.7208 2.2294-3.9607-2.0403-6.0287-3.0011-8.8895-4.3128-1.1908-0.54647-2.5456 0.15716-2.8548 1.4518z" fill="url(#linearGradient2)" fill-rule="evenodd" stroke-width=".3389"/>
   <path d="m109.02 140.12c-0.34817 1.8486 0.82248 3.1401 1.9374 2.6234 10.438-4.8364 12.471-5.6345 22.268-10.3 0.97107-0.46258 2.0639-1.9777 0.32435-2.7851-9.2414-4.2878-12.787-6.2477-17.452-8.387-1.1908-0.54614-2.5456 0.48926-2.8548 1.7839-1.6845 7.0554-2.4751 10.066-4.2227 17.065z" fill="none" stroke="#f79910" stroke-width=".41935"/>
  </g>
 </g>
</svg>
