/* XPM */
static char * penguhangry_xpm[] = {
"77 90 33 1",
" 	c None",
".	c #939393",
"+	c #5D5D5D",
"@	c #363636",
"#	c #6D6D6D",
"$	c #737373",
"%	c #434343",
"&	c #292929",
"*	c #1C1C1C",
"=	c #121212",
"-	c #0A0A0A",
";	c #000000",
">	c #9A9A9A",
",	c #8A8A8A",
"'	c #535353",
")	c #848484",
"!	c #393939",
"~	c #7C7C7C",
"{	c #656565",
"]	c #494949",
"^	c #222222",
"/	c #898899",
"(	c #828294",
"_	c #7E7D84",
":	c #706F74",
"<	c #91919A",
"[	c #7C7C90",
"}	c #73748A",
"|	c #6A6C84",
"1	c #62657F",
"2	c #6F7087",
"3	c #77788D",
"4	c #666881",
"                                                                             ",
"                                                                             ",
"                                                                             ",
"                                                                             ",
"                                                                             ",
"                                                 .+@@#                       ",
"                                        $%&*=-;;;;;;;->                      ",
"                              ,'&**--;;;;;;;;;;;;;;;;->                      ",
"                     )%&*=-;;;;;;;;;;;;;;;;;;;;;;;;-&#                       ",
"              '-;;;;;;;;;;;;;;;;;;;;;;;;;;-;;--=-----%                       ",
"              ;;;;;;;;;;;;;;;;;;;;;;;;;;;;;;;;;;;;;;;;>                      ",
"              ;;;;;;;;;;;;;;;;;;;;;;;;;;;;;;;;;;;;;;;;>                      ",
"              '--;;;;;;;;;;;;;;;;;;;;;;;;;;;;;;;;;;;-!                       ",
"                 ;;;;;;;;;;;;;;;;;;;;;;;;;;;;;;)                             ",
"                 ;;;;;;;;;;;;;;;;;;;;;;;;;;;;;;>                             ",
"                 '-;--;;;;;;;;;;;;;;;;;;;;;;;-!                              ",
"                     >;;;;;;;;;;;;;;;;;;;;;-=-=+                             ",
"                     >;;;;;;;;;;;;;;;;;;;;;;;;;;                             ",
"                      %----;;;;;;;;;;;;;;;;;;;;;                             ",
"                                ~&-;;;;;;;;;;;;@                             ",
"                            ~&-;;;;;;;;;;--&{                                ",
"                        {*-;;;;;;;;;;;-@)                                    ",
"                     !;;;;;;;;;;;;;--****&{                                  ",
"                    >;;;;;;;;;;;;;;;;;;;;;;)                                 ",
"                    >;;;;;;;;;;;;;;;;;;;;;;~                                 ",
"                     ]=-=***********=-;;;;^                                  ",
"                                   )-;;;;]                                   ",
"                                  ';;;;-)                                    ",
"                                 @;;;;&                                      ",
"                                >;;;;'                                       ",
"                                >-;-,                                        ",
"                                 )~                                          ",
"                                                                             ",
"                                                                             ",
"                                 //////                                      ",
"                            ////////////////                                 ",
"                          /////////////////////                              ",
"                        /////////////////////////                            ",
"                      ////////////////////////////                           ",
"                     ///////////////////////////////                         ",
"                   //////////////////////////////////                        ",
"                  ////////////////////////////////////                       ",
"                 //////////////////////////////////////                      ",
"                 ///////////////////////////////////////                     ",
"                /////////(///////////////////////////////                    ",
"               ///////////////////////////////////////////                   ",
"              /////////////////////////////////////////////                  ",
"              /////////////////////////////////////////////                  ",
"             ///////////////////////////////////////////////                 ",
"             ///////////////////////////////////////   //////                ",
"               ///////////////////////////////////     //////                ",
"                  /////////////////////////////        ///////               ",
"                     ////////////////////////_{       ////////               ",
"           //          ////////////////////:*;        /////////              ",
"           //         ;@  ///////////// <#;;;$       //////////              ",
"          ////         ;;;   ////////    !;;*       ////////////             ",
"          /////        @;;{    <//         !        ////////////             ",
"          //////        {       //                 //////////////            ",
"          ///////             //////              ///////////////            ",
"         //////////         [}|111123(          /////////////////            ",
"         ////////////////(|11111111111|(/// //////////////////////           ",
"         //////////////3|1111111111111112(////////////////////////           ",
"         ////////////341111111111111111114[///////////////////////           ",
"        ///////////(441111111111111111111113///////////////////////          ",
"        ///////////411111111111111111111111[///////////////////////          ",
"        ///////////31111111111111111111114(////////////////////////          ",
"        ////////////11111111111111111111|(/////////////////////////          ",
"        ////////////}111111111111111111}////////////////////////////         ",
"        ////////////(11111111111111111[/////////////////////////////         ",
"        /////////////|111111111111114(//////////////////////////////         ",
"        /////////////311111111111112(///////////////////////////////         ",
"       ///////////////1111111111113/////////////////////////////////         ",
"       ///////////////}1111111114[///////////////////////////////////        ",
"       ///////////////(411111114(////////////////////////////////////        ",
"       ////////////////|111114|//////////////////////////////////////        ",
"       ////////////////3111113///////////////////////////////////////        ",
"       /////////////////1114[////////////////////////////////////////        ",
"       /////////////////}1|(/////////////////////////////////////////        ",
"       /////////////////(|///////////////////////////////////////////        ",
"       //////////////////////////////////////////////////////////////        ",
"       ///////////////////////////////////////////////////////////////       ",
"       ///////////////////////////////////////////////////////////////       ",
"       ///////////////////////////////////////////////////////////////       ",
"                                                                             ",
"                                                                             ",
"                                                                             ",
"                                                                             ",
"                                                                             ",
"                                                                             ",
"                                                                             "};
