/* XPM */
static char * bomboclat_xpm[] = {
"94 75 127 2",
"  	c None",
". 	c #F5F5F5",
"+ 	c #000000",
"@ 	c #AFAEAC",
"# 	c #F3F3F2",
"$ 	c #B1B0AE",
"% 	c #F1F1F1",
"& 	c #D7D6D6",
"* 	c #F0F0F0",
"= 	c #C7C7C5",
"- 	c #030303",
"; 	c #040404",
"> 	c #ACABA9",
", 	c #DFDEDE",
"' 	c #F3F2F2",
") 	c #DCDBDA",
"! 	c #D0CFCE",
"~ 	c #E9E8E8",
"{ 	c #A7A6A4",
"] 	c #BEBDBB",
"^ 	c #EFEFEF",
"/ 	c #BCBBBA",
"( 	c #AAA9A7",
"_ 	c #D2D2D1",
": 	c #C7C6C4",
"< 	c #BFBEBD",
"[ 	c #E1E1E0",
"} 	c #010101",
"| 	c #F3F3F3",
"1 	c #C2C1C0",
"2 	c #D6D6D5",
"3 	c #A7A6A5",
"4 	c #F2F2F2",
"5 	c #020202",
"6 	c #E8E8E7",
"7 	c #BBBAB9",
"8 	c #E6E6E5",
"9 	c #A8A7A5",
"0 	c #C7C6C5",
"a 	c #E2E1E1",
"b 	c #B0AFAE",
"c 	c #8A8B8B",
"d 	c #C8C7C6",
"e 	c #EBEAEA",
"f 	c #B6B5B3",
"g 	c #E7E7E7",
"h 	c #F4F4F3",
"i 	c #ACABAA",
"j 	c #838484",
"k 	c #5B5B5B",
"l 	c #C4C4C3",
"m 	c #ECEBEA",
"n 	c #E3E3E2",
"o 	c #AEADAC",
"p 	c #E3E2E1",
"q 	c #AEADAB",
"r 	c #ECECEC",
"s 	c #E3E3E3",
"t 	c #BDBCBB",
"u 	c #B9B8B7",
"v 	c #E6E5E5",
"w 	c #EFEEEE",
"x 	c #A9A8A6",
"y 	c #DBDBDA",
"z 	c #EEEEED",
"A 	c #F5F4F4",
"B 	c #F0EFEF",
"C 	c #DDDDDC",
"D 	c #818181",
"E 	c #838384",
"F 	c #828383",
"G 	c #B6B6B4",
"H 	c #DEDDDD",
"I 	c #DFDFDE",
"J 	c #B7B6B5",
"K 	c #BBBBB9",
"L 	c #AAA9A8",
"M 	c #B9B8B6",
"N 	c #B8B7B6",
"O 	c #E8E8E8",
"P 	c #C1C1BF",
"Q 	c #EEEEEE",
"R 	c #636364",
"S 	c #5C5D5E",
"T 	c #49494A",
"U 	c #3D3E3F",
"V 	c #B3B3B1",
"W 	c #DADAD9",
"X 	c #EDEDEC",
"Y 	c #D9D8D7",
"Z 	c #B0AFAD",
"` 	c #303031",
" .	c #333435",
"..	c #EDEDED",
"+.	c #ABAAA8",
"@.	c #C4C3C2",
"#.	c #B4B4B2",
"$.	c #515253",
"%.	c #E3E2E2",
"&.	c #EBEBEB",
"*.	c #EBEBEA",
"=.	c #C5C5C4",
"-.	c #C3C2C1",
";.	c #3D3D3E",
">.	c #F5F5F4",
",.	c #E9E9E8",
"'.	c #AFAEAD",
").	c #B1B0AF",
"!.	c #B8B7B5",
"~.	c #CBCBCA",
"{.	c #B2B1AF",
"].	c #B5B4B3",
"^.	c #6F6F70",
"/.	c #838383",
"(.	c #7A7A7B",
"_.	c #7E7E7E",
":.	c #7E7E7F",
"<.	c #4F5051",
"[.	c #606060",
"}.	c #2B2B2C",
"|.	c #232323",
"1.	c #2C2C2D",
"2.	c #565657",
"3.	c #3E3E3E",
"4.	c #767676",
"5.	c #373738",
"6.	c #6D6D6D",
"                                                                                                  . . . . .           .                                                                     ",
"                                                                                                . . . + + + . . . . . . . . .                                                               ",
"      .             @ #                                                                   . . . . + + + + + + + . . + + + . . .                                                             ",
"      .             $ %                                                                 . . . + + + + + + + + + + + + + + + + + . .                                                         ",
"& . . . . . . . . . * =                                                             . . . + + + + + + + + + + + + + + + + + + + + . . .                                                     ",
"      .                                                                           . . - - + + - + + + + + - + + + + + + + + -   + + + . .                                                   ",
"                                                                                . . ; + + + + + + + + + + ; + + + + + + + + + + + + + + . .                                                 ",
"      > , ' . . . . . .                                                       . . ; + + + + + + + + + + + + + + + + + + + +   + + + + + + . . .                                             ",
"      ) !   ~ $ { ] ^ /                                                     . . - + + + - + + + + + + + + + + + + + + + + + + + + + + + + + + . .                                           ",
"      * (   _ :     < [                                                   . . ; + + + + ; + + } + + + + + } } + + } } + }   + + + + + + + + + + . .                                         ",
"      |     1 2     3 4                                                 . . - + + + + + - + + - + + + + - - + + + - + + + 5 + + + + + + + + + + + .                                         ",
"      6 @   7 8     9 #                                               . . ; + + + + + + ; + + ; + + + + ; ; + + . . . . 5 + + + + + + + + + + + + . .                                       ",
"      0 a b   ^ <   ! , c                                           . . ; + } ; ; ; ; ; ; + + ; + . . . . . . . . . . . . + + + + 5 + + + + + + + + .                                       ",
"        d e   f g h [ i                                             . ; + 5 ; ; 5 5 5 ; ; + . . . . . . . . . . . . . . . . . + + + + + + + + + + + . .                                     ",
"                      j                                           . . + ; ; 5 + + + + + . . . . . . . . . + + . + + . . . . . . + + + + + + + + + + + .                                     ",
"                                                                . . ; + ; + + + + + + . . . . . + + + + + + + + + + + + + . . . . + + + . + + + + + + . .                                   ",
". . . . . . . . . . . .                                         . . + ; + 5 ; 5 ; 5 . . . . . . + + + + + + + + + + + + + . . . . . + + . . + + + + + + .                                   ",
"  k                                                           . . 5 + 5 + ; + . + + . . . + + + + + + + + + + + + + + + + + + . . . + + . . . + + + + + . .                                 ",
"                                                              . ; 5 + + 5 + . . + . . . . + + + + + + + + + + + + + + + + . . . . . + + + . . . + + + + + .                                 ",
"        l e       m 0                                         . 5 5 + + + + . . . . . . . + + + + + + + + + + + + + + + + . . . . . . + + . . . + + + + + .                                 ",
"      ] n b       o p d                                     . . 5 + 5 + + . . . . . . . . + + + + + + + + + + + + + + + + . . . . . . + + . . . + + + + + . .                               ",
"      n q           $ r                                     . 5 5 + + + + . . . . . . . + + + + + + + + + + + + + + + + + + + + . . . . . . . . . + + + + + .                               ",
"      |               h                                     . 5 5 + + 5 + . . . . . . . . . . + + + + } } } } + + + + + + + . . . . . . . . . . . + + + + + .                               ",
"      s t           u v                                   . . 5 5 5 + + . . . . . . . . . . . . + + + + + + + + } + + + + . . . . . . . . . . . . + + + + + . .                             ",
"      u w 1 (   x < r 7                                   . . 5 5 + + + . . . . . . . . . . . . . . + + + + + + } + + + . . . . . . . . . . . . . + + + + + + .                             ",
"        f y z A B C f                                     . . + + + + + . . . . + + + . . . . . . . . . + . . . . + + . . . + + + . . . . . . . . . + + + + + .                             ",
"                  D E F                                   . 5 + + + + + . . . . . . . . . . . . . . . . . . . . . . . . . . . . . . . . . . . . . . . + . . . . . .                         ",
"                                                          . 5 5 + + + + . . . . . . . . . . . . . . . . . . . . . . . . . . . . . . . . . . . . . . . . . . . . + .                         ",
"        G H B A * I J                                   . . 5 5 . . + + . . . . . . . . . . . . . . . . . . . . . . . . . . . . . . . . . . . . . . . . . + + . + . . .                     ",
"      K z 1 (   L 1 z /                                 . ; . . + + . . . . . . . . . . . . . . . . . . . . . . . . . . . . . . . . . . . . . . . . . . . . + . + + } . . .                 ",
"      g M           N 6                               . . ; . . + + . . . . . . . . . . . . . . . . . + . . . . . . . . . . . . . . . . . . . . . . . . . . . . + + + . . ;                 ",
"      h               h                             . . ; + . + + . . . . . . . . . . . . . . . . . . + + . . . . . . + . . . . . . . . . . . . . . . . + . . . . . . . .                   ",
"      g u           u O                             . + + . . + . . . . . . . . . . . . . . . . . . . + + . . . . . . + + . . . . . . . . . . . . . . + + + + . + . . . .                   ",
"      / z 1 (   ( P Q ]                             . . . + . . . . . . . . . . . . . . . . . . . . . + + . . . . . . + . . . . . . . . . . . . . . . + + + + . + + + + ;                   ",
"        J C ^ A B H N R S                             . . + . . . + + + . . . . . . . . . . . . . . . . + . . . . . + + . . . . . . . . . . . . . . . + 5 5 ; . .                           ",
"                      T U                             . . + . . . . + + . . . . . . . . . . . . . . . . + . . . . . + + . . . . . . . . . . . . . . + + + + . . .                           ",
"                                                      . . . . . + . + + . . . . . . . . . . . . . . . . + . . . . . + + + + + . . . . . . . . . . . + + + + . + -                           ",
"        V W Q h X Y Z `  .                              . . . + + . + + . . . . . . . . . . . + + + + + . . . + + . . + + + + + + + . . . . . . . . . 5 5 5 . .                             ",
"      N ..P (   +.@.X #.$.                              . . . + + . . + . . . . . . . . + + + + + + + + . . . + + . . . + + + + + + + + + . . . . . . ; ; ; ; .                             ",
"      s M           K %.                                . . . + + . . + . . . . . . . . + + + + + + + . . . + + + . . . + + + + + + + + + . . . . . . + . + + . . .                         ",
"      |               h                                   . . + . . + + . . . . . . . . + + + + + + + . . . + + + . . . . . . + + + + + + . . . . . + + . . . . . .                         ",
"      &.K           J *.                                      . . . + + . . . . . . . + + + + + + + . . . . + + + . . . . . . + + + + + . . . . . . + + . . .                               ",
"      =.* -.(   9 ] ..P ;.                                  . . . . . + + . . . . . . . . . . . . . . . . . + + + . . . . . . . . . . . . . . . . . + + . . .                               ",
". . . . . . . . . . . .                                   . . . . . . . + . . . . . . . . . . . . . . . . . + + + . . . . . . . . . . + + . . . . + + + . . .                               ",
"                                                          . . . . . . . + . . . . . . . . . . . . . . . . . . . . . . . . . . . . . . + + . . . . + + + . .                                 ",
"                                                            . . . . . . + + . . . . . . . . . . . . . . . . . . . . . . . . . . . . . . + . . . . + + + .                                   ",
"      t h . . . . . . .                                           . . . + + + . . . . . . . . . . . . . + + . . . . + + . . . . . . . . . . . . + + + + .                                   ",
"      h t                                                         . . + + + + . . . . . . . . . . . . . + + + + + + + + . . . . . . . . . . . + + + + . .                                   ",
"      >.                                                          . . + + + + + . . . . . . . . . . . . + + + + + + + + + . . . + + + . . + + + + + + . .                                   ",
"      ,.'.                                                      . . + + + + + + . . . + . . . . . . . . + + + + + + + + + . . + + + + + . + + + + + + .                                     ",
"      < n ).                                                      . . + . + + +         . +   + + . . . . + + + + + + . . . + + + + + + . + + + + + + .                                     ",
"      !.% . . . . . . .                                             . . . . + +         . +   + + + . . . . + + + + . . . + + + + + + . . + + + + + . .                                     ",
"      6 ~.{                                                         . . . + + +           +   + + + + . . . + + + + + + + + + + + + + . + + + + + + .                                       ",
"      h                                                             . . + + + +         . +   + + + + + + + + + + + + + + + . . . . . . + + + + + . .                                       ",
"      6 {.                                                            . + + + +         . +   . . . . . . . . . . . . . . . . . . . . + + + + + + .                                         ",
"      t 8 ].                                                          . + + + +         . ; . . . . . . . . . . . . . . . . . . . . . + + + + + + .                                         ",
"      . . . . . . . . .                                             . . + + + +             . . . . . . . . . . . . . . . . . . . . . + + + + + + . .                                       ",
"                                                                    . + + + + +             . . . . . . . . . + + + . . . . . . . + + + + + + + + + .                                       ",
"                                                                    . + +                     . . . . . . . . . + . . . . . . . .   + + + + + + + + .                                       ",
"        G H B A * I J                                               . +                         . . . . . . . . . . . . . . . .                 + + .                                       ",
"      K z 1 (   L 1 z /                                             . +                         . . . . . . . . . . . . . . . .                 + + .                                       ",
"      g M           N 6                                           ; . +                           . . . . . . . . . . . . . .                   + + .                                       ",
"      h               h                                           + . +                             . . . . . . . . . . . .                     + + .                                       ",
"      g u           u O                                           + . +                               . . . . . . . . . .                           . +                                     ",
"      / z 1 (   ( P Q ]                                           + . +                                   .                                         . +                                     ",
"        J C ^ A B H N                                             + . .                                                                             . + +                                   ",
"                                                                  + + . +                                                                         + . + + +                                 ",
"                  ^.  /.                                          + + . +                                                                           . + + + + + +                           ",
"        V W Q h X Y Z                                           + + . . +                                                                             . . . + + + +                         ",
"      N ..P ( (.+.@.X #.    _.                                + + + . -                                                                                     . . + + + +                     ",
"      s M           K %.  :.                                + + + . +                                                                                             . . . + + +               ",
"      |               h <.[.                          + + + . . . +                                                                                                   . . . . + + +         ",
"      &.K }.|.1.2.  J *.3.4.                          + . . . +                                                                                                             . . . . . +     ",
"      =.* -.( 5.9 ] ..P 6.                          . . +                                                                                                                           . . +   ",
". . . . . . . . . . . .                           . . +                                                                                                                                 . . "};
