/* XPM */
static char * c1cc10_xpm[] = {
"91 69 154 2",
"  	c None",
". 	c #F5F5F5",
"+ 	c #B7B6B5",
"@ 	c #D1D1D0",
"# 	c #E5E5E4",
"$ 	c #F0F0F0",
"% 	c #F5F5F4",
"& 	c #F4F4F4",
"* 	c #E6E6E6",
"= 	c #D5D4D3",
"- 	c #B7B6B4",
"; 	c #C5C5C4",
"> 	c #EDEDED",
", 	c #C3C2C1",
"' 	c #AFAEAD",
") 	c #A7A6A4",
"! 	c #A6A6A4",
"~ 	c #AEADAB",
"{ 	c #C0BFBE",
"] 	c #EBEBEA",
"^ 	c #C5C5C3",
"/ 	c #E9E9E8",
"( 	c #B6B5B3",
"_ 	c #EBEBEB",
": 	c #F4F4F3",
"< 	c #B6B5B4",
"[ 	c #B5B4B3",
"} 	c #ECECEB",
"| 	c #E9E9E9",
"1 	c #BFBEBD",
"2 	c #EAEAEA",
"3 	c #C9C9C8",
"4 	c #B6B6B4",
"5 	c #D5D5D4",
"6 	c #E7E6E6",
"7 	c #F0F0EF",
"8 	c #D3D2D1",
"9 	c #ECECEC",
"0 	c #A8A7A5",
"a 	c #DDDCDB",
"b 	c #B5B4B2",
"c 	c #B9B8B7",
"d 	c #BAB9B7",
"e 	c #F3F2F2",
"f 	c #B0AFAD",
"g 	c #C4C4C3",
"h 	c #EBEAEA",
"i 	c #C7C6C5",
"j 	c #BEBDBB",
"k 	c #E3E3E2",
"l 	c #B0AFAE",
"m 	c #AEAEAC",
"n 	c #E2E2E1",
"o 	c #C8C8C7",
"p 	c #B1B0AE",
"q 	c #F3F3F3",
"r 	c #E3E3E3",
"s 	c #BDBCBB",
"t 	c #E6E6E5",
"u 	c #EFEEEE",
"v 	c #C2C1C0",
"w 	c #A9A8A7",
"x 	c #A9A8A6",
"y 	c #BFBFBD",
"z 	c #EDEDEC",
"A 	c #BBBAB8",
"B 	c #DBDBDA",
"C 	c #EEEEED",
"D 	c #DDDDDC",
"E 	c #000000",
"F 	c #030303",
"G 	c #010101",
"H 	c #282829",
"I 	c #3F3F40",
"J 	c #3A3B3C",
"K 	c #303031",
"L 	c #101011",
"M 	c #262627",
"N 	c #373839",
"O 	c #414243",
"P 	c #353637",
"Q 	c #303131",
"R 	c #333435",
"S 	c #0F0F10",
"T 	c #1F2021",
"U 	c #3C3C3D",
"V 	c #2D2E2E",
"W 	c #2F2F30",
"X 	c #272728",
"Y 	c #141415",
"Z 	c #2A2A2B",
"` 	c #313133",
" .	c #3E3F40",
"..	c #3F3F41",
"+.	c #232324",
"@.	c #1E1E1F",
"#.	c #313233",
"$.	c #3C3C3E",
"%.	c #202021",
"&.	c #2D2D2E",
"*.	c #353536",
"=.	c #404042",
"-.	c #2E2E2F",
";.	c #333334",
">.	c #181818",
",.	c #1A1A1B",
"'.	c #57585A",
").	c #38393A",
"!.	c #252626",
"~.	c #252526",
"{.	c #4A4B4D",
"].	c #363738",
"^.	c #020203",
"/.	c #3D3E3F",
"(.	c #020202",
"_.	c #1D1E1E",
":.	c #454647",
"<.	c #4B4B4C",
"[.	c #626364",
"}.	c #404142",
"|.	c #3E3F41",
"1.	c #545556",
"2.	c #626263",
"3.	c #2F2F31",
"4.	c #3E3E3F",
"5.	c #1E1E1E",
"6.	c #474748",
"7.	c #0A0A0A",
"8.	c #3B3B3D",
"9.	c #414142",
"0.	c #171717",
"a.	c #4F5051",
"b.	c #434445",
"c.	c #535455",
"d.	c #767677",
"e.	c #222223",
"f.	c #131313",
"g.	c #101010",
"h.	c #0E0E0E",
"i.	c #0D0D0D",
"j.	c #212122",
"k.	c #242526",
"l.	c #202121",
"m.	c #242525",
"n.	c #454648",
"o.	c #464749",
"p.	c #656666",
"q.	c #2C2C2D",
"r.	c #515253",
"s.	c #343436",
"t.	c #474849",
"u.	c #323334",
"v.	c #323233",
"w.	c #020303",
"                                                                                                                                                              .                       ",
"                                                                                          .                                                                 . . .                     ",
"                                                                            . . . . . . . .                                                               . . . . . .                 ",
"                                                                          . . . . . . . . .                                                             . . . . . . . .               ",
"                                                              . . . . . . . . . . E . E . .                                                           E . . . . . . . . .             ",
"                                                          . . . . . . . . . . E E E E E . .                                                           F . . . . . E . . .             ",
"                                                        . . . . . . . . . E E E E E E E . .                                   .                     E . . . . E E E E . . . .         ",
"  + @ # $ % & $ * = -                                   . . . . . . . E E E G F E E E E . F                                                       E . . . . . E E E E E . . . .       ",
"; > , ' )     ! ~ { ] ^                               . . . . E E F F F G G E E E E E . . F                                                   . . . . . . . E E E E E E . . . .       ",
"/ (                 ( _                             . . . . G F G G G G E E E E     . . E E                                               . . . . . F F G E E E E E E E E . . .       ",
": M N O               &                           . . . . E G G E E E E E E E     . . E E E                 . . . . . .   E           . . E . . . F G E E . . E E . . . E . . .       ",
"] <     U           [ }                           . . . E G E E E E E E E       . . . E E         . . . . . . . . . . . . . . . . .   . . . . . G E . . . . . . E . . . . . . .       ",
"^ | 1 ~         ~ 1 2 3                           . . E E E E E E             . . . E G E       . . . . E E E E E E E E E . . . . . E . . . . . . . . . . . . . E . . . . . . .       ",
"  4 5 6 $ % & 7 # 8 -                           . . . E E E E E E           . . . E F G E     . . . . E E E E E E E E E E E E . . E G . . . . . . . . . . . . . E . . . . . . .       ",
"      $.Z %.                                    . . E E G E E E           . . . E F G E   . . . . . F E E E E E E E E E . E E F . E E F . . . . . . . . . . . . F F . . . . . .       ",
"                                              . . . E E G E E             . . . F G . . . . . . . F G E E E E E E E E . E E G G E E G G . . . . . . . F G G F . G F . . . . . .       ",
"                                              . . . E G E E               . . . F . . . . . . . E G E                 E E E E E E . E . . . . . . . F G E E . . (.. . . . . . .       ",
"                                              . . E E G E               . . F F E   . . . . . . E E                 E E     E     . E . . . . . . . . . . . . . . . . . . . . .       ",
"9 . . . . . . . . . . .                       . . . E E E               . . F E E   E F F F F F E                   E         E . E (.F F . . . . . . . . . . . . . . . . . . .       ",
"0 a b ,.                                      . . . . E E               . G E E E   E E E E E E       .                       E . E E E ^.E F . . . . . . . . . . . . . . . . . .     ",
"  0 6 c !.~.                                  . . . . F E               . G E         E E E E E                             E E E E E E E E (.. . . . . . . . . . . . . E E . . E     ",
"    d e f ].                                  . . . . F G E             . G E                 .                             E .     E E E E (.F . . . . . . . . . . . . E E E . .     ",
"                                              . . . . . . .           . . G E                 E .                           . E         E E E E E . . . E E E E E . . . E E E . .     ",
"                                                . . . . . . E E       . . G E                 E E .                       . E             E E E E E . . E E E E E . . . E E E . .     ",
"                                                . . . F . . F E E     . E F E                   E E .                 . . E                 E E E E E .   E E E E E . . E E E . . .   ",
"        g h       _ i                           . . E F . . . E E     . E E E                     E G   .           E G E                     E E E E . . E E E E E E . E E E E . .   ",
"      j k l       m n o                         . . G G . . . . E       . E                         E   _.          E E                       E E E E . . E E E E E E . . E E E . . . ",
"      k ~           p 9                         . . E . . . . . F G     . .                                                                   E E E E . .   E E E E E . . E E E . . . ",
"      q               :                         . . E . . . . . . E       . F                                                           . .   E E E . . .   E E E E E . E E E E . . . ",
"      r s           c t                         . . . . . . E . . F E     . F                                                     E . . . . . . . . . . . . . E E E . . E E E E . . . ",
"      c u v w   x y z A                       . . . . . . F E . . . E       .                                                   E E E E . . . . . . . . . . . . . E E . E E E E . . E ",
"        ( B C & 7 D < :.                      . . . . . . . . . . . F G     . F                                 .                 E E E E . . . . . . . . . . . . E . . E E E E . .   ",
"                3.Z +.                        . . . . . . F F . . . . E       .                               .                     E E E . . . . . . . . . . . E E E . E E E E . .   ",
"                                              . . . . . . . . . . . . F E     . . .                         . .                     E E . . . . . . . . . . E E E E E . E E E E . .   ",
"        g h       _ i                         . . . . . . . F G E   . E E         . . F                     . .                     E E E . E . . . . . . . E E E E E . E E E . . .   ",
"      j k l       m n o                       . . . . . . F E E     . E E           . . .                                             E E E . . . . . . . E E E E E . E E E E . . .   ",
"      k ~           p 9                       . . . F . . G G E     . E E             . . .               .             E E . . . . . . . . . . . . E . . E E E E E . E E E E . .     ",
"      q               :                       . . . E G E . . . . . . F E               . . . .             E . . . . . . . . . . . . . . . . . . . E E . E E E E E . E E E . . .     ",
"      r s           c t                       . . . F G E       . . . F E                   . . . .         E . . . . . .                   E E E . E . . E E E E E . E E E . . .     ",
"      c u v w a.x y z A                       . . . F G E           . E E                     . . . .         E . . .                     E E E . . . . . E E E E . E E E E . . .     ",
"        ( B C & 7 D < %.                      . . . E (.E           . E E                       . . . .             E .     E E .   E E E . E . . . . . . . E E E . E E E E . . .     ",
"                                              . . . F G E           . . . F E                     . . . . .             E E . . . . . . . . . . . . . . . E E E . . E E E . . . .     ",
"                                              . . . G E E           . . . . E                     . . . . .                         E E . . . . . . . . E . E E . E E E E . . . .     ",
"                                                . . E E E           . . . . F E                     . . . . .                         E E E E E . . . . . E . . . E E E E . . .       ",
"                                                . . E E E             . . . . F                       . . . .                     E E E E E . . . . . . . . . . . E E E E . . .       ",
"9 . . . . . . . . . . .                         . . E E E             . . . . F                         . . . (.                E E E E . . . . . . . . . . . . E E E E E . .         ",
"0 a b o.                                        . . E G E             . . . . F E                         . . . .                 E E . . . . . . . . . . . . . E E E E E . .         ",
"  0 6 c                                         . . E G E E             . . . . E E E E                 E E . . . E                   E . . . . . . . . . . . E E E E E E . .         ",
"    d e f                                       . . . F (.E E           . . . . . . F E E             E E E . . . .                     E . . . . . . . . . . E E E E E . .           ",
"                                                . . . F (.(.E E         . . . . . . . F G E       E   E G . . . . . E E                       E E E . . . . E E E E E . . .           ",
"                                                . . . . F (.G E         . . . . . . . . . E E E   E E . . . . . . . . . E E                   E E E E . . . E E E E E . .             ",
"                                                . . . . . F E E E       . . E E     . . . . G G E . E . . . . . . . . . . G E E E       E E E E E E E . . . E E E E . . .             ",
"        g h       _ i                             . . . . F G E E         . E (.        . . . . E . . . . . . . . . . . . . . . E E E E E E E E E E . . . E E E E E . . .             ",
"      j k l       m n o                           . . . . . F G           . . F           . . . . . . . . . . . . . . . . . . . . . . E E E E . . . . . E E E E . . . .               ",
"      k ~           p 9                           . . . . . F E   E       . . F                 . . . . . . . . . . . . . . . . . . . . . . . . . . . E E E E . . . . .               ",
"      q               :                           . . . . . F     E E     . . F E                         . .     E . . . . . . . . . . . . . . . E E E E . . . . . . . .             ",
"      r s           c t                           . . . . F E E E E E E     . F E                                 E G . . . . . . . . . . . . . . E E . . . . . . . . . .             ",
"      c u v w   x y z A                           . . . . (.E . E E E E E   . F E E                               E . . . . . . . . . . . . . . . . . . . . . . . . . . .             ",
"        ( B C & 7 D <                           . . . . E E . . . F G E E E . . E E                               E . . . . . . . . . . . . . . . . . . . . . . . . . .               ",
"                                                    . . . . . . . . F w.E E . . F (.E                             E . . . . . . . . . . . . . . . . . . . . . . . . . .               ",
"                                                      . . . . . . . . F F E . . . F G                             E . . . . . . . . . . . . . . . . . . . . . . . . . .               ",
"                                                        . . . . . . . . E E . . . F F                               . . . . . . . . . . . . . . . . . . . . . . . . . .               ",
"                                                        . . E . . . . . . E E . . . E                               .   . . . . . . . . . . . . . . . . . . . . . . .                 ",
"                                                          . . . . . . . . . E G . . E                                           .   E . . . . . . . . . . . . . .                     ",
"                                                            . . . . . . . . . E . . E                                                 E . . . . . . . . . . . .                       ",
"                                                                            . . . . E                                                   . . . . . . . . . . .                         ",
"                                                                                . . E                                                     . . . . . . . .                             ",
"                                                                                                                                            . . . . . .                               ",
"                                                                                                                                                  .                                   "};
