/* XPM */
static char *jaromil_xpm[] = {
/* columns rows colors chars-per-pixel */
"111 68 256 2",
"   c #0f1311",
".  c #0b1d22",
"X  c #19281a",
"o  c #172b1c",
"O  c #152826",
"+  c #1c3228",
"@  c #1b3435",
"#  c #14282d",
"$  c #2d170b",
"%  c #302b16",
"&  c #263825",
"*  c #223937",
"=  c #3a2727",
"-  c #353725",
";  c #2d2b32",
":  c #2b1d23",
">  c #183d4d",
",  c #2b3747",
"<  c #38432a",
"1  c #2f4635",
"2  c #184457",
"3  c #1a5779",
"4  c #164f6f",
"5  c #274449",
"6  c #305057",
"7  c #255b7a",
"8  c #375766",
"9  c #2e586c",
"0  c #3c615d",
"q  c #28627b",
"w  c #386778",
"e  c #401c1a",
"r  c #471d22",
"t  c #523418",
"y  c #462927",
"u  c #47342a",
"i  c #493634",
"p  c #553629",
"a  c #593833",
"s  c #502a2d",
"d  c #623f17",
"f  c #643d34",
"g  c #47374a",
"h  c #733c41",
"j  c #45452b",
"k  c #494832",
"l  c #5a4934",
"z  c #575637",
"x  c #524b2f",
"c  c #59643e",
"v  c #72481d",
"b  c #674726",
"n  c #654539",
"m  c #64543d",
"M  c #765627",
"N  c #774d32",
"B  c #65623b",
"V  c #534a58",
"C  c #46576f",
"Z  c #526a52",
"A  c #476a77",
"S  c #4d736d",
"D  c #764944",
"F  c #775646",
"G  c #6c4e45",
"H  c #6f5968",
"J  c #7b664b",
"K  c #756b52",
"L  c #707171",
"P  c #1d5c82",
"I  c #225d83",
"U  c #296485",
"Y  c #356987",
"T  c #356c93",
"R  c #39718c",
"E  c #3b7394",
"W  c #296793",
"Q  c #1f618a",
"!  c #476a85",
"~  c #487489",
"^  c #477998",
"/  c #557889",
"(  c #557995",
")  c #506b8c",
"_  c #497ba2",
"`  c #547ca6",
"'  c #657b99",
"]  c #68718f",
"[  c #6a6893",
"{  c #54857a",
"}  c #738c58",
"|  c #728d76",
" . c #4b8497",
".. c #59869a",
"X. c #50898d",
"o. c #4b83a4",
"O. c #5787a7",
"+. c #5a95a9",
"@. c #5594af",
"#. c #688596",
"$. c #778997",
"%. c #6f8e94",
"&. c #678aa8",
"*. c #6796a8",
"=. c #6897b2",
"-. c #7797a8",
";. c #789bb3",
":. c #748da4",
">. c #74a891",
",. c #79a3a9",
"<. c #79a5b3",
"1. c #6fa6b2",
"2. c #83501b",
"3. c #845724",
"4. c #8a5731",
"5. c #976838",
"6. c #93652c",
"7. c #a66c38",
"8. c #a6743a",
"9. c #b6753b",
"0. c #865848",
"q. c #895854",
"w. c #944c4c",
"e. c #954d53",
"r. c #985555",
"t. c #894d4b",
"y. c #8e5a66",
"u. c #8b6755",
"i. c #976558",
"p. c #926e4f",
"a. c #9b6965",
"s. c #90776a",
"d. c #a55756",
"f. c #bd5a5c",
"g. c #bc5759",
"h. c #ba5e61",
"j. c #a55f60",
"k. c #a4645b",
"l. c #a87447",
"z. c #b87947",
"x. c #b97c54",
"c. c #aa724e",
"v. c #a76a66",
"b. c #a67668",
"n. c #a87874",
"m. c #b66b6d",
"M. c #ba6263",
"N. c #b86668",
"B. c #b76869",
"V. c #b56e71",
"C. c #b57768",
"Z. c #b47274",
"A. c #b37678",
"S. c #b17a7c",
"D. c #b77975",
"F. c #a46b7b",
"G. c #de5e2c",
"H. c #d85d35",
"J. c #de602e",
"K. c #da6436",
"L. c #ed6418",
"P. c #fe6500",
"I. c #f6640c",
"U. c #f36311",
"Y. c #e36126",
"T. c #cc5c46",
"R. c #c45c53",
"E. c #c17b47",
"W. c #c37c53",
"Q. c #c9644f",
"!. c #c37771",
"~. c #8b708f",
"^. c #b07e80",
"/. c #bb7681",
"(. c #ab7888",
"). c #8970a2",
"_. c #bc843f",
"`. c #908f71",
"'. c #bb8145",
"]. c #bb8456",
"[. c #ac8450",
"{. c #a6866a",
"}. c #ba8666",
"|. c #b78778",
" X c #b99377",
".X c #ab8b75",
"XX c #8b9967",
"oX c #c28547",
"OX c #c38658",
"+X c #c7915e",
"@X c #c38967",
"#X c #c28875",
"$X c #c5916c",
"%X c #c59576",
"&X c #d39970",
"*X c #87939b",
"=X c #96989c",
"-X c #898f92",
";X c #8698a6",
":X c #869ab5",
">X c #9a9ba3",
",X c #9290b0",
"<X c #8fac92",
"1X c #85a6a9",
"2X c #88a7b7",
"3X c #88b4a8",
"4X c #89b4b6",
"5X c #98a4a9",
"6X c #94a7b9",
"7X c #95b6ba",
"8X c #94b7a9",
"9X c #ae8184",
"0X c #ad8689",
"qX c #ab8a8d",
"wX c #a48a8a",
"eX c #aa8e91",
"rX c #aa8898",
"tX c #a79598",
"yX c #a59a9d",
"uX c #a89294",
"iX c #a69a94",
"pX c #b78784",
"aX c #bb9586",
"sX c #bb9693",
"dX c #ac908c",
"fX c #a39ea1",
"gX c #a893a5",
"hX c #aa93b0",
"jX c #aaa693",
"kX c #a3a0a3",
"lX c #aaa4a5",
"zX c #a7a7a8",
"xX c #a5a8b8",
"cX c #a6b8b9",
"vX c #b3afb0",
"bX c #939cc3",
"nX c #99aac4",
"mX c #9bb3c3",
"MX c #99b7c3",
"NX c #90abc5",
"BX c #a5a9c8",
"VX c #a3b6c5",
"CX c #b0afca",
"ZX c #a49bc2",
"AX c #9bc3b8",
"SX c #a4c2bb",
"DX c #a8c4ae",
"FX c #9ac4c3",
"GX c #a5c3c5",
"HX c #a9c6d3",
"JX c #b4c8d4",
"KX c #c4998c",
"LX c #c6a896",
"PX c #c5a9ae",
"IX c #c59fa4",
"UX c #c1acc8",
/* pixels */
"kXkXkXkXkXkXkXkXkXkXkXkXkXkXkXkXkXkXkXkXkXkXkXkXkXkXkXkXkXkXkXkXkXkXkXkX5XkXkXkXkXkXkXkXkXkXkXkXkXkXkXkXkXkXkXkXkXkXkXkXkXkXkXkXkXkXkXkXkXkXfXkXlXkXzXlXlXlXlXlXlXlXhXlXlXlXlXlXlXlXlXkXkXkXkXkXkXlXkXkXkXkXkXkXkXkXkXkXkXkXkX",
"kXkXkXkXfXkXkXkXkXkXfXkXfXkXfXfXfXkXkXkXkXfXkXkXkXkXkXkXkXkXkXkXkXkXkXkXfXfXkXkXkXkXkXkXkXkXkXkXkXkXkXkXkXkXkXkXkXkXkXkXkXkXkXkXkXlXkXkXkXlXlXlXlXlXkX=X=X=X*X-X*X*X-X-X*X*X=X>X=X>XkXlXlXlXkXfXkXkXkXkXkXkXkXkXkXkXkXkXkXkXkX",
"kXkXkXkXfXfXfXfXfXkXfXfXfXfXyXkXkXfXfXfXfXkXfXkXkXkXkXkXkXkXkXyXkXkXkXkXkXkXkXkXkXkXkXkXkXkXkXkXkXkXkXkXkXkXkXkXkXkXkXkXkXkXkXkXkXkXkXkXlXlX>X*X$.( ! w 7 U q 9 9 7 7 I U U Y Y Y ! / $.>XkXlXlXlXkXkXkXkXkXkXkXkXkXkXkXkXkXkX",
"kXfXkXfXfXfXfXyXyXyXyXyXyXyXyXyXyXyXyXfXfXfXfXkXkXkXkXkXkXkXkX5XkXkXkXkXkXkXkXkXkXkXkXkXkXkX5XfXkXkXkXkXkXkXkXfXkXkXkXkXkXkXkXkXkXkXkXkX>X$.) Y U 3 4 3 3 3 3 4 2 7 7 3 3 q P P 7 3 7 q ! #.*X>XkXlXkXkXkXkXkXfXkXkXkXkXkXkXkX",
"kXfXfXfXfXyXyXyXyXyXyXyXyXyXyXyXyXyXyXyXyXfXfXfXkXkXkXkXkXkXkXkXkXkX5XkXkXkXkXkXkXkXkXkXkXkXkXkXkXkXkXkXkXkXkX5XkXkXkXkXkXkXkXkXkXlXkX=X( R U U Y U 7 3 7 7 7 7 2 2 q U U U q U I 7 7 3 3 U w ~ ] =XzXkXkXkXkXlXkXkXkXkXkXkXkX",
"fXfXfXfXfXyXyXyXtXtXtXtXtXtXtXtXyXtXyXyXyXyXfXfXfXfXfXkXkXkXkXkXkXkXfXkXkXkXkXkXkXkXkXkXkXkXkXkXkXkXkXkXkXkXkXkXkXkXkXfXkXkXkXkXkXfX$.A q W T T Y U q 7 7 7 7 7 4 > 9 q U U 7 U 7 7 7 7 q q 3 3 3 Y %.zXlXkXkXkXkXkXkXkXkXkXkX",
"fXkXyXyXyXyXtXyXuXtXuXuXuXuXeXuXuXtXtXtXyXyXyXyXfXfXkXkXkXkXkXkXkXkXkXkXkXkXkXkXkXkX5XkXkXkXkXkXkXkXkXkXkXkXkXkXkXkXkXlXkXkXkXlX=X#.Y Y Y T E ! R R w 9 9 q q 7 9 > 2 w Y U Y 7 q U 7 3 7 U q P 3 3 q %.lXkXkXkXkXkXkXkXkXkXkX",
"fXyXyXyXyXtXuXuXuXeXeXeXeXeXeXeXeXuXtXtXtXyXyXyXyXkXfXkXkXkXkXkXkXkXkXkXkXkXkXkXkXkXfXkXkXkXkXkXkXkXkXkXkXkXkXkXkXkXkXkXkXkXlX=X) 7 R R R R R R R w w 9 6 2 6 8 6 2 5 9 w w w w w Y U q U P U U q q 3 q =XlXzXkXkXkXkXkXkXkXkX",
"fXyXyXtXtXuXuXeXeXqXqXqXqX0XqXqXeXeXeXuXuXyXyXyXyXfXfXkXfXkXkXkXkXkXkXkXkXkXkXkXkXkX5XfXkXkXkXkXkXfXkXkXkXkXkXkXkXkXkXkXkXlXfX/ 4 I ) ^ T ~ ~ R w 6 5 @ @ # # 5 > @ > 5 6 6 6 6 6 w ~ E R T U P 3 q 3 4 ) fXkXkXkXkXfXkXkXkXkX",
"yXyXyXtXtXuXeXqXqX0X0X0X0X9X0X0X0X0XqXeXuXuXuXyXyXyXfXfXkXkXkXkXkXkXkXkXkXkXkXkXkXkXkXkXkXkXkXkXkXfX5XkXkXkXkXkXkXkXkXkXlXlX$.U 7 Y ^ ^ E ~ ! w 6 > o o . . . . # # # # * @ * > 5 6 w X.^ ^ R U q U P 4 7 *XlXfXkXkXlXkXkXkXkX",
"yXyXtXtXuXeXqXqX0X0X9X^.9XS.9X9X9X0X0XqXeXeXyXyXyXyXyXfXkXfXkXkXkXkXkXkXkXkXkXkXkXkXkXkXkXkXkXkXkXkXkXkXkXkXkXkXkXkXkXkXlX-Xw q U T ^ ^ ^ A 0 5 @ o . . . . . . # . . . # @ @ + @ 5 0 S ~ ^ ^ Y U U U U P ! >XlXkXkXkXkXkXkXkX",
"yXyXtXuXeXqX0X9X9XS.S.S.S.S.S.S.S.9X0X0XqXeXeXtXyXyXfXfXfXkXkXkXkXkXkXkXkXkXkXkXkXkXkXkXkXkXkXkXkXkXkXkXkXkXkXkXkXkXkXlXfX/ q Y Y ^ ^  .~ 0 5 + O O o o . o O O . . . # @ @ # + & * 1 0 A ( ^ R T Y U W U P $.lXkXkXkXkXkXkXkX",
"yXtXtXeXqX0X9X9XS.S.A.S.Z.Z.Z.S.S.S.S.0X0XqXeXuXtXyXyXfXfXkXkXkXkXkXfXkXkXkXkXkXkXkXkXkXkXkXkXkXkXkXkXkXkXkXkXkXkXlXkXlX*Xq Y R E _ ` ( 0 1 o & + o . X o O O o O . O @ + * & & & < < 1 S X. .^ ^ T W Y U P ~ kXlXkXkXkXkXkXkX",
"tXtXuXeXwX0X9XS.A.A.Z.D.m.V.Z.V.Z.S.S.9X0XqXeXuXtXtXyXyXfXkXkXkXkXkX5XkXkXkXkXkXkXkXkXkXkXkXkXfXkXkXkXkXkXkXkXkXkXkXlX>X~ Y R R ^ ` ` A < & & o o o o o + O O O O + * + & & & & < < x z Z S / ^ ^ E Y T U Q U <XlXkXkXkXkXkXkX",
"yXuXuXqX0X0X|.S.Z.L.L.L.L.L.L.L.L.Z.A.S.9X0XqXuXuXtXyXfXfXfXkXkXkXkXkXkXkXkXkXkXkXkXkXkXkXkXkX5XkXkXkXkXkXkXkXkXkXlXlX$.E R R ~ ..O.X.0 & o X % & % o o O o X + & < 1 1 1 & & < < j k B Z Z S / ^ ^ T T W U U *XlXkXkXkXkXkXkX",
"tXtXeXqX0X^.S.A.Z.P.P.P.P.P.P.P.P.V.A.S.S.0XqXeXuXtXyXyXfXkXkXkXkXkXkXkXkXkXkXkXkXkXkXkXkXkXkXkXkXkXkXkXkXkXkXkXkXlX=X~ E ^ ~  .O.O.S k % X X X % & - < - - % - < < < + & & < k z c Z m m Z A X.^  .E E T W Q $.lXkXkXkXkXkXkX",
"tXuXuXqX9X9XS.Z.m.B.N.N.M.M.M.N.B.m.Z.A.S.9X0XeXeXtXyXyXyXlXkXkXkXkXkXkXkXkXkXkXkXkXkXkXkXkXkXkXkXkXkXkXkXkXkXlXkXkX#.Y Y o... .O.O.A < - % & - < j j x k 1 i < k k < & - j k l l z z m B c Z S / ^ _ E W U Q #.lXlXkXkXkXkXkX",
"tXuXqXqX9XS.A.Z.m.Q.R.M.M.h.h.h.M.B.V.Z.S.9X0XqXeXtXyXyXfXfXkXkXkXkXkXkX5XkXkXkXkXkXkXkXkXkXkXkXkXkXkXkXkXkXkXkXlX*X^ w C O. . .O.#.S x % X X & & - j - = = j k k k < k k k G G G F m m z c Z Z ( O.o.E T W U ( fXkXkXkXkXkXkX",
"tXuXqXqX0XS.A.V.m.P.J.L.P.P.P.P.P.B.m.Z.S.9X0XqXeXuXyXyXfXfXfXkXkXkXkXkXfXfXkXkXkXkXkXkXkXkXkXkXfX5XkXkXkXkXkXkX>X..`  .X.*.~  .O.( Z j % X X X X - u u s i s g i u u i i i a n n n n l l z B Z / O._ ^ E T P ~ kXlXkXkXkXkXkX",
"tXuXqX0X9XS.Z.V.m.L.H.G.L.L.L.L.L.M.B.Z.A.S.9XqXeXtXtXyXfXfXkXkXkXkXkXkXkXkXkXkXkXkXkXkXkXkXkXfXfXkXkXkXkXkXlXyX&.^ @.X.X.X.~ +.&...L j u & * 5 , * O : = y r = = = = y s s a f i * 5 k i l B Z X..._ ^ E T W T =XlXkXkXkXkXkX",
"yXeXqX0X9XS.A.m.N.M.h.h.g.T.T.T.T.M.B.V.A.^.9XqXeXeXtXyXfXfXkXkXkXkXkXkXkXkXkXkXkXkXkXkXkXkXkX5XkXkXkXkXkXkXlX;X .+.X.w  .`  .&.&.#.Z x k A / ! C 8 , , ; ; ; : = u u = r , , , 5 6 C C C Z Z Z X.O.o.o.^ E T W $.lXkXkXkXkXkX",
"tXtXqX0X9XS.Z.V.N.h.h.H.P.P.P.P.P.M.B.m.Z.S.9XqXeXtXtXyXfXfXfXkXkXkXkXkXkXkXkXkXkXkXfX5XkXkXkXkXkXkXkXkXkXkXlX:...*.w ! ` @.+.&.&.#.Z m H / ! ! ! w 8 6 , > # ; - y u = : , , 8 A ) / ( ( / A A S &.O.` ^ ^ E W ' fXlXfXkXkXkX",
"tXeXeXqX0XS.Z.V.N.h.g.I.P.L.L.L.L.M.N.V.A.S.9X0XeXeXtXyXyXfXfXkXkXkXkXkXkXkXkXkXkXkXfXkXkXkXkXkXkXkXkXkXkXkXkX$.+.{ A ` =.*.X.*.&.] K J y.V V 8 C C C V , ; # ; = = = % ; g , C ) / ( ( ] ' / S | *.O.` o._ _ W ^ gXlXkXkXlXkX",
"yXuXeX0X9XS.A.m.N.h.g.Y.L.R.g.g.R.M.B.m.Z.S.9X0XeXeXtXyXyXfXkXkXkXkXkXkXkXkXkXkXkXkXkXkXkXkXkXkXkXkXkXkXkXzX>X,.X.w ) @.1.>.%.-.=.L XXJ i = = g g V V g , g = r = y y e = g g C C [ H V H H L L { +.@.o.o.o._ T ~ =XlXkXkXfXkX",
"tXuXeXqX^.(.Z.V.B.M.f.T.I.T.H.T.T.h.N.m.Z.S.9XqXqXuXtXyXfXfXfXkXkX5XkXkXkXkXkXkXkXkXkXkXkXkXkXkXkXkXkXkXkXkX=X>.0 ~ &.=.;.;.*.*.:X| u.G : : = s f D D D D G a s s s s y a G D H H y.D D G G D p.| ' &.@.O.o._ E E :.lXkXkXkXkX",
"tXuXeX0X0X|.A.V.B.M.f.J.P.P.P.P.P.M.N.m.Z.S.9X0XeXeXtXyXyXfXfXkXkXfXkXkXkXkXkXkXfX5XkXkXkXkXkXkXkXkXkXkXkXkX<X{ 8 _ =.;.;.,.*.;.1X| J u % u D F q.i.i.u.0.N n a p s p a D F q.i.a.y.y.D G G m u.| :.` @.@.O.@.o.o.#.lXkXkXkXkX",
"yXuXeXqX0XS.A.Z.B.M.M.U.I.G.G.G.J.M.N.m.Z.S.^.qXeXuXuXyXfXfXkXkXkXkXkXkXkXkXkXkXkXkXkXkXkXkXkXkXkXkXkXkXkX>X5X{ ~ *.;.;.:X>.*.,.3X| F l n i.b.a.v.v.k.v.i.0.N a f p a D q.a.v.n.Z.(.F.a.a.u.J J -X&.;.=.@.@.@.@. .#.fXlXkXkXkX",
"tXtXeXqX0XS.S.V.B.M.h.L.L.g.g.f.f.h.M.m.Z.S.9X0XqXuXuXyXfXfXkXkXkXkXkXkXkXkXkXkXkXkXkXkXkXkXkXkXkXkXkXkXzX>X;XX.X.&.;.;.-.-.*.,.3X`.J F r.v.i.y.[ y.a.v.a.r.F a s p f u.a.a.n.(.~.).).n..X{.s.p.| =.&.=.@.@.` ` _ #.fXkXkXkXkX",
"yXuXeXqX0X9XS.V.B.N.M.Y.I.Y.G.G.J.M.N.B.Z.S.9X0XeXeXtXyXfXfXkXkXkXkXkXkXkXkXkXkXkXkXkXkXkXkXkXzXkXkXkXkXkX5X;XX.#.-.2X-.:.-.#.-.1XXXK u.b.k.y.[ ' ' ~.v.i.a.0.p % y b p.{.n.n.).[ ' &.:.`.{.b.s.`.;.;.=.+.+.O.` _ #.yXkXkXkXkX",
"yXuXuXqX0X9XS.V.B.N.f.L.P.P.P.P.P.h.N.m.V.S.^.0XeXeXuXyXyXfXfXkXkXkXkXkXkXkXkXkXkXkXkXkXkXkXkX>XkXkXkXkXkXkX=X$.:.;.;X$.-.,.&.-.6X>.K u.p.a.H ) &.;.*Xb.v.u.J p e u b 0.b.{.b.~.' ..;.*.| `.b.{.`.;.<.1.1.+.+.=.@.#.fXkXkXkXlX",
"yXtXeXqX0X9XS.Z.B.M.M.R.T.T.T.T.T.M.N.m.Z.S.^.0XeXeXtXyXfXfXfXkXkXkXkXkXkXkX5XfX>XzXkXkXkXkXkXkXkXkXkXkXkXlX=X%.;.2X:.-.,.,.-.;.,X`.G J F D a V ,.1Xs.H y.0.3.v d t t v 5.k.a.H ..3X<X| } .Xb.c.`.1X<.1.*.*.=.1.=.*.fXkXkXkXkX",
"yXuXuXqX0X^.Z.Z.V.N.h.f.f.g.R.g.f.M.N.B.Z.S.9X0XqXeXtXyXyXfXfXkXkXkXkXkXkXkXkXkXkXkXkXkXkXkXkXkXkXkXkXkXkXyX=X:.;.:.-.,.,.,.1.2XhXa.l m n n G N F F 0.q.0.4.2.v $ $ $ % d 0.i.y.L u.XXs.u.b.b.s..X3X<.<.=.=.=.=.@.*.fXlXkXkXkX",
"yXtXeXqX0X9XS.Z.m.N.h.R.L.P.P.U.R.M.N.m.Z.S.9X0XeXeXuXyXfXfXkXkXkXkXkX5XfXkXkXkXkXkXkXkXkXkXkXkXkXkXkXkXkXlX*X;.;.] -.<.1X,.1.2XrXi.l m a m 0.i.i.k.k.N M v d $       = b 5.5.p.k.r.i.a.v.a.p.p.{.<XAX1.1.;.=.1.1.-.fXkXkXkXkX",
"yXyXeXeX0X9XS.Z.m.N.h.Y.P.P.I.P.I.M.N.m.Z.S.^.0XqXuXtXyXyXfXfXkXkXkXkXkXkXkXkXkXkXkXkXkXkXkXkXkXkXkXkXkXkXkX=X:.:.] 3X<.1X*.<.zX^.u.m l p p f t.t.t.p $ $ d $   % % i 4.8.8.7.v M l.C.d.i.0.J u.XX<X1.1.<.<.;.;.1.;XfXkXkXkXkX",
"tXtXeXeX0X9XS.Z.m.N.h.I.Y.R.g.T.P.Q.N.B.Z.S.9X0XqXuXuXyXfXfXkXkXkXkXkXkXkXkXkXkXkXkXkXkXkXkXkXkXkXkXkXkXkXkX;X,X[ ' 2X,.,.-.2XxX^.F m l p r r r s p $   $ t t p b M p.z.'.l.l.6.M 5.c.q.0.F F 0.{.jXAX1.<.4X<.<.1.;XlXfXkXkXlX",
"yXtXeXeX0X^.S.Z.m.N.h.I.G.g.R.T.P.Q.N.m.V.S.9X0XqXeXtXyXyXfXfXkXkXkXkXkXkXkXkXkXkXkXkXkXkXkXkXkXkXkXfX5XkXfX5X6X' $.2X1X,.<.<.7X0Xq.N n y e % $ e x d $ t M 4.6.5.l.z.9.'.[.c.c.p.8.l.N n N 0.q.{.jXAX<.4X<.<.1.1.*XkXkXfXlXkX",
"tXtXeXeX0X9XS.Z.m.N.h.Y.P.L.L.P.P.M.N.m.Z.S.S.0XeXuXtXtXfXfXfXkXkXkX5XkXkXkXkXkXkXkXkXkXkXkXkXkXkXkXkXkXkXfXxX3X#.%.1X1X,.<.2XNX0X0.D n r e e s t 4.l.l.5.5.l.z.z.z.l.x.].}.}.b.b.].c.h f 4.u.u.{.kX4X<.2X4X<.FX;.;XfXlXkXkXkX",
"yXtXeXeX0X^.S.Z.m.N.M.R.U.P.P.I.T.f.N.m.Z.S.9X0XeXeXtXyXyXfXkXkXkXkXfXkXkXkXkXkXkXkXkXkXkXkXkXkXkXkXkXkXkXkXkX;X-.1X1X1X:X1X4XmX~.G J n s r t b d 4.!.&XLXKX}.x.z.W.x.x.}. X|. XaX X}.p.t.D 0.c.{.fX4X4X4X2X4XNX<.;XkXfXkXkXkX",
"yXtXeXeX0X9XS.Z.m.N.M.f.h.T.T.f.f.h.N.m.Z.S.9X0XeXeXtXyXyXfXfXkXkXkXkXkXkXkXkXkXkXkXkXkXkXkXkXkXkXkXkXkXkXkXkX$.-X<X1X1X;.2X4XnXrX0.F D s f v v t N C.}.%XLXKX}.x.C.}.#X X XLXLXsX|.}.z.l.w.r.b. X5X2X4X4X2X:X4X4X;XfXkXkXkXkX",
"yXtXeXeX0X9XS.Z.m.N.M.L.P.R.g.f.f.M.N.m.Z.S.^.0XqXuXuXyXfXfXkXkXkXkXkXkXkXkXkXkXkXfX5XkXkXkXkXkXkXkXkXkXkXkX5XiX.X<X;.;.2X2XMXmX7X=XF h f 4.v d $ % u.].c.[.[.'.$X$X X#X XaXLXaX X X].'.].x.k.b. XxX4X<.4XNX:X2X3X>XfXlXkXlXkX",
"yXuXuXeX0X9XS.Z.m.N.M.H.P.f.g.g.h.M.N.B.Z.S.^.0XeXeXtXyXyXyXkXkXkXkXkXkXkXkXkXkXkXkX5XfXkXkXkXkXkXkXkXkXkXkXhXsX`.1X:X2X<.2X7XSXAX>.] t.r.6.3.d % X % p x m 4.8.oX#X#X%X|.}. X}. X}.x.'.oX+X}..XjX7X2X3X4X7X,XNX3X5XfXkXkXkXkX",
"yXtXeXqX0X^.A.Z.m.N.h.Y.P.U.L.L.L.h.N.m.Z.S.^.0XeXeXtXyXyXfXkXkXkXkXkXkXkXkXkXkXkXkXkXkXkXkXkXkXkXkXkXkXkXkX5XsX~.-.2X2X2X2XmXSXAX<.nX^.c.4.2.v v t t % % t m 6.7.c.@X@X}.].OXOXOX'.'.9.oX+X XaXvX7X3XAXAX8X:XbX5X>XfXfXkXkXkX",
"tXuXuXeX0X^.S.Z.m.M.h.L.P.P.P.P.P.h.M.B.Z.S.9X0XqXeXeXyXyXfXkXkXkXkXkXkXkXkXkXkXkXkXkXkXkXkXkXkXkXkXkXkXkX5XxXrXs.$.4X4X4X7XmXcXDXMXmXIXp.6.2.v v M v b M M 3.6.7.9.z.x.W.].].E.9.z.l.9.'.+X%XLXDXMX4X3XAX7XNX4X>XfXkXkXlXkXkX",
"yXuXeXqX0X9XA.Z.m.M.f.h.g.R.g.g.f.h.M.B.Z.A.^.9XqXeXtXtXfXfXfXkXkXkXkXkXkXkXkXkXkXkXkXkXkXkXkXkXkXkXkXkXkXfXxXfXjX} 3X7X4X2X6XcXDXMXBXLX8.3.2.2.6.6.3.v 3.M 2.6.7.l.l.x.x.].z.z.oXE.7.l.[.+X&XLXAXMX7X3X8XMXAX6XfXfXkXkXfXkXkX",
"yXuXuXqX0X^.S.Z.N.M.h.f.H.G.G.G.G.f.M.m.m.A.|.9XqXeXeXyXyXfXfXkXkXkXfXkXkXkXkXkXkXkXkXkXkXkXkXkXkXkXkXkXkXkX>X:XDXXX3X6X4X3X6XSXGXNXBXLX7.6.3.6.6.6.6.6.6.6.6.7.8.8.l.x.W.z.E.z.z._.9.z.z.W.&XLX7XFXAXAXAX7XNX2X>XfXkXlXkXkXkX",
"yXuXeXqX9X^.A.V.m.M.h.Y.P.P.P.P.P.h.M.B.Z.Z.^.9X0XeXtXtXyXfXfXkXkXkX5XkXkXkXkXkXkXkXkXkXkXkXkXfXkXkXkXkXfXkXgXgXDX<X,.4X4X6XxXVXGX2XBXsXz._.9.5.6.6.6.6.7.7.7.9.9.8.z.x.OXW.E.z.z.oX].].].@XKXLXVXMXAXMXAXMX6X2X>XfXkXkXkXkXkX",
"yXuXuX0X0X^.A.Z.m.M.f.L.U.U.H.G.L.h.h.N.V.A.S.9XqXeXeXtXyXyXfXfXkXkXkXkXkXkXkXkXkXkXkXkXkXkXkX5XkXkXkXkXkX5XyXaXzX7X1X8X4X2XZXxXcX7XBXIX}.OXE.z.8.K.9.9.8.7.7.9.E.z.OXx.x.x.W.].OXOX@X$X X X%XLXVX7X7X7XMXMXMX:X>XlXkXkXkXlXkX",
"tXuXqXeXpX^.A.V.N.M.f.P.H.L.G.g.P.R.M.M.V.A.S.9XqXeXeXtXyXfXfXkXkXkXkXkXkXkXkXkXkXkXkXkXkXkXkXkXkXkXkXkXkXkXzXDX-.3X7X3XAX6XZXZXcXmXBXPX XOXoXE._._._._.9.9.9.E.oXE.@Xx.OXOXOX@X@X@X}.|.%X%XKXIXCXVXMX4X7X7XmX1XfXlXkXkXkXfXkX",
"yXuXeXeX0XS.S.Z.m.M.h.L.G.G.P.Y.P.R.M.B.m.Z.S.9X0XeXeXtXyXyXfXfXkXkXkXkXkXkX5XkXkXkXkXkXkXkXkXkXkXzXkXkXkXkXyXlXfX8X8X4X8X7XbX6XDX7XVXvXKXz.9.E.oX].x.z.E.E.z.E.W.@X@X].@X@X@X$X$X@X#X X&XKXLXsXVXmXmX7X4XnXMX1X>XlXlXkXkXkXkX",
"tXuXeXqX0X9XA.Z.m.N.h.G.G.R.P.P.U.f.M.M.Z.Z.S.9X0XeXeXtXyXyXfXfXkXkXkXkXkXfXfXkXkXkXkXkXkXkXkXkXkX>XkXkXkX5XrX/.vXcX8X4X4X7XnXnXDXSXVXBXsX.X{.l.K.'.z.x.oXW.E.W.OX@X@X@X$X$X$X$X}.$X X#X#X%X XjXVXVXMXNX2XMXMX;XyXkXkXkXkXkXkX",
"yXuXeXqX0XS.S.Z.m.N.M.h.f.g.R.T.f.M.M.N.m.Z.S.9X0XeXeXtXtXfXfXkXkXkXkXkXkXkXkXkXkXkXkXkXkXkXkXkXkXkXkXkXfXfXgXhXcX6X6X4X7X7XnXxXDXVXGXcXzXzXzXwXl.9.9.Q.E.W.W.+X+X$X&X@X&X$X#X@X$X X|.C. XKX.XjXVXMXAX7X2X7XNX-.yXkXkXkXkXfXkX",
"tXuXeXeX0X9XS.A.V.Q.Q.Q.T.T.T.T.Q.R.M.B.Z.Z.S.9X0XeXeXtXyXyXfXfXkXkXkXkXkXkXkXkX5XkXkXkXkXkXkXkXkXkXkXkXfXfXgXcX7X8X8X7XMX7XnXvXcXZXSXjX5XfXkXzX`.C.OXz.Q.W.OX+X+X&X@X@X$X@X@X#X$X$X|.|..XiXjXvXVX7XMXMX,.:XbX*X>XlXkXkXkXlXkX",
"yXuXuXeX0X9XS.A.D.P.K.L.P.P.P.P.P.P.Y.C.Z.A.^.9X0XeXeXtXyXyXfXfXkXkXkXkXkXkXkXkXfXkXkXkXfXfXkXkXkXkXkXkXkXfX6XHXZX5X7XVXMX7XBXzX7XnXcXvXkXkXkXzXgXs..X X%X$X#X!.@X$XC.!.#X#X#X#X%X%X XwXiX5XjXvXcXMXMX7X2X2XNX;XyXkXkXlXkXkXkX",
"yXtXeXeXqX9X9XS.D.U.Q.L.I.L.L.L.L.I.P.N.Z.S.^.9X0XeXeXtXyXyXfXfXkXkXkXkXkXkXkXkXkXkXkXkX5XkXkXkXkXkXkXkXkX>X4XHX,X2XAX7X7XMXBX*X5XBXvXlXkXkXkXhX5X`.XX`.|.|.!./.!.!.!.!.!./.KX#XKXaX XwXkXkXfXzXVXMXMX6X2XNXNX*XfXlXkXkXkXkXkX",
"yXtXuXeXqX0X9XS.D.Z.m.J.T.N.N.N.N.Q.P.Q.Z.S.^.9X0XeXeXtXyXyXyXfXkXkXkXkXkXkXkXkXkXkXkXkXkXkXkXkX>XkXkXkXkX>X6XVX2X7XMX7XmX6XBX7XcXnXvXlXkXkXkXkXfXs.p.[.v.v.h.h.h.V.V.A./.pXpX.X9XaXwXwXkXkXfXvXVXMXNX2XNX6XNX;XyXkXkXkXkXkXfX",
"yXtXuXuXeX0X9XS.S.A.Z.V.C.m.B.m.B.!.K.m.A.^.^.0XeXeXuXtXyXyXyXlXkXfX5XkXkXkXkXkXkXkXkXkXkXkXkXkXkXkXkXkXkX5XxXcX8X7XMXMX7X2XBXGXSXBXcXlX>XkXkXkX=X`.J N u.m.A././././.sXKXpXS..XpXaX9XwXkXkXfXzXVXmX6X6XmXMXNX2XkXkXkXkXkXkXfX",
"yXtXtXtXuXqX0X9XS.S.S.Z.V.V.V.V.Z.Z.Z.A.S.S.9XqXqXeXuXtXyXyXfXfXkXkXkXkXkXkXkXkXkXkXkXkXkXkXkXkXkXkXkXkXkXlX,X:X6XcXGXMX6X:XnXVXSXZXCXjXlXkXkXzX=X`.u.G u.|.rXhXUXZXPXUXsXS.n..XaXpXpXdXkXkXlXvXVXnX6XnXMXNXNX5XkXkXkXkXlXkX=X",
"yXyXyXuXuXuXqX9X9X9XS.S.S.Z.Z.S.A.S.S.S.^.9X0XqXeXuXtXyXyXyXfXkXkXkXkXkXkXkXkXkXkXkXkXkXkXkXkXkXkXkXkXkXkXyX;XbXmXMXMXmX:X1XVXVXGXVXcXvXfXlXkXxX=Xs.a.u.u.S.gX,XBXBXBXnXrX{..XaXaXpX0XqXiXkXlXxXmXnXnXmXnXNXNX5XfXkXkXkXfXkXfX",
"fXyXyXuXuXuXeX0X0X0X9XS.|.S.S.S.S.^.|.9X9X0XqXqXuXtXtXyXyXfXfXkXkXkXkXkXkXkXkXkXkXkX5XkXkXkXkXkXkXkXkXkXkXfX5XnXcXGXMX2X:XmXVXVXcXVXSXzXfXfXzXkXs.p.b.b.a.F.(.,XbXnXbX:XuX|.aXpXpXpX9X^..XwXjXCXnXmXnXnXmXNXNXxXfXkXkXkXkXkXlX",
"fXfXyXyXuXuXuXuXqXqX0X9X0X9X9X9X^.9X9X0XqXqXeXuXuXtXtXyXyXfXyXfXkXkXkXkXkXkXkXkXkXkXfXkXkXkXkXkXkXkXkXkXkXkX6XZX7XGX2X:X6XxXVXVXSXSXDXvXkXzX>Xs.p.a.i.a.n.b.n.wXgX).).rX9XsXKXpXpXpXpX9X.X{.jXxXnXnXmXmXmXNXnXfXkXkXkXkXkXkXkX",
"fXyXyXyXyXuXuXuXeXqXqXqX0X0X0X0X0XqX0XqXqXqXuXuXtXyXyXyXyXkXkX5XkXkXkXkXkXfXfXkXkXkXkXkXkXkXkXkXkXkXkXkXkXkX6XnX7XVX;.6XVX7XVXCXVXxXCXPX`.`.s.F u.u.r.i.v.n.S.|.aXaX9XS.|.pXpXpXS.|.S.S..X.XKXUXnXnXmXmX6X6XnX>XkXkXfXlXkXkXkX",
"fXfXfXyXfXuXtXuXuXuXuXqXeXwXqXqXqXqXqXeXuXuXuXtXtXyXyXyXkXyXkXyXkXkXkXkXkX5XkXkXkXkXkXkXkXkXkXkXkXkXkXkXkXkXxXVXAXmX:XmXnXVXcXVXCXBXUXLXa.u.0.0.0.t.i.r.k.k.C.D.S.V.v.B.Z.|.pXA.A.A.A.b.|.aXIXUXBXmXmXmX-.1XnX>XlXkXkXkXkXkXkX",
"fXfXfXyXyXyXyXtXtXuXuXuXuXuXuXeXeXuXuXuXuXuXtXyXyXyXyXfXyXkXkXkXkXkXkXkXkXkXkXkXkXkXkXkXkXkXkXkXkXkXkXkXkXkXzXcX7X6XnXVXmXVXHXGXBXnXCXPX|.c.i.D t.r.r.r.r.d.N.V.B.d.d.d.v.D.D.V.v.V.v.v.|.aXPXBXNXMXVXMXS <XVX,XfXkXkXkXfXkXkX",
"fXfXfXfXfXfXyXyXyXyXtXtXuXuXtXuXuXtXuXtXtXtXtXyXyXyXfXfXkXkXkXkXkXkXkXkXkXkXkXkXkXkXkXkXkXkXkXkXkXfX5XkXkXkXkXcX4X6XmXmXVXMXMX7XVXnXBXPX X{.k.q.q.r.r.d.d.d.h.h.j.r.e.d.M.C.m.v.v.v.v.n.|.LXUXBXVXmXHXNXS jXHX1XyXkXkXkXkXkXkX",
"kXfXfXkXfXfXfXfXyXyXyXyXyXtXyXtXyXtXtXyXyXyXyXyXyXfXfXfXfXkXkXkXkXkXkXkXkXkXkXkXkXfXkXkXkXkXkXkXkXkXkXkXkXkXkXSXmXxXVXnXmXJXX.1XHXBXBXCXaXD.k.r.r.q.r.r.d.d.d.g.d.w.d.d.N.B.k.d.d.v.v.m.9XKXPXBXVXVXmXNX} iXCX6XyXlXkXkXkXkXkX",
"kXkXfXkXfXfXfXfXfXfXyXyXyXyXyXyXyXyXyXyXyXyXyXkXfXkXfXfXkXkXkXkXkXkXkXkXkXkXkXkXkX5XkXkXkXkXkXkXkXkXkXkXkXkXzXGXVX6XNXmXCXCX*.<.JXVXCXPX XZ.j.d.r.r.r.e.d.r.d.d.w.w.w.d.j.d.r.d.d.v.v.F.pXIXPXCXVXVXBX6X} lXBX6X>XkXkXkXkXkXkX",
"kXkXkXkXkXfXfXfXfXfXfXfXfXyXyXyXyXfXyXyXfXyXfXfXfXfXkXkXkXkXkXkXkXkXkXkXkXkXkXkXkXkXkXkXkXkXkXkXkXkXkXfXkXkXzXGXmX' bXBXUXCXJXFXSXVXCXPX Xb.r.r.t.e.w.t.0.r.w.w.w.w.d.d.e.e.e.r.j.v.j.Z.pXIXUXZXmXSXBX;XXXvXmX5XfXlXkXkXkXkXkX",
"kXkXkXkXkXkXkXkXfXkXfXfXfXfXkXfXfXfXfXlXfXfXfXkXkXkXfXkXkXkXkXkXkXkXkXkXkXkXkXkXkXkXkXkXkXkXkXkXkXkX5XfXkXkXhXCXVX:XBXvXCXJXHXMXmXVXCXUXpXv.r.e.t.w.h h t.w.w.w.w.w.w.w.e.e.e.e.r.v.j.V.IXPXCXZX7XVXZX:.XXDXnX6XfXkXkXkXkXkXkX"
};
