/* XPM */
static char * jaromil_xpm[] = {
"95 72 256 2",
"  	c None",
". 	c #000100",
"+ 	c #9F9CAD",
"@ 	c #264346",
"# 	c #C7C9C6",
"$ 	c #1A2425",
"% 	c #1F1A2C",
"& 	c #0D1214",
"* 	c #333930",
"= 	c #080B07",
"- 	c #E1E3E0",
"; 	c #312942",
"> 	c #45385A",
", 	c #193639",
"' 	c #B1B2BC",
") 	c #101517",
"! 	c #5A5C59",
"~ 	c #2F2C21",
"{ 	c #BAC6B3",
"] 	c #3F3E22",
"^ 	c #242217",
"/ 	c #2D313D",
"( 	c #EEF0ED",
"_ 	c #1B1A1D",
": 	c #231E27",
"< 	c #A6A8A5",
"[ 	c #3B3A3D",
"} 	c #BCBEBB",
"| 	c #40564F",
"1 	c #201E13",
"2 	c #335E65",
"3 	c #302132",
"4 	c #B1B3B0",
"5 	c #1D1C16",
"6 	c #25251E",
"7 	c #B49E9B",
"8 	c #473754",
"9 	c #2B362C",
"0 	c #231C21",
"a 	c #3A3B29",
"b 	c #171E1B",
"c 	c #1D2728",
"d 	c #D4D6D3",
"e 	c #2A2F31",
"f 	c #353E30",
"g 	c #1E201D",
"h 	c #312D2C",
"i 	c #C3ADAA",
"j 	c #17121B",
"k 	c #C6BCC2",
"l 	c #BCB0B0",
"m 	c #3D3731",
"n 	c #2B201C",
"o 	c #9B999D",
"p 	c #472E5E",
"q 	c #3F4A4B",
"r 	c #51433A",
"s 	c #1D161B",
"t 	c #C0C0CA",
"u 	c #0C0E0B",
"v 	c #171916",
"w 	c #AEB3B5",
"x 	c #202128",
"y 	c #2B2D2A",
"z 	c #4F513E",
"A 	c #222421",
"B 	c #2D2B2F",
"C 	c #352048",
"D 	c #35393B",
"E 	c #11120F",
"F 	c #C2BCBB",
"G 	c #B7B2B1",
"H 	c #261239",
"I 	c #464845",
"J 	c #28262A",
"K 	c #BCABB3",
"L 	c #BCB2B8",
"M 	c #432540",
"N 	c #343533",
"O 	c #B9ACAD",
"P 	c #383937",
"Q 	c #28363B",
"R 	c #F2F4F1",
"S 	c #1F1B1A",
"T 	c #543551",
"U 	c #A8A8BE",
"V 	c #A9AEB0",
"W 	c #150F19",
"X 	c #574664",
"Y 	c #131512",
"Z 	c #BBBAB1",
"` 	c #2C2C25",
" .	c #C4C6C3",
"..	c #424537",
"+.	c #4D5859",
"@.	c #302837",
"#.	c #53532A",
"$.	c #B6ACB2",
"%.	c #352637",
"&.	c #49463A",
"*.	c #ADAEB8",
"=.	c #414240",
"-.	c #CFD1CE",
";.	c #6A6C69",
">.	c #E6E9E5",
",.	c #383821",
"'.	c #473A40",
").	c #19181B",
"!.	c #ADAFAC",
"~.	c #19201C",
"{.	c #3D3A2E",
"].	c #B3B1B5",
"^.	c #2E353C",
"/.	c #595C4E",
"(.	c #442244",
"_.	c #1F1D20",
":.	c #2E272C",
"<.	c #442E57",
"[.	c #232729",
"}.	c #B9C0B5",
"|.	c #424044",
"1.	c #333E3F",
"2.	c #161815",
"3.	c #B6B8B5",
"4.	c #C9C8BF",
"5.	c #465858",
"6.	c #443546",
"7.	c #2A322E",
"8.	c #E2DDDB",
"9.	c #0F110D",
"0.	c #C9C7CB",
"a.	c #E5E0DE",
"b.	c #39413D",
"c.	c #3D2A4C",
"d.	c #B4B1C2",
"e.	c #433335",
"f.	c #C9C3C2",
"g.	c #1C231F",
"h.	c #4E4F4D",
"i.	c #231B2A",
"j.	c #353337",
"k.	c #BBB8BD",
"l.	c #C0C2BF",
"m.	c #BFBAB8",
"n.	c #BEAAAD",
"o.	c #C6C3C8",
"p.	c #412B54",
"q.	c #151614",
"r.	c #1E2224",
"s.	c #292A28",
"t.	c #1A1615",
"u.	c #38352A",
"v.	c #3C4042",
"w.	c #54366E",
"x.	c #2D2B1F",
"y.	c #2A2A23",
"z.	c #213231",
"A.	c #181619",
"B.	c #271C27",
"C.	c #3E3942",
"D.	c #3C3530",
"E.	c #9C9CA6",
"F.	c #211F22",
"G.	c #3B2A37",
"H.	c #252725",
"I.	c #38443A",
"J.	c #293334",
"K.	c #BFBCC1",
"L.	c #AAACA9",
"M.	c #F1ECEA",
"N.	c #1A1C19",
"O.	c #F7F1F0",
"P.	c #EFEAE8",
"Q.	c #1D1F1C",
"R.	c #212320",
"S.	c #242225",
"T.	c #303436",
"U.	c #B8B8C2",
"V.	c #1E1C1F",
"W.	c #B7C7AD",
"X.	c #C7BABB",
"Y.	c #1B1716",
"Z.	c #131115",
"`.	c #1D1B1E",
" +	c #DCDEDB",
".+	c #383C2E",
"++	c #353121",
"@+	c #32323A",
"#+	c #2C1C28",
"$+	c #202723",
"%+	c #4C4B44",
"&+	c #ABA8B9",
"*+	c #352934",
"=+	c #CCC7C6",
"-+	c #BEB7C3",
";+	c #515149",
">+	c #3F373C",
",+	c #A5A2A7",
"'+	c #30322F",
")+	c #211C17",
"!+	c #C4B1B3",
"~+	c #352D32",
"{+	c #B1AAB6",
"]+	c #31242B",
"^+	c #20211F",
"/+	c #242523",
"(+	c #392F2F",
"_+	c #44494B",
":+	c #474438",
"<+	c #505557",
"[+	c #494046",
"}+	c #1C1D1B",
"|+	c #0A0C08",
"1+	c #312522",
"2+	c #C6C1BF",
"3+	c #32312A",
"4+	c #4B3E60",
"5+	c #2D3738",
"6+	c #A8A4B5",
"7+	c #2C3D3C",
"8+	c #1F3735",
"9+	c #395659",
"0+	c #43374D",
"a+	c #2E3234",
"b+	c #F3F5F2",
"c+	c #191116",
"d+	c #4E4158",
"e+	c #C0C4B4",
"f+	c #201B24",
"g+	c #BFA9A6",
"h+	c #292A19",
"i+	c #BBB6B4",
"j+	c #B9BBB8",
"k+	c #372F25",
"l+	c #BDA09F",
"m+	c #201620",
"n+	c #372336",
"o+	c #312C35",
"p+	c #B5B7B3",
"q+	c #C2B8BE",
"r+	c #372E3D",
"s+	c #A3A4AD",
"t+	c #28232C",
"u+	c #B2B7BA",
"v+	c #121411",
"w+	c #0E100C",
"x+	c #CDC0C1",
"y+	c #232124",
"z+	c #272826",
"A+	c #C4C1C5",
"B+	c #323033",
"C+	c #29261B",
"D+	c #A8AAA7",
"E+	c #455050",
"F+	c #B7B5B9",
"G+	c #2C212C",
"                                                                          . .                                                                                       . . . L.. . . .           ",
"                                                                      . . . . . .                                                                                 . . . . =+L.. . .           ",
"                                                                    . . . . . . . .                                                                               . . . b+P.} . . .           ",
"                                                                  . . . . 3. +. . . .                                                                           . . . . O.b+0.. . . . .       ",
"                                                                . . . . . P.b+b+. . .                                                                           . . . b+O.b+. . . . . . .     ",
"                                                              . . . . >.R b+O.. . . .                                                                           . . . b+b+O.b+- } . . . .     ",
"                                                            . . . . O.O.O.. . . . .                                                                             . . . b+b+O.O.O.-  .< . . .   ",
"                                                            . . . b+b+. . . . . .                                                                               . . . . b+b+b+b+. . . . . .   ",
"                                        . . .       . . . . . . . b+b+b+. . . .                                                                                   . . . . . b+b+b+b+R . . .   ",
"                                    . . . . . . . . . . . . . . . O.O.. . . .                                                                                       . . . . . . . . O.. . .   ",
"                                  . . . . . . . . . . . . . b+b+b+. . . . .                 . . . . . . . . . . . . .                                                 . . . . . . b+b+. . .   ",
"                                . . . . b+. b+. . . . b+b+b+O.O.b+b+. . .               . . . . . . . . . . . . . . . . . . .                                             . . . . b+O.. . .   ",
"                                . . . O.b+O.b+b+b+b+O.O.O.b+b+b+. . . . .             . . . . . . . . . . . . . . . . . . . . . . . .                                       . . . b+b+. . .   ",
"                                . . . b+O.b+O.O.O.O.b+b+b+b+b+. . . . .               . . . b+. b+. b+b+b+b+b+b+. b+b+. . . . . . . . . .                                   . . . . O.. . .   ",
"b+b+b+b+b+b+b+b+b+b+b+b+        . . . b+b+b+b+b+b+b+b+b+b+b+. . . . .                 . . . b+O.b+O.O.O.O.O.O.b+O.O.b+b+b+b+. . . . . . . . . .                             . . . b+b+. . . . ",
"  Q.                            . . . b+b+b+b+b+b+b+b+b+O.. . . .                   . . . . O.b+O.b+b+b+b+b+b+O.b+b+O.O.O.O.b+b+b+b+. . . . . . .                           . . . b+O.b+. . . ",
"                                . . . O.b+b+b+b+O.O.O.b+. . . .                     . . . b+b+b+b+b+b+b+b+b+b+b+b+b+b+b+b+O.O.O.O.b+b+b+. . . . . .             b+          . . . b+. b+b+. . ",
"                                . . . b+O.O.O.O.b+b+b+. . . .                       . . . b+b+b+b+b+b+b+b+b+b+b+b+b+b+b+b+b+b+b+b+O.O.O.b+b+b+. . .                         . . . . . O.O.. . ",
"b+    b+b+b+b+b+b+b+b+b+        . . . b+b+b+b+b+b+b+. . . .                       . . . . O.b+O.O.O.O.O.O.b+O.O.b+b+b+b+b+b+b+b+b+b+b+O.O.O.b+. . . .                         . . . b+b+. . . ",
"  Q.                            . . . b+b+b+b+b+b+. . . . S _.                  . . . . b+b+O.b+b+b+b+b+b+O.b+b+O.O.O.O.b+b+b+b+b+b+b+. . . O.b+. . . .                     . . . . b+b+. . . ",
"                                . . . b+b+b+O.. b+. . . D ]+0 _               . . . . . b+b+b+b+b+b+b+b+b+b+b+b+b+b+b+O.O.O.O.b+b+b+b+. . . . b+b+. . . .                   . . . b+b+b+. . . ",
"      } R b+b+b+b+b+b+b+        . . . O.O.O.b+b+O.. . . D.J.~+/+s.            . . . b+b+b+b+b+b+b+b+b+b+b+b+b+b+b+b+b+b+b+b+b+O.O.O.O.. . . . . O.b+. . . .                 . . . O.O.O.b+. . ",
"      O.F                       . . . b+b+b+O.b+. . . . N D N               . . . . O.O.b+O.O.O.O.O.O.b+O.O.b+b+b+b+b+b+b+b+b+b+b+b+b+. . . . . . b+b+. . . .               . . . . . O.b+. . ",
"      b+                        . . . b+b+b+b+b+b+. . .   /+                . . . b+b+b+O.b+b+b+b+b+b+O.b+b+O.O.O.O.b+b+b+b+b+b+b+b+O.. . . . . . . O.b+. . . .               . . . . . O.b+. ",
"      >.!.                      . . . b+O.b+b+O.b+. . . 5+                  . . . b+b+. . . . . . . b+b+b+b+b+b+b+O.O.O.O.b+b+b+b+b+b+b+b+. . . . . O.b+b+. . . .               . . . . . . b+",
"      F a.!.                    . . . O.b+b+. . O.. . . y                   . . . . . . . . . . . . . O.b+b+b+b+b+b+b+b+b+O.O.O.O.b+O.O.O.. . . . . . O.O.. . . . .               . . . b+b+O.",
"      u+O.b+b+b+b+b+b+b+        . . . b+O.b+b+b+b+. . . T.h               . . . . . . . . . . . . . . O.b+b+O.b+b+b+b+b+b+b+b+b+b+b+b+b+b+b+. . . . . . b+b+b+. . .               . . . O.b+. ",
"      M.0.<         :+z         . . . b+b+O.O.b+O.. . . S.1.            . . . . b+b+b+b+b+. . . . . . . O.O.b+O.b+b+O.b+b+b+b+b+O.b+b+b+O.O.. . . . . . O.O.. . . .               . . . b+b+. ",
"      b+A+                      . . . b+b+b+b+b+. . . .               . . . . O.. O.O.. . . . . . . . . . . b+O.O.b+O.b+b+b+b+b+. . . . . . . . . . . . . b+b+. . .               . . . b+. . ",
"      >.4                       . . . b+b+b+O.. b+. . . /+3+          . . . b+b+b+. . . . . . . . . . . . b+b+b+b+b+b+O.O.O.. . . . . . . . . . . . . . . . O.. . .               . . . . . . ",
"      F >.4                     . . . . b+. . . . . .   C.          . . . . b+O.b+. . . . b+b+. . . . . . b+b+b+b+b+b+b+b+b+b+. . . . . . . . . . . . . . b+b+. . .               . . . b+. . ",
"      R O.O.b+b+b+b+b+b+        . . . b+. b+. . . . .         . . . . . . . b+b+O.. . . b+. . . . b+. . . O.O.b+O.O.b+b+b+O.O.b+. . . . . . . . . . . . . b+. . . .               . . . O.. . ",
"                    J.c 8+^+J B+. . . b+O.b+. . . .       . . . . . . . b+O.b+b+b+b+b+O.. . . . . b+. . . b+O.b+b+b+b+b+b+b+O.b+b+b+b+. . . . . . . . . b+b+. . .                 . . . b+b+. ",
"                                . . . O.b+O.. . . . .   . . . . . . . . O.b+b+b+O.O.O.. . . . . . O.. . . . b+b+b+O.O.O.b+b+b+. . O.O.b+. . . . . . . . O.O.. . .                 . . . O.O.b+",
"        p+8.( R (  +3.          . . . b+b+b+b+b+. . . . . . . b+. b+b+b+b+O.b+b+b+b+b+. . . . . . b+. . . . b+b+b+b+b+b+b+b+. . . . . . b+b+. . . . . . b+. . . .                 . . . . O.b+",
"      j+O.u+O   G 2+M.j+I _+    . . . b+b+. . . . . . . . . . O.. O.O.b+. b+O.b+b+b+O.b+. . . . . . . . . . O.O.b+b+b+O.. b+. . . . . . . . b+. . . . . b+. . .                     . . . b+O.",
"      - j+          i+>.        . . . . . . . . . b+. . . . b+. b+b+b+b+b+b+b+b+b+b+O.b+b+b+. . . . . . . . b+b+. b+b+. . . . . . . . . . . b+b+. . . b+. . . .                   . . . . b+b+",
"      O.$.          E.O.        . . . b+. b+. . . . . . . . b+. b+b+O.O.b+b+O.O.O.b+b+O.O.O.b+b+b+b+. . b+b+b+. . . b+. . . . . . . . . . . . O.b+. . O.. . .                   . . . . b+b+O.",
"      >.3.          j+>.        . . . b+O.. . b+. . . . . . b+b+b+b+b+O.b+b+b+b+b+b+b+b+b+O.O.O.O.b+b+O.O.b+b+. . . b+b+. . b+b+. . . . . . b+O.b+. . b+. . .                   . . . O.b+b+b+",
"      k.M.l.<   < } O.F /.|     . . . O.. . . . . . . . . . O.O.O.b+b+b+O.b+b+b+O.b+b+b+b+b+b+b+b+O.O.b+b+O.O.. . . O.. . . . . . . . . . . b+b+O.. b+. . . .                   . . . b+O.b+O.",
"        i+8.( O.O. +u+E+q       . . . . . . . . . .   . . . . b+b+b+b+b+b+b+b+b+O.b+b+b+b+b+b+b+b+b+b+b+b+b+b+. . . b+. . . . . . . . b+. . b+b+b+O.b+. . .                   . . . . b+b+b+b+",
"                                . . . . . . . .         . . . . . O.b+b+O.O.O.b+b+O.O.O.b+b+b+b+b+b+b+b+b+b+O.. . b+O.. . . . . . . . O.. . b+b+O.b+O.. . .                   . . . b+b+O.b+O.",
"       +4                       . . . b+b+. . .           . . . . O.b+b+b+b+b+b+b+. b+O.O.O.O.b+b+O.O.b+b+b+. . . . b+b+. . . . b+b+b+. . . b+b+b+b+. . . .                   . . . b+b+b+b+b+",
"      R O                         . . . . . . .             . . . b+O.b+b+b+. . . b+b+b+b+b+b+O.O.b+b+O.O.b+. . . b+O.O.b+b+b+b+O.O.b+b+b+b+O.b+b+b+. . .               N.  . . . . . b+O.b+O.",
"      ( L.                        . . . b+. . .           . . . . b+b+O.b+. . . . b+b+b+b+. b+b+b+b+b+b+b+b+. . . . b+O.O.O.O.b+b+b+O.O.. . b+O.b+. . . .               N.N.. . . b+b+b+b+b+b+",
"      0.a.p+<                     . . . . . .             . . . b+b+O.b+O.. . . . . . b+b+b+. b+b+b+b+b+O.O.. . . . b+b+b+b+b+b+b+. b+b+. . . . O.. . .             J A y+. . . . O.O.b+O.b+O.",
"      b+O.O.b+b+b+b+b+b+            . . . . .             . . . b+b+b+b+b+. . . . . . . . b+. . . b+b+b+b+b+. . . . b+b+b+b+. . . . . . . . . b+b+. . .     F.g N.Q.F.. . . . . b+b+b+b+b+b+b+",
"                                        .                 . . . . b+b+b+O.. . . . . . . . . . . . O.O.b+b+O.. . . . . b+b+b+. . . . . . . . . . O.. . .   `.N.A._ 2.v . . . . . b+b+O.b+O.b+O.",
"                                                            . . . O.b+b+b+b+b+b+. . . . . . . . . b+b+b+b+b+b+b+. . . O.O.b+b+. . . . . . . . b+. . . . E `.r.) A.A.. . . b+b+b+b+b+b+b+b+b+b+",
"      L.8.O.b+b+b+b+b+b+h.                                  . . . b+O.b+O.O.O.O.b+. . . . . . . . . O.O.b+O.. O.b+. b+b+b+O.O.. . . . . . . . b+. . . . r.E t.t.Q.E . . . . O.O.O.b+O.b+O.b+O.",
"       +-.k P.].< F M.j+                                    . . . . . b+b+b+b+O.b+b+. . . . . . . . . . b+. . O.b+O.b+b+b+b+b+b+. . . . . . . b+. . . . . 2.Y Z.. . . . . b+b+b+b+b+b+b+b+b+b+",
"      O.< U.-. .7 i A+a.                                    . . . b+b+b+b+b+b+b+O.O.b+. . b+. . . . . . . . . . O.b+b+b+b+b+O.O.b+. . . . . b+O.. . . . . . . . . . . . b+b+b+b+O.b+O.b+O.b+O.",
"      O.U d.F d 7   V (                                       . . . b+b+b+b+b+b+b+O.b+b+O.b+. . b+b+. . . . . . . . . b+b+b+b+O.b+b+b+b+b+. b+b+. b+b+. . . . . . . . . b+b+b+b+b+b+b+b+b+b+b+",
"      - !.w j+P.!.G < O.                                    . . . . O.O.O.O.b+b+b+b+O.O.b+O.b+. . O.b+. . . . . . . . . . . . b+O.O.O.O.O.b+b+O.b+O.O.. . . . . b+. b+b+O.O.O.b+O.b+O.b+O.b+O.",
"      f.a.w ,+( } l.-.8.                                  . . . . . . b+b+O.b+b+b+b+b+b+b+O.b+b+b+O.. b+. . . . . . . . . . . . b+b+b+b+O.b+b+O.b+b+b+. . . . . . O.O.b+b+b+b+b+b+b+b+b+b+b+b+",
"        0.P.W.w P.R 8.V                                 . . . . . . . . b+b+O.O.b+b+. . . . O.O.b+b+b+O.b+b+. . . . . . . . . . b+b+b+b+b+O.b+. . b+. . . . . . b+b+b+b+b+b+b+b+O.b+O.b+O.b+O.",
"                                                        . . . b+b+. . b+b+b+b+O.b+b+b+. . . . b+b+O.b+O.O.. b+. b+b+b+. . . . b+b+b+b+b+b+b+. . b+. . . . . . O.b+b+b+b+b+O.b+b+b+b+b+b+b+b+b+",
"                                                      . . . . O.O.. . . b+b+b+b+O.O.. . . . . . . . b+. b+b+O.. O.O.O.b+b+. . O.O.O.O.b+b+O.b+b+. . . . . . b+b+b+b+O.O.O.b+O.b+O.b+O.b+O.b+O.",
"b+!   b+b+b+b+b+b+b+b+b+b+R }                         . . . b+b+b+. . . b+b+b+b+b+. . . . . . . . . . . O.b+b+b+b+b+O.O.b+b+b+b+b+b+O.. . . . . . . . . . . b+O.O.b+b+b+b+b+b+b+b+b+b+b+b+b+b+",
"                          F O.                        . . . b+. . b+. . . O.b+b+. . . . . . . . . . . . b+b+O.b+b+b+b+b+O.. b+b+b+b+. b+b+. . . . . . . . b+b+b+b+b+b+b+b+b+b+b+O.b+O.b+O.b+O.",
"                          < a.                      . . . b+b+b+. . . . . . . . . . . . . . . . . . b+b+b+b+b+b+b+b+b+. b+b+. b+b+. . . . . . . . . b+b+O.O.b+b+b+b+b+O.b+O.b+b+b+b+b+b+b+b+b+",
"                                                    . . . . O.O.b+. . . . . . . . . . . . . . . . b+O.b+O.b+O.O.O.b+b+b+O.O.b+. . . . . . . . . . . . O.b+. b+b+O.O.O.b+O.b+O.b+O.b+O.b+O.b+O.",
"                                                  . . . . b+b+O.b+b+. . . . . . . . . . . . . . . b+O.b+b+b+b+b+O.O.O.b+b+. . . . . . . . . t.. . . b+b+b+O.O.b+b+b+b+b+b+b+b+b+b+b+b+b+b+b+b+",
"                                                . . . . b+b+b+b+O.O.b+. . . . . . . . . . . . . . . b+b+O.b+b+b+b+b+b+b+. . . . . .         . . . . b+b+O.b+b+b+b+b+b+b+b+b+O.b+O.b+O.b+O.b+O.",
"                                              . . . . O.b+b+b+b+b+O.b+. . . . . . . . . . . . . . b+b+b+b+b+b+b+b+b+. . . . . .           . . . . b+O.b+b+b+b+O.b+O.b+O.b+b+b+b+b+b+b+b+b+b+b+",
"                                            . . . . b+b+O.O.b+b+b+. . b+. . . . . . . . . . . . . b+O.b+O.O.O.b+. b+b+. . .               . . . b+O.. b+b+b+O.b+O.b+O.b+O.b+O.b+O.b+O.b+O.b+O.",
"                                          . . . . . . b+b+O.b+b+b+. O.b+b+. . . . . . . . . . . . b+. b+b+b+. . O.O.b+. . .               . . . b+b+b+O.O.b+b+b+b+b+b+b+b+b+b+b+b+b+b+b+b+b+b+",
"                                          . . . . b+b+b+b+b+O.O.O.b+b+O.. b+. . . . . . . . . . . . . . . b+b+b+b+b+. . . .               . . . b+O.O.b+b+b+b+b+O.b+b+b+O.b+O.b+O.b+O.b+O.b+O.",
"                                        . . . b+. . b+b+b+b+b+b+O.b+b+b+O.b+. . . . . . . . . . . . . . b+O.O.b+b+b+. . .                 . . . . . . b+. O.b+b+b+O.b+b+b+b+O.b+b+b+b+b+b+b+b+",
"                                        . . . . b+b+O.O.b+b+b+b+b+b+b+O.b+. b+b+b+. . . . . . . . . . b+O.b+b+b+b+. . . .                   . . . . b+b+b+b+O.b+O.b+O.b+O.b+b+b+O.b+O.b+O.b+O.",
"                                        . . . O.. b+b+O.b+b+b+b+O.b+b+b+. . . O.b+b+b+b+b+. . . b+b+O.b+b+b+O.O.b+. . .                       . . . . O.. b+b+b+b+b+O.b+b+b+b+b+b+b+b+b+b+b+b+",
"                                        . . . b+. . b+. O.O.O.b+b+O.b+b+b+. b+b+O.O.O.O.O.b+b+b+O.O.b+b+b+b+. b+. . . .                       . . . b+b+b+b+O.b+b+b+b+b+O.b+O.b+O.b+O.b+O.b+O."};
