/* XPM */
static char * malasystem_xpm[] = {
"163 31 168 2",
"  	c None",
". 	c #CD580C",
"+ 	c #EC6104",
"@ 	c #FE6600",
"# 	c #FF6600",
"$ 	c #E55E06",
"% 	c #EE6204",
"& 	c #F16303",
"* 	c #FB6501",
"= 	c #BF540F",
"- 	c #D95C09",
"; 	c #E35F06",
"> 	c #D65B09",
", 	c #F06303",
"' 	c #F66502",
") 	c #D15A0B",
"! 	c #E65F06",
"~ 	c #E66006",
"{ 	c #EF6204",
"] 	c #F46402",
"^ 	c #F46302",
"/ 	c #E15E07",
"( 	c #F66402",
"_ 	c #EB6105",
": 	c #DC5D08",
"< 	c #FA6501",
"[ 	c #E85F06",
"} 	c #F86501",
"| 	c #FD6500",
"1 	c #EB6104",
"2 	c #D85C09",
"3 	c #DA5C09",
"4 	c #F96401",
"5 	c #F76402",
"6 	c #E96105",
"7 	c #E25E07",
"8 	c #F86402",
"9 	c #F16203",
"0 	c #E15F07",
"a 	c #EA6105",
"b 	c #EC6204",
"c 	c #FD6501",
"d 	c #DB5D08",
"e 	c #E86005",
"f 	c #FC6501",
"g 	c #F26203",
"h 	c #F46303",
"i 	c #E45F06",
"j 	c #CC580C",
"k 	c #FD6600",
"l 	c #EA6005",
"m 	c #F96501",
"n 	c #E05F07",
"o 	c #FC6601",
"p 	c #F06204",
"q 	c #D05A0B",
"r 	c #F56302",
"s 	c #E76005",
"t 	c #E05D07",
"u 	c #F66302",
"v 	c #D75B09",
"w 	c #C3560E",
"x 	c #F06203",
"y 	c #E75F06",
"z 	c #E96005",
"A 	c #D65B0A",
"B 	c #DD5D08",
"C 	c #DB5C08",
"D 	c #C8570D",
"E 	c #DE5D08",
"F 	c #ED6204",
"G 	c #ED6104",
"H 	c #D55A0A",
"I 	c #F26303",
"J 	c #F36303",
"K 	c #C2550E",
"L 	c #E36006",
"M 	c #E05E07",
"N 	c #DB5C09",
"O 	c #F56402",
"P 	c #E05D08",
"Q 	c #C6560D",
"R 	c #E76006",
"S 	c #E45E07",
"T 	c #CF590B",
"U 	c #DF5E07",
"V 	c #DF5D08",
"W 	c #E55F06",
"X 	c #D85B09",
"Y 	c #E86006",
"Z 	c #D25B0A",
"` 	c #EB6005",
" .	c #F56502",
"..	c #DBDBDB",
"+.	c #DEDEDE",
"@.	c #E6E6E6",
"#.	c #E0E0E0",
"$.	c #D1D1D1",
"%.	c #FFFFFF",
"&.	c #F5F5F5",
"*.	c #FBFBFB",
"=.	c #BEBEBE",
"-.	c #CFCFCF",
";.	c #DADADA",
">.	c #E5E5E5",
",.	c #DFDFDF",
"'.	c #E9E9E9",
").	c #CCCCCC",
"!.	c #FCFCFC",
"~.	c #F3F3F3",
"{.	c #FAFAFA",
"].	c #C7C7C7",
"^.	c #F6F6F6",
"/.	c #E7E7E7",
"(.	c #FEFEFE",
"_.	c #CDCDCD",
":.	c #EAEAEA",
"<.	c #EE6104",
"[.	c #E3E3E3",
"}.	c #F0F0F0",
"|.	c #F4F4F4",
"1.	c #F8F8F8",
"2.	c #D4D4D4",
"3.	c #EBEBEB",
"4.	c #D3D3D3",
"5.	c #BBBBBB",
"6.	c #DDDDDD",
"7.	c #E8E8E8",
"8.	c #F9F9F9",
"9.	c #B8B8B8",
"0.	c #CACACA",
"a.	c #BABABA",
"b.	c #EDEDED",
"c.	c #CECECE",
"d.	c #D9D9D9",
"e.	c #EEEEEE",
"f.	c #D2D2D2",
"g.	c #DCDCDC",
"h.	c #FDFDFD",
"i.	c #D5D5D5",
"j.	c #D7D7D7",
"k.	c #CBCBCB",
"l.	c #C5C5C5",
"m.	c #EFEFEF",
"n.	c #C0C0C0",
"o.	c #F2F2F2",
"p.	c #D0D0D0",
"q.	c #ECECEC",
"r.	c #C9C9C9",
"s.	c #D6D6D6",
"t.	c #E86105",
"u.	c #B1B1B1",
"v.	c #F7F7F7",
"w.	c #C2C2C2",
"x.	c #F1F1F1",
"y.	c #D8D8D8",
"z.	c #9F9F9F",
"A.	c #ACACAC",
"B.	c #C4C4C4",
"C.	c #C3C3C3",
"D.	c #B3B3B3",
"E.	c #AEAEAE",
"F.	c #B0B0B0",
"G.	c #E1E1E1",
"H.	c #B9B9B9",
"I.	c #949494",
"J.	c #E2E2E2",
"K.	c #BFBFBF",
"                                                                                                                                                                                                                                                                                                                                      ",
"                                                                                                                                                                                                                                                                                                                                      ",
"                                                                                                .                                                                                                                                                                                                                                     ",
"                                                                                            + @ # $                                                                                                                                                                                                                                   ",
"                                                                                            % # # &                                                                                                                                                                                                                                   ",
"                                                                                            * # # # =                                                                                                                                                                                                                                 ",
"                                                                                          - # # # # ;                                                                                                                                                                                                                                 ",
"          > , ' )       ! &         ~ {                     > ] % + + ^ /     ( +         _ # # # # :               - & + + + < [     ` 9                                                                                                                                                                                             ",
"        ' @ # # }       | # %     1 # @ 2               3 4 @ # # # # # # # 5 @ # {       6 # # # # 7             8 # # # # # # # * 9 # # z                                                                                                                                                                                           ",
"        @ # # # # 0   a # # *     ] # # ^             b @ # # # # # # # # # # # # c       d # # # # e           f # # # # # # # # # # # # (                                                                                                                                                                                           ",
"        g # # # # _   h # # # i   * # # *           j k # # # # # # # # # # # # # #       l # # # # +         4 # # # # # # # # # # # # # k                                                                                                                                                                                           ",
"          8 # # # m n o # # # p   # # # @ q         < # # # # # # # # # # # # # # # i     r # # # # g       & # # # # # # # # # # # # # # #  .                ..+.@.@.@.#.$.          %.              &.*.          =.-.@.@.@.@.;.>.          ,.'.).                                                      I.              I.I.        ",
"          k # # # o 6 # # # # h s # # # # %       a # # # # # # k 4 4 # # # # # # # t     u # # # # g     v # # # # # # @ 4 < @ # # # # # # O               !.%.%.%.%.%.%.%.~.      !.%.{.].        ^.%.%./.      ;.(.%.%.%.%.%.%.%.#.      _.%.%.%.              >.:.%.%.j.      q.        q.'.[.;.^.q.%.%.%.v...  l.}.%.%.%.%.#.    ",
"        w # # # # # # # # # # # # # # # # #       * # # # # # x       y * # # # # # z     u # # # # g     e # # # # # * 2     l < # # # # # <.            '.%.%.{.>.[.}.|.!.1.      *.%.%.>.        !.%.(.2.      !.%.%.1.[.3.~.1.(.~.      ;.%.%.%.            4.(.%.%.%.#.    @.%.g.      o.%.%.%.%.1.8.%.%.%.(.^.!.{.8.(.%.%.%.).  ",
"        A # # # # # # # # # # # # # # # # h       f # # # # f           1 @ # # # # <     u # # # # g     m # # # # f           ~ k # # # # *             !.%.%.'.        5.        6.%.%.|.      7.%.%.8.      /.%.%.{.          9.        #.%.%.%.0.        7.%.%.%.%.%.#.    ~.%.(.>.    %.%.%.*._.    J.(.%.%.%.'.5.  d.*.%.%.m.  ",
"        B # # # # # # # # # # # # # # # # {       # # # # # {             < # # # # #     u # # # # g   w < # # # # l             ( # # # # #           a.%.%.%.b.                  c.(.%.~.      d.%.%.b.      1.%.%.!.                  e.*.%.%.%.1.2.    5.!.%.!.[.^.%.#.    d.h.%.|.    %.%.%.f.        !.%.%.|.        y.h.%.~.  ",
"        2 # # # # # # # # # # # # # # # # {       # # # # # C             < # # # # #     u # # # # g   D < # # # # s             _ # # # # #             {.%.%.(.e.f.                ~.%.(.      !.%.(.c.      g.%.%.%.*.e.$.          -.!.%.%.%.%.%.h.0.  +.%.%.[.  d.(.#.      +.%.^.    %.%.%.K.        ,.%.%.d.          1.%.~.  ",
"        E # # # # # # # # # # # # # # # # {       @ # # # # F             o # # # # #     ~ # # # # z     < # # # # G             5 # # # # #             i.(.%.%.%.(.*.~.'.=.        6.%.%.-.    1.%.{.          &.%.%.%.%.h.^.:.j.      ~.%.%.%.%.%.}.    1.%.@.      !.#.      5.(.!.    %.%.%.F.        ].%.%.'.          e.%.~.  ",
"        H # # # # # # # # # # # # # # # # f       4 # # # # <           ( # # # # # I     d # # # # e     J # # # # @ 6         : @ # # # # r               k.:.*.%.%.%.%.%.!.d.      l.%.%.m.    h.%.3.            3.1.(.%.%.%.%.%.^.n.    m.%.%.%.|.      {.%.4.      !.#.        (.!.    %.%.%.F.        ].%.%.'.          e.%.~.  ",
"        K # # # # # # # # # # # # # # # # #       * # # # # # @ F     x @ # # # # # +     L # # # # t     ! # # # # # @ z   n _ @ # # # # # _                     o.p.&.%.%.%.{.        e.%.^.7.>.%.%.).                ..:.7.(.%.%.%.'.    ..%.%.%.        e.%.o.      !.J.      6.%.{.    %.%.%.F.        ].%.%.'.          e.%.~.  ",
"          # # # # # p # # # # ( s # # # # 5       M # # # # # # # @ @ # # # # # # # C     p # # # # N       k # # # # # # @ @ # # # # # # # a                           q.%.%.%.a.      /.%.%.%.%.%.h.                        r.{.%.%.b.    s.%.%.%.        -.%.%.'.  +.%.o.    n.8.%.{.    %.%.%.F.        ].%.%.'.          e.%.~.  ",
"          I # # # }   * # # # @   # # # @ M         x # # # # # # # # # # # # # # # f     C # # # # O       G # # # # # # # # # # # # # # # t.            a.r.          @.%.%.(.u.      0.%.%.%.%.%.v.            p.w.          &.%.%.x.    s.%.%.%.          v.%.%.h.%.%.%.}.#.*.%.%.G.    %.%.%.F.        ].%.%.'.          e.%.~.  ",
"          % # # # _   J # # # P   * # # <             * # # # # # # # # # # # # # #         f # # # Q         m # # # # # # # # # # # # # *             ;.%.%.^.o.    y.v.%.%.}.          8.%.%.%.%.:.          ~.%.%.:.).z.A./.%.%.%.d.    s.%.%.%.          ;.h.%.%.%.%.%.%.%.%.%.}.      %.%.%.F.        ].%.%.'.          e.%.~.  ",
"          M # # # R   d # # *     5 # # p               h # # # # # # # # # # # # {         g # # }             ( @ # # # # # # # # # # # x             B.^.%.%.%.%.%.%.%.%.8._.          >.%.%.%.%.            >.(.%.%.%.%.%.%.%.%.^.      s.%.%.%.            c.*.%.%.%.%.%.%.%.&.        %.%.%.F.        ].%.%.'.          e.%.~.  ",
"            8 # <       * # I     s @ @ v                 G 5 @ # # # # < g E f # 7         R # # {               ( J @ # # # # c J S @ @ 3                 ..e.{.h.h.h.~.'.              q.%.%.%.{.              s.b.~.h.h.h.8.e.+.        s.%.%.%.              C.q.q.}.}.}.:.y.          @.}.3.            }.}.            /.}.d.  ",
"            T l         U _         V W                       T B U U X       H >             i Y                     Z U U U C       ; U                         u.u.D.                  k.%.%.%.j.                    E.u.u.F.            s.%.%.%.;.                                                                                ",
"                                                                                                                                                                                          :.%.%.!.                                          c.%.%.%.!.s.                                                                              ",
"                                                                                                                                                                                      /.1.%.%.%.G.                                          H.*.%.%.%.(.6.                                                                            ",
"                                                                                                                                                                                    7.%.%.%.%.&.                                              ;.(.%.%.%.G.                                                                            ",
"                                                                                                                                                                                      2.p.p.$.                                                    0.H.k.                                                                              ",
"                                                                                                                                                                                                                                                                                                                                      "};
