/* XPM */
static char * pvl_xpm[] = {
"160 21 31 1",
" 	c None",
".	c #E4E8EF",
"+	c #889DBC",
"@	c #D6DDE8",
"#	c #A8B7CE",
"$	c #F1F4F7",
"%	c #4E6C9B",
"&	c #33558B",
"*	c #6D86AC",
"=	c #406193",
"-	c #899DBC",
";	c #C4CEDD",
">	c #5E7AA4",
",	c #7C92B5",
"'	c #B6C2D6",
")	c #E3E7EF",
"!	c #F0F3F7",
"~	c #32548B",
"{	c #9AABC6",
"]	c #7B91B4",
"^	c #4D6B9A",
"/	c #A7B6CD",
"(	c #D5DCE7",
"_	c #C8D2E0",
":	c #3F6093",
"<	c #E4E8F0",
"[	c #9BABC6",
"}	c #C5CEDE",
"|	c #5F7AA5",
"1	c #244983",
"2	c #FFFFFF",
"  111111111111111111111111111111111111111111111111111111111111111111111111111111111111111111111111111111111111111111111111111111111111111111111111111111111111  ",
" 1@222222222222222222222222222222222222222222222222222222222222222222222222222222222222222222222222222222222222222222222211111111111111111111111111111111111111 ",
"1<22222222222222222222222222222222222222222222222222222222222222222222222222222222222222222222222222222222222222222222222111111111111111111111111111111111111111",
"1222222222222222222222222222222222222222222222222222222222222222222222222222222222222222222222222222222222222222222222222111111111111111111111111111111111111111",
"1222222@}}}}}$222$}$22222@@22}}}}}.2222.}2222222.}22222.#[[.2222222@@2222222}.222.#[[@22222@@22222@[[#$222$}}}}}}}}222222111111;21111111111111111+21111111111111",
"1222222|111111-22}1}22222||22111111%.22[12222222[12222-1=|=1-222222-1$22222'1'22-1&|=1*$222||222$|1%|&&#22}11111111222222111111;21111111111111111+21111111111111",
"1222222||2222[1[2}1}22222||221[222@=|22[12222222[1222,&}222[1[22222.1#22222,=22-1[222}&%222||22$%%.22$,1@2}1}222222222222111111;21111111111111111+21111111111111",
"1222222||22222%|2}1}22222||221[2222[122[12222222[122@1#22222|%222222|%2222$1[2.1[22222}1#22||22[1.2222$&-2}1}222222222222111111;211111111*(22(*11+2^)2(>11111111",
"1222222||22222%|2}1}22222||221[2222,=22[12222222[122[122222222222222#1.222#1.2[12222222%|22||22||222222222}1}222222222222111111;21111111*2;+{!!~1+2!'+)2^1111111",
"1222222||222$[1#2}1}22222||221|[[[|=@22[12222222[122||222222222222222&-222%*22||2222222[122||221[222222222}1,[[[[[}222222111111;21111111+)~11*2>1+2+11~!'1111111",
"1222222|111111-22}1}22222||221=|||=&#22[12222222[122||222222222222222,=22.1#22||2222222[122||221[222222222}1%|||||#222222111111;211111111111^{2>1+2:111/!1111111",
"1222222|%}}}}2222}1}22222||221[2222[1}2[12222222[122*%222222222222222@1'2-&222*%2222222-&22||22&-222222222}1}222222222222111111;21111111~+)2222>1+21111+21111111",
"1222222||22222222}1'22222%|221[222221[2[12222222[122[1$22222#|.2222222%,2=-222[1$222222=*22||22*%222222-*2}1}222222222222111111;21111111/2/+>*2>1+21111{21111111",
"1222222||2222222221,2222.1[221[2222.1[2[12222222[122.1[22222%=22222222#1#1.222$&,22222#1}22||22#1}2222.&,2}1}222222222222111111;211111112{111+2>1+2]111)'1111111",
"1222222||222222222-1*'}[=&.221,}}}#%&$2[1}}}}}.2[1222[1[.2@*1'22222222$1=|22222#1*.2$[1,222||222|&#$2'%&.2}1[}}}}}}222222111111;2+++++]1))*>{22>1+2)]>;2>1111111",
"1222222||2222222222-1111=@22211111&*@22[111111[2[12222[&111='2222222222,1#222222}=111&[2222||222$-1111|@22}11111111222222111111;222222;1*!22)*!{1+2]22!]11111111",
"122222222222222222222}}.22222222222222222222222222222222@}@22222222222222222222222.}@22222222222222}}.22222222222222222221111111111111111~>^11111111:>~111111111",
"1222222222222222222222222222222222222222222222222222222222222222222222222222222222222222222222222222222222222222222222222111111111111111111111111111111111111111",
"1_22222222222222222222222222222222222222222222222222222222222222222222222222222222222222222222222222222222222222222222222111111111111111111111111111111111111111",
" 1_222222222222222222222222222222222222222222222222222222222222222222222222222222222222222222222222222222222222222222222211111111111111111111111111111111111111 ",
"  111111111111111111111111111111111111111111111111111111111111111111111111111111111111111111111111111111111111111111111111111111111111111111111111111111111111  "};
