/* XPM */
static char * unimplemented_xpm[] = {
"124 130 48 1",
" 	c None",
".	c #222222",
"+	c #000000",
"@	c #191919",
"#	c #060606",
"$	c #111111",
"%	c #020202",
"&	c #2E2E2E",
"*	c #080808",
"=	c #292929",
"-	c #212121",
";	c #0E0E0E",
">	c #282828",
",	c #010101",
"'	c #151515",
")	c #0C0C0C",
"!	c #0A0A0A",
"~	c #040404",
"{	c #101010",
"]	c #2A2A2A",
"^	c #1D1D1D",
"/	c #161616",
"(	c #030303",
"_	c #0D0D0D",
":	c #070707",
"<	c #272727",
"[	c #232323",
"}	c #181818",
"|	c #2B2B2B",
"1	c #121212",
"2	c #1F1F1F",
"3	c #0F0F0F",
"4	c #252525",
"5	c #050505",
"6	c #090909",
"7	c #171717",
"8	c #1A1A1A",
"9	c #1B1B1B",
"0	c #1E1E1E",
"a	c #242424",
"b	c #2C2C2C",
"c	c #262626",
"d	c #131313",
"e	c #2D2D2D",
"f	c #141414",
"g	c #202020",
"h	c #0B0B0B",
"i	c #1C1C1C",
"                                                                                                                            ",
"                                                .++++                                                                       ",
"                                             @#++++++++++++++++#                                                            ",
"                                            $++++++++++++++++++++                                                           ",
"                                          %++++++++++++++++++++++-                                                          ",
"                                         +++++++++++++++++++++++++                                                          ",
"                                         ++++++++++++++++++++++++++(                                                        ",
"                                        +++++++++++++++++++++++++++++++++++                                                 ",
"                                        ++++++++++++++++++++++++++++++++++++++                                              ",
"                                       &++++++++++++++++++*    =+++++++0    f++++{                                          ",
"                                       +++++++++++++++++-        +++++g       ++++++                                        ",
"                                     #++++++++++++++;>            00f+h         0^++++#                                     ",
"                                   ++++++++++++++++$                  #+++           ++++                                   ",
"                                 ++++++++++++++++,                     (+++}          [++++                                 ",
"                              '++++++++++++++++++                       _++++           /++++'                              ",
"                             =++)  ++++++++++++++                        ++++7            +++++                             ",
"                            ;+!    %++++++++++~                          g++++              9++~                            ",
"                           +++      ++++++++++{                           ++++                +++                           ",
"                         !++        ++++++++++                            ++++                 g++!b                        ",
"                       $++]        ~++++++++++                            ++++                   ]++0                       ",
"                      ^++'        /+++++++++++                            %++++                   '+*                       ",
"                     (++=        +++++++++++++      + ++++            !+} b++++++                  =++(                     ",
"                    ^++^        '+++++++++++++     _    :+<          -<  ++++++++                   ^++^                    ",
"                   !++[         +++++++++++++                              ++++++6                   [++!                   ",
"                  @++<         ++++++++++++++                              ++++++6                    <++@                  ",
"                 '++}          ++++++++++++++         ====           =%+   ++++++6                     }++'                 ",
"                {++|           +++++++++++++1        [+++ $         +++++  ++++++                       |++{                ",
"                ++}           *+++++++++++++]       +1 +(            ~+  h ++++++                        }++9               ",
"               ++|           +++++++++++++++]                    <         ++++++#                        |++%              ",
"              ,+2            +++++++++++++++3                    <          ++++++0                        2++i             ",
"             ~+4            +++++++++++++++++#                              +++++++6                        4++             ",
"            +++            +++++++++++++++++++                    +         ++++++++                         +++            ",
"            ++             +++++++++++++++++++                               +++++++6                         ++e           ",
"           ^++            ++++++++++++++++++++                               ++++++++                          ++           ",
"           +5             ++++++++++++++++++++                               +++++++(                          5++          ",
"          +*              ++++++++++++++++++++               +      +        #++++++                            *+9         ",
"         6+7              ++++++++++++++++++ +               +      +        {++++++                            7+6         ",
"        ~++               =++++++++++++++++                                  ,++++/                              g+~        ",
"        ++                 +++++++++++++++++                                 ++++5                                ++        ",
"       8+*                  ,++++++++++++90+                 a).aaf%         ++++6                                ]+,       ",
"       ,+                   #++++++++++++   ]               .++++++++       +++++5                                 ++       ",
"       +!                   #+++++++++++    )               '               ++++++                                 !+       ",
"      ++                    ~++++++++++++   [+             ]         +     ++++++                                   9+      ",
"      +                     ++++++++++++++  )+                      ++     ++++7                                     +      ",
"     ++                     ++++++++++++++++++               (***:++++     +++                                       ++     ",
"     ++                     ++++++++++++++++++{              +++++++++     +++                                       ++     ",
"    |+0                     5+++++++++++++++++%               b%++++3     6++!                                        +:    ",
"    ++                      #++++++++++++++++++                           5                                           ++    ",
"    ++                       ++++++++++++++++++'                         g!                                           *+^   ",
"    +c                       +++++++++++++++++++                         +!                                            ++   ",
"   ++                         +++++++++++++++++++                       >+                                             ++   ",
"   ++                          ++++++++++++++++++                       ,2                                             :+0  ",
"  8+;                              > d+++++++++++       9              +'                                              }+8  ",
"  (+}                                 +++++++++++        c          0h++                                               }+'  ",
"  ++}                                  ++++++++++         1+:      +++++                                                ++  ",
"  ++                                    /:+++++++;          '+++++++++++                                                ++  ",
"  ++                                        _+++++             5+++~  #+                                                ++  ",
"  ++                                          ++++b                   ;+h                                                +g ",
" ,+                                             +++                    ++,                                               ++ ",
" ++                                              #+                     ++                                               ++ ",
" +!                                              e+                      +,                                              e+d",
"++                                                +>                      ++                                              ++",
"++                                                +a                       {+                                             ++",
"++                                                e+                         #+                                           ++",
"++                                                .+                          ++-                                         ++",
"++                                                | +                           |+++=                                     ++",
"++                                               ~  +                            =++++                                    ++",
"++                                              ++  i                                 6+,@                                ++",
"++                                             ++-                                    |++++++                             ++",
"++                                            )+1                                     *+++++++'                           ++",
"++                                           ++c     >                                ++++++++++                          ++",
"++                                         g+,;                                      [++++++++++++                        ++",
"++                                     =+++e                                         +++++++++++++++'                     ++",
"++                                   _++++]                                         $++++++++++++++++=                    ++",
"++                                 '++++++                                          ,+++++++++++++++++d                   ++",
" +}                              +++++++++     +++                                  +++++++++++++++++++<                  ++",
" ++                             h+++++++++     0!+++'                              $++++++++++++++++++++^                6+ ",
" ++                            +++++++++++         3++++c /                        ++++++++++++++++++++++                ++ ",
" %+[                          6+++++++++++d           5%++i                       +++++++++++++++++++++++3               +% ",
"  ++                          +++++++++++++              +8          ^            ++++++++++++++++++++++++              ++  ",
"  ++                         ++++++++++++++              ++      ;    7           +++++++++++++++++++++++++             ++  ",
"  #+c                       ~++++++++++++++             {            :+          5+++++++++++++++++++++++++             ++  ",
"  8+}                       +++++++++++++++                           *          ++++++++++0  +++++++++++++^           }+;  ",
"  8+'                      ;+++++++++++++++@         |    <--b         +4bbbb-+i------        +++++++++++++^           }+8  ",
"   ++                      +++++++++++++++++        +         c+++++++++                      +++++++++++++{           ;+8  ",
"   ++                     ++++++++++++++++++]      a           3+9                           |++++++++++++++           ++   ",
"   ++                     ++++++++++++++++++i      a            +                            +++++++++++++++           ++   ",
"    ++                    +++++++++++++++++++      _     ]@ 5   +                            f ++++++++++++++         4++   ",
"    ++                    +++++++++++++++++++     :c         e !+                            g  +++++++++++++;        ++    ",
"    i+                    ++++++++++++++++++++   !+            ++                               +++++++++++++(        ++    ",
"     ++                  6++++++++++++++++++++{  %f            +                            +   }++++++++++++(       ++|    ",
"     ++                  +++++++++++++++++++++6  ~        '   ++                +++         +    ++++++++++++(       ++     ",
"      +                  ++++++++++++++++++++++  !+       +0  ++           hhhhhhhhh,++i    +    ++++++++++++(       +:     ",
"      9+                 +++++++++++++++++++++++  +      ++++++/         <               + )+    +++++++++++++      ++      ",
"       +                 ++++++++++++++++++++++++ +     ~++++++         >                  ++    +++++++++++++      +       ",
"       ++                ++++++++++++++++++++++++++>   &(++++++          #                  0=   ++++++++++++,     *+       ",
"       ,+/               ++++++++++++++++++++++++++>    )++++++           +++9                   ++++++++++++(     +,       ",
"       i++               ++++++++++++++++++++++++++>     ++++++          '6        c            +++++++++++++(    :+i       ",
"         ++              ++++++++++++++++++++++++++>      +++++           #                     +++++++++@ '+(    ++        ",
"         ,+               +++++++++++++++++++++++++>      %+++            +'                     ++++++~;   +,   +,         ",
"          +3              ++@c+++++++++++++++++++++>      4+++            ++++                   .++++%     ++  7+9         ",
"          ++.             ++   ++++++++++++++++++++>      4+++            +                       ++++      ++  *+          ",
"           ++*            ++     =+++++++++++++++++>       ++7             ~                      +.        <+(~+-          ",
"           0++            ++       ++++++++++++++++>       ++               +9                    2          +++0           ",
"            ++!           +         =.+++++++++++++>       ++               3++0a                _           +++            ",
"             ++           +            ++++++++++++/       ++                ++   ++g            +           ++             ",
"              ++          +            ++++++++++~ <       ++                }+                  +          ++5             ",
"              ,++         +            /+++++++++         4++                 |++                +         ++,              ",
"               +++        +             ++++++++          )+6                   +++             +         +++               ",
"                *+,       +             ++++++            ++_                     ++ >             =     ,+*                ",
"                 +++      +              ++++             ++_                      +                <   +++                 ",
"                  6++     +              +++            -+++_                      {*                ;g++6                  ",
"                   +++    +              ++             ++++_                        +               ++++                   ",
"                    #++   +             +_             f++++                          (@             ++#                    ",
"                     %++ [+            +[              +++++                          |++           ++%                     ",
"                      +++++           +)              ++++++                          ;++9        :+++                      ",
"                        +++         5,-               +++++g                          ++++       %++                        ",
"                         +++       (+@                +++++                           +++++     +++                         ",
"                          ^++$     _                 :+++++                           +++++   0*+^                          ",
"                            (++   +                 +++++++                           +++++0 ++(                            ",
"                             6++++                  +++++++                           ++++++++6                             ",
"                              )++++]               a++++++3                           +++++++)                              ",
"                                +++++              h++++++<                          4++++++                                ",
"                                  }+++,            +++++++<                         %++++}                                  ",
"                                     f++++        ++++++++<                       ++++f                                     ",
"                                       &++++~9   ,++++++++<                  c9}++++&                                       ",
"                                         ]++++++++++++++++<               ++++++++]                                         ",
"                                             @7+++++++++++*           <++++++7@                                             ",
"                                                  ++++++++++++++++++++++++                                                  ",
"                                                       ++++++++++++++                                                       "};
